<svg width="24" height="24" viewBox="0 0 24 24" fill="none" xmlns="http://www.w3.org/2000/svg">
<path d="M20.46 3.49207C19.3598 2.38078 18.0494 1.49967 16.6052 0.900132C15.1609 0.300593 13.6117 -0.00537614 12.048 7.14835e-05C5.496 7.14835e-05 0.156005 5.34007 0.156005 11.8921C0.156005 13.9921 0.708005 16.0321 1.74 17.8321L0.0600052 24.0001L6.36 22.3441C8.1 23.2921 10.056 23.7961 12.048 23.7961C18.6 23.7961 23.94 18.4561 23.94 11.9041C23.94 8.72407 22.704 5.73607 20.46 3.49207ZM12.048 21.7801C10.272 21.7801 8.532 21.3001 7.008 20.4001L6.648 20.1841L2.904 21.1681L3.9 17.5201L3.66 17.1481C2.6733 15.5724 2.14937 13.7512 2.148 11.8921C2.148 6.44407 6.588 2.00407 12.036 2.00407C14.676 2.00407 17.16 3.03607 19.02 4.90807C19.941 5.82482 20.6708 6.91526 21.1673 8.11618C21.6637 9.31709 21.9168 10.6046 21.912 11.9041C21.936 17.3521 17.496 21.7801 12.048 21.7801ZM17.472 14.3881C17.172 14.2441 15.708 13.5241 15.444 13.4161C15.168 13.3201 14.976 13.2721 14.772 13.5601C14.568 13.8601 14.004 14.5321 13.836 14.7241C13.668 14.9281 13.488 14.9521 13.188 14.7961C12.888 14.6521 11.928 14.3281 10.8 13.3201C9.912 12.5281 9.324 11.5561 9.144 11.2561C8.976 10.9561 9.12 10.8001 9.276 10.6441C9.408 10.5121 9.576 10.2961 9.72 10.1281C9.864 9.96007 9.924 9.82807 10.02 9.63607C10.116 9.43207 10.068 9.26407 9.996 9.12007C9.924 8.97607 9.324 7.51207 9.084 6.91207C8.844 6.33607 8.592 6.40807 8.412 6.39607H7.836C7.632 6.39607 7.32 6.46807 7.044 6.76807C6.78 7.06807 6.012 7.78807 6.012 9.25207C6.012 10.7161 7.08 12.1321 7.224 12.3241C7.368 12.5281 9.324 15.5281 12.3 16.8121C13.008 17.1241 13.56 17.3041 13.992 17.4361C14.7 17.6641 15.348 17.6281 15.864 17.5561C16.44 17.4721 17.628 16.8361 17.868 16.1401C18.12 15.4441 18.12 14.8561 18.036 14.7241C17.952 14.5921 17.772 14.5321 17.472 14.3881Z" fill="white"/>
</svg>
