<svg width="54" height="76" viewBox="0 0 54 76" fill="none" xmlns="http://www.w3.org/2000/svg">
<path d="M24.5587 0.533468C24.2171 0.191894 23.7538 0 23.2708 0C22.7877 0 22.3244 0.191894 21.9829 0.533468C21.6413 0.875042 21.4494 1.33832 21.4494 1.82137V7.28549C21.4494 7.76855 21.6413 8.23183 21.9829 8.5734C22.3244 8.91497 22.7877 9.10687 23.2708 9.10687C23.7538 9.10687 24.2171 8.91497 24.5587 8.5734C24.9002 8.23183 25.0921 7.76855 25.0921 7.28549V1.82137C25.0921 1.33832 24.9002 0.875042 24.5587 0.533468Z" fill="#7730DF"/>
<path d="M40.9569 19.5012C41.2985 19.1596 41.4904 18.6963 41.4904 18.2133C41.4904 17.7302 41.2985 17.2669 40.9569 16.9254C40.6153 16.5838 40.1521 16.3919 39.669 16.3919H34.2049C33.7218 16.3919 33.2586 16.5838 32.917 16.9254C32.5754 17.2669 32.3835 17.7302 32.3835 18.2133C32.3835 18.6963 32.5754 19.1596 32.917 19.5012C33.2586 19.8427 33.7218 20.0346 34.2049 20.0346H39.669C40.1521 20.0346 40.6153 19.8427 40.9569 19.5012Z" fill="#7730DF"/>
<path d="M29.1838 10.4852C29.1838 10.9681 29.3756 11.4313 29.717 11.7729C30.0586 12.1143 30.5218 12.3062 31.0047 12.3062C31.4877 12.3062 31.9509 12.1143 32.2925 11.7729L36.1556 7.90975C36.4971 7.56798 36.6889 7.10455 36.6887 6.62139C36.6885 6.13824 36.4964 5.67494 36.1547 5.33341C35.8129 4.99189 35.3495 4.80012 34.8663 4.80029C34.3832 4.80046 33.9199 4.99256 33.5783 5.33432L29.717 9.19746C29.3756 9.53902 29.1838 10.0022 29.1838 10.4852Z" fill="#7730DF"/>
<path d="M24.5604 27.8543C24.2188 27.5127 23.7556 27.3208 23.2725 27.3208C22.7894 27.3208 22.3262 27.5127 21.9846 27.8543C21.643 28.1958 21.4511 28.6591 21.4511 29.1422V34.6063C21.4511 35.0894 21.643 35.5526 21.9846 35.8942C22.3262 36.2358 22.7894 36.4277 23.2725 36.4277C23.7556 36.4277 24.2188 36.2358 24.5604 35.8942C24.902 35.5526 25.0939 35.0894 25.0939 34.6063V29.1422C25.0939 28.6591 24.902 28.1958 24.5604 27.8543Z" fill="#7730DF"/>
<path d="M13.6322 19.5018C13.9737 19.1603 14.1656 18.697 14.1656 18.2139C14.1656 17.7309 13.9737 17.2676 13.6322 16.926C13.2906 16.5845 12.8273 16.3926 12.3443 16.3926H6.88013C6.39707 16.3926 5.9338 16.5845 5.59223 16.926C5.25065 17.2676 5.05876 17.7309 5.05876 18.2139C5.05876 18.697 5.25065 19.1603 5.59223 19.5018C5.9338 19.8434 6.39707 20.0353 6.88013 20.0353H12.3443C12.8273 20.0353 13.2906 19.8434 13.6322 19.5018Z" fill="#7730DF"/>
<path d="M9.86211 29.8052C9.86211 30.2881 10.0539 30.7513 10.3954 31.0929C10.5645 31.2622 10.7654 31.3966 10.9865 31.4882C11.2076 31.5799 11.4446 31.6271 11.684 31.6271C11.9234 31.6271 12.1604 31.5799 12.3815 31.4882C12.6026 31.3966 12.8035 31.2622 12.9726 31.0929L16.8339 27.2297C17.0079 27.0617 17.1467 26.8607 17.2421 26.6385C17.3376 26.4163 17.3878 26.1773 17.3899 25.9355C17.392 25.6936 17.3459 25.4538 17.2544 25.23C17.1628 25.0061 17.0275 24.8028 16.8565 24.6317C16.6855 24.4607 16.4821 24.3255 16.2583 24.2339C16.0345 24.1423 15.7946 24.0962 15.5528 24.0983C15.3109 24.1004 15.0719 24.1507 14.8497 24.2461C14.6275 24.3416 14.4265 24.4804 14.2585 24.6543L10.3954 28.5174C10.0539 28.859 9.86211 29.3222 9.86211 29.8052Z" fill="#7730DF"/>
<path d="M16.8303 11.7734C16.4887 12.1149 16.0256 12.3067 15.5426 12.3067C15.0596 12.3067 14.5964 12.1149 14.2549 11.7734L10.3936 7.91212C10.0518 7.5706 9.85971 7.1073 9.85954 6.62415C9.85937 6.14099 10.0511 5.67755 10.3927 5.33579C10.7342 4.99403 11.1975 4.80193 11.6806 4.80176C12.1638 4.80159 12.6272 4.99336 12.969 5.33488L16.8303 9.19801C17.1718 9.53957 17.3636 10.0028 17.3636 10.4857C17.3636 10.9687 17.1718 11.4319 16.8303 11.7734Z" fill="#7730DF"/>
<path d="M53.5246 51.3669V53.2617C53.5233 55.6711 52.6041 57.9894 50.9541 59.745C49.3041 61.5007 47.0471 62.5617 44.6425 62.7123C43.3374 66.3627 41.1388 69.628 38.2474 72.2103H44.0504C44.5529 72.2103 45.0349 72.4099 45.3902 72.7653C45.7456 73.1206 45.9452 73.6026 45.9452 74.1051C45.9452 74.6077 45.7456 75.0896 45.3902 75.445C45.0349 75.8003 44.5529 76 44.0504 76H2.3636C1.86106 76 1.37909 75.8003 1.02374 75.445C0.668386 75.0896 0.46875 74.6077 0.46875 74.1051C0.46875 73.6026 0.668386 73.1206 1.02374 72.7653C1.37909 72.4099 1.86106 72.2103 2.3636 72.2103H8.16659C5.7519 70.0725 3.81745 67.4475 2.49064 64.5081C1.16382 61.5687 0.47473 58.3816 0.46875 55.1566V43.7875C0.46875 43.2849 0.668386 42.803 1.02374 42.4476C1.37909 42.0923 1.86106 41.8926 2.3636 41.8926H44.0504C46.5631 41.8926 48.9729 42.8908 50.7497 44.6676C52.5265 46.4443 53.5246 48.8542 53.5246 51.3669ZM42.1555 45.6823H4.25846V55.1566C4.26616 58.7137 5.27122 62.1973 7.15949 65.2119C9.04776 68.2264 11.7436 70.651 14.9407 72.2103H31.4733C33.8616 71.0431 35.9787 69.3883 37.6881 67.3525C39.3975 65.3168 40.6611 62.9453 41.3976 60.3911C41.424 60.348 41.4402 60.2994 41.4449 60.249C41.9211 58.5936 42.1603 56.8791 42.1555 55.1566V45.6823ZM49.7349 51.3669C49.7336 50.1925 49.3685 49.0473 48.6899 48.0887C48.0113 47.1302 47.0525 46.4054 45.9452 46.0139V55.1566C45.9467 56.3466 45.8517 57.5348 45.661 58.7094C46.8367 58.3621 47.8686 57.644 48.6028 56.6622C49.337 55.6805 49.7341 54.4877 49.7349 53.2617V51.3669Z" fill="#7730DF"/>
</svg>
