<svg width="39" height="30" viewBox="0 0 39 30" fill="none" xmlns="http://www.w3.org/2000/svg">
<path d="M32.5212 27.8529C31.2508 29.435 29.9381 30.1427 28.5831 29.9762C27.1433 29.8097 26.1694 29.1019 25.6612 27.8529C25.1531 26.6039 25.5342 25.1883 26.8046 23.6063C27.8208 22.274 28.6254 20.9417 29.2182 19.6094C29.8111 18.3604 30.2345 17.1114 30.4886 15.8624C28.202 15.6959 26.3388 14.9048 24.899 13.4893C23.4593 12.0738 22.7394 10.2002 22.7394 7.86876C22.7394 5.62054 23.5016 3.74703 25.0261 2.24822C26.4658 0.749407 28.3713 0 30.7427 0C33.3681 0 35.4007 0.832672 36.8404 2.49802C38.2801 4.24663 39 6.70301 39 9.86717C39 12.615 38.5765 15.5293 37.7296 18.6102C36.798 21.6911 35.0619 24.772 32.5212 27.8529ZM9.78176 27.8529C8.5114 29.435 7.1987 30.1427 5.84365 29.9762C4.40391 29.8097 3.42997 29.1019 2.92183 27.8529C2.41368 26.6039 2.79479 25.1883 4.06515 23.6063C5.08143 22.274 5.88599 20.9417 6.47882 19.6094C7.07166 18.3604 7.49511 17.1114 7.74919 15.8624C5.46254 15.6959 3.59935 14.9048 2.15961 13.4893C0.719868 12.0738 0 10.2002 0 7.86876C0 5.62054 0.762215 3.74703 2.28664 2.24822C3.72638 0.749407 5.63192 0 8.00326 0C10.6287 0 12.6612 0.832672 14.101 2.49802C15.5407 4.24663 16.2606 6.70301 16.2606 9.86717C16.2606 12.615 15.8371 15.5293 14.9902 18.6102C14.0586 21.6911 12.3225 24.772 9.78176 27.8529Z" fill="#A882E1"/>
</svg>
