<svg width="60" height="60" viewBox="0 0 60 60" fill="none" xmlns="http://www.w3.org/2000/svg">
<path d="M30 60C13.4315 60 -7.24234e-07 46.5685 0 30C7.24234e-07 13.4315 13.4315 -7.24234e-07 30 0C46.5685 7.24234e-07 60 13.4315 60 30C60 46.5685 46.5685 60 30 60Z" fill="#FFD990"/>
<path d="M35.9663 32.5378C35.7905 32.7136 35.5521 32.8123 35.3035 32.8123C35.0549 32.8123 34.8165 32.7136 34.6407 32.5378L30 27.8972L25.3594 32.5378C25.1826 32.7086 24.9458 32.8031 24.7 32.801C24.4542 32.7988 24.219 32.7002 24.0452 32.5264C23.8714 32.3526 23.7728 32.1174 23.7707 31.8716C23.7685 31.6258 23.863 31.389 24.0338 31.2122L29.3372 25.9088C29.513 25.733 29.7514 25.6343 30 25.6343C30.2486 25.6343 30.487 25.733 30.6628 25.9088L35.9663 31.2122C36.142 31.388 36.2408 31.6264 36.2408 31.875C36.2408 32.1236 36.142 32.362 35.9663 32.5378Z" fill="white"/>
</svg>
