<svg width="14" height="9" viewBox="0 0 14 9" fill="none" xmlns="http://www.w3.org/2000/svg">
<path fill-rule="evenodd" clip-rule="evenodd" d="M-0.000893593 4.49965C-0.000893593 4.36705 0.0517845 4.23987 0.145553 4.1461C0.239321 4.05233 0.366498 3.99965 0.499106 3.99965H12.2921L9.14511 0.853655C9.09862 0.807167 9.06174 0.751978 9.03658 0.691239C9.01142 0.630499 8.99847 0.565399 8.99847 0.499655C8.99847 0.433911 9.01142 0.368811 9.03658 0.308072C9.06174 0.247332 9.09862 0.192143 9.14511 0.145655C9.19159 0.099167 9.24678 0.0622909 9.30752 0.0371318C9.36826 0.0119727 9.43336 -0.000976563 9.49911 -0.000976562C9.56485 -0.000976562 9.62995 0.0119727 9.69069 0.0371318C9.75143 0.0622909 9.80662 0.099167 9.85311 0.145655L13.8531 4.14565C13.8997 4.1921 13.9366 4.24728 13.9618 4.30802C13.987 4.36877 14 4.43389 14 4.49965C14 4.56542 13.987 4.63054 13.9618 4.69129C13.9366 4.75203 13.8997 4.80721 13.8531 4.85365L9.85311 8.85365C9.80662 8.90014 9.75143 8.93702 9.69069 8.96218C9.62995 8.98734 9.56485 9.00029 9.49911 9.00029C9.43336 9.00029 9.36826 8.98734 9.30752 8.96218C9.24678 8.93702 9.19159 8.90014 9.14511 8.85365C9.09862 8.80717 9.06174 8.75198 9.03658 8.69124C9.01142 8.6305 8.99847 8.5654 8.99847 8.49965C8.99847 8.43391 9.01142 8.36881 9.03658 8.30807C9.06174 8.24733 9.09862 8.19214 9.14511 8.14565L12.2921 4.99965H0.499106C0.366498 4.99965 0.239321 4.94698 0.145553 4.85321C0.0517845 4.75944 -0.000893593 4.63226 -0.000893593 4.49965Z" fill="black"/>
</svg>
