<svg width="96" height="74" viewBox="0 0 96 74" fill="none" xmlns="http://www.w3.org/2000/svg">
<mask id="path-1-outside-1_700_8687" maskUnits="userSpaceOnUse" x="-0.601562" y="-1" width="97" height="75" fill="black">
<rect fill="white" x="-0.601562" y="-1" width="97" height="75"/>
<path fill-rule="evenodd" clip-rule="evenodd" d="M81.2734 20.9868C81.2734 24.6566 78.287 27.6431 74.6172 27.6431C70.9474 27.6431 67.9609 24.6566 67.9609 20.9868C67.9609 17.317 70.9474 14.3306 74.6172 14.3306C78.287 14.3306 81.2734 17.317 81.2734 20.9868ZM79.0547 20.9868C79.0547 18.5395 77.0645 16.5493 74.6172 16.5493C72.1699 16.5493 70.1797 18.5395 70.1797 20.9868C70.1797 23.4341 72.1699 25.4243 74.6172 25.4243C77.0645 25.4243 79.0547 23.4341 79.0547 20.9868Z"/>
<path fill-rule="evenodd" clip-rule="evenodd" d="M62.363 12.8082C62.214 12.9754 62.0103 13.084 61.7884 13.1144L57.6593 13.0744C57.1497 13.088 56.6556 13.2525 56.2397 13.5472C55.8238 13.8418 55.5047 14.2534 55.3229 14.7296C55.3229 14.7296 55.141 15.2466 54.9413 16.0387C54.7416 16.8308 54.6573 17.3722 54.6573 17.3722C54.502 18.3728 55.0589 19.48 55.9531 19.9481L59.594 21.8563C59.7892 22.0041 59.9209 22.2207 59.9623 22.462L60.1687 23.8709C60.1818 24.0935 60.1158 24.3135 59.9823 24.4921L57.0491 27.3676C56.3147 28.0865 56.1217 29.3157 56.6276 30.2808L57.9566 32.4996C58.5179 33.325 59.7338 33.7465 60.6879 33.4492L64.7349 32.2112C64.9545 32.2112 65.1742 32.2955 65.2984 32.3953L66.4411 33.2384C66.6074 33.3882 66.7158 33.5916 66.7473 33.8131L66.7073 37.9222C66.6985 38.934 67.4085 39.9479 68.3625 40.2807C68.3625 40.2807 68.8795 40.4627 69.6716 40.6624C70.4637 40.8621 71.0051 40.9464 71.0051 40.9464C71.0627 40.9552 71.2935 40.973 71.3512 40.973C71.8062 40.9673 72.2516 40.8422 72.643 40.6101C73.0344 40.378 73.3578 40.0471 73.581 39.6506L75.4892 36.0097C75.637 35.8145 75.8536 35.6828 76.0949 35.6413L77.5659 35.4283C77.7878 35.4283 78.0496 35.5437 78.1228 35.6192L80.9983 38.5523C81.6972 39.2668 82.8754 39.5219 83.9115 38.9739L86.1281 37.6449C86.9756 37.068 87.3861 35.8921 87.0799 34.9136L85.8552 30.9931C85.8224 30.7494 85.8844 30.5024 86.0282 30.303L86.8713 29.1604C87.0203 28.9932 87.2241 28.8846 87.446 28.8542L91.5751 28.8941C92.0847 28.8806 92.5787 28.7161 92.9947 28.4214C93.4106 28.1267 93.7297 27.7152 93.9114 27.2389C93.9114 27.2389 94.0934 26.722 94.2931 25.9299C94.4928 25.1378 94.5771 24.5964 94.5771 24.5964C94.6429 24.0867 94.5547 23.569 94.3238 23.1099C94.0929 22.6508 93.7298 22.2714 93.2813 22.0204L89.6403 20.1123C89.4452 19.9644 89.3135 19.7479 89.272 19.5066L89.0679 18.1021C89.0548 17.8795 89.1208 17.6595 89.2543 17.4809L92.1875 14.6054C92.9219 13.8865 93.1149 12.6573 92.609 11.6922L91.28 9.47341C90.7187 8.65025 89.505 8.22425 88.5487 8.52156L84.4995 9.75962C84.2969 9.75934 84.0996 9.69487 83.9359 9.57547L82.7933 8.73234C82.627 8.58262 82.5186 8.37922 82.4871 8.15769L82.527 4.04856C82.5185 3.53503 82.3562 3.03585 82.0612 2.61544C81.7661 2.19503 81.3519 1.87269 80.8718 1.69003C80.8718 1.69003 80.3549 1.50809 79.5628 1.30841C78.7707 1.10872 78.2293 1.02441 78.2293 1.02441C78.1142 1.01296 77.9988 1.00482 77.8832 1C77.4282 1.00567 76.9827 1.13082 76.5914 1.36291C76.2 1.595 75.8765 1.92587 75.6533 2.32238L73.7452 5.96334C73.5973 6.1585 73.3808 6.29016 73.1395 6.33166L71.6685 6.54244C71.4675 6.53809 71.2729 6.47141 71.1116 6.35162L68.2361 3.41844C67.8602 3.04449 67.3739 2.80155 66.8492 2.72562C66.3245 2.64969 65.7893 2.74481 65.3228 2.99688L63.1041 4.32369C62.2565 4.90056 61.8461 6.0765 62.1522 7.05497L63.377 10.9755C63.4097 11.2192 63.3478 11.4661 63.2039 11.6655L62.363 12.8082ZM64.1824 14.0773L64.9434 13.0434C65.5381 12.34 65.7688 11.1929 65.4937 10.3165L64.2712 6.39822C64.2645 6.36121 64.2792 6.29663 64.2898 6.25C64.297 6.21836 64.3023 6.19499 64.2978 6.19409L66.4012 4.93384L66.6519 4.97156L69.5296 7.90475C70.0399 8.42394 70.8808 8.76119 71.6707 8.76119C71.8226 8.76358 71.9744 8.74945 72.1233 8.71903L73.3991 8.53044C73.8783 8.47231 74.3372 8.30276 74.739 8.03536C75.1409 7.76797 75.4745 7.41017 75.7132 6.99062L77.6192 3.35188C77.6878 3.27493 77.7828 3.22661 77.8854 3.21653C77.9098 3.21875 78.3624 3.29419 79.0236 3.45837C79.6826 3.62478 80.1175 3.77344 80.1374 3.78231C80.2062 3.81116 80.3061 3.95537 80.3105 4.02637L80.2706 8.1355C80.2617 9.05406 80.8142 10.0858 81.5286 10.5517L82.5603 11.3127C83.2459 11.8918 84.4218 12.1359 85.2872 11.863L89.2232 10.6382C89.2712 10.6382 89.3221 10.6535 89.3584 10.6644C89.3926 10.6747 89.4138 10.6811 89.4074 10.6671L90.6676 12.7705C90.692 12.8282 90.6676 12.9746 90.6299 13.0212L87.6967 15.8989C87.0422 16.5446 86.7027 17.6628 86.8824 18.4926L87.0688 19.7684C87.1487 20.6825 87.7966 21.6566 88.6108 22.0826L92.2496 23.9885C92.3259 24.0576 92.374 24.1524 92.3849 24.2547C92.3199 24.6373 92.2392 25.017 92.1431 25.3929C92.0511 25.7687 91.943 26.1403 91.8192 26.5068C91.7903 26.5755 91.6461 26.6754 91.5751 26.6798L87.4438 26.6399C86.5319 26.6399 85.5112 27.1923 85.0498 27.8979L84.2909 28.9296C83.9914 29.3089 83.7855 29.7535 83.6898 30.2273C83.5942 30.701 83.6117 31.1907 83.7407 31.6565L84.9632 35.5748C84.9698 35.6103 84.9553 35.6746 84.9448 35.7216C84.9375 35.7539 84.9321 35.778 84.9366 35.7789L82.8332 37.0392L82.5825 37.0014L79.7048 34.0682C79.1945 33.5491 78.3536 33.2118 77.5637 33.2118C77.4117 33.2094 77.26 33.2236 77.1111 33.254L75.8353 33.4426C75.3561 33.5007 74.8972 33.6702 74.4953 33.9376C74.0935 34.205 73.7598 34.5628 73.5211 34.9824L71.6152 38.6211C71.5466 38.6981 71.4516 38.7464 71.349 38.7565C70.9664 38.6914 70.5867 38.6107 70.2108 38.5146C69.835 38.4226 69.4634 38.3145 69.0969 38.1907C69.0282 38.1618 68.9283 38.0176 68.9239 37.9466L68.9638 33.8375C68.9727 32.9189 68.4202 31.8872 67.7058 31.4213L66.6741 30.6602C66.2944 30.3605 65.8495 30.1545 65.3753 30.0589C64.9011 29.9633 64.4111 29.9808 63.945 30.11L60.0089 31.3347C59.9564 31.3347 59.9012 31.3193 59.8648 31.3091C59.837 31.3013 59.8201 31.2966 59.8237 31.3041L58.5645 29.2025C58.5401 29.1448 58.5645 28.9984 58.6022 28.9518L61.5354 26.0741C62.19 25.4284 62.5294 24.3102 62.3497 23.4804L62.1633 22.2068C62.1051 21.7274 61.9353 21.2683 61.6675 20.8664C61.3997 20.4645 61.0414 20.131 60.6213 19.8927L56.9826 17.9867C56.9063 17.9176 56.8581 17.8229 56.8472 17.7205C56.8494 17.6961 56.9249 17.2435 57.0891 16.5823C57.2555 15.9233 57.4041 15.4884 57.413 15.4685C57.4418 15.3997 57.5861 15.2998 57.6571 15.2954L61.7884 15.3353C62.7003 15.3353 63.7209 14.7829 64.1824 14.0773Z"/>
<path fill-rule="evenodd" clip-rule="evenodd" d="M30.2422 55.3771C36.9717 55.3771 42.4453 49.9035 42.4453 43.174C42.4453 36.4445 36.9717 30.9709 30.2422 30.9709C23.5127 30.9709 18.0391 36.4445 18.0391 43.174C18.0391 49.9035 23.5127 55.3771 30.2422 55.3771ZM30.2422 33.1896C35.7469 33.1896 40.2266 37.6693 40.2266 43.174C40.2266 48.6787 35.7469 53.1584 30.2422 53.1584C24.7375 53.1584 20.2578 48.6787 20.2578 43.174C20.2578 37.6693 24.7375 33.1896 30.2422 33.1896Z"/>
<path fill-rule="evenodd" clip-rule="evenodd" d="M9.59006 49.2093C9.98056 49.3025 10.5108 49.784 10.6639 50.2233L11.4405 52.0959C11.6158 52.4554 11.5825 53.1676 11.3739 53.5093L8.27434 58.5769C7.61094 59.6641 7.7485 61.2039 8.64044 62.2023L11.2652 64.8249C12.1793 65.6369 13.7924 65.7834 14.8441 65.1466L19.9117 62.047C20.229 61.8518 20.9101 61.783 21.3872 62.0071L23.2576 62.7792C23.6348 62.9101 24.1162 63.4382 24.2094 63.8287L25.6006 69.6063C25.8957 70.831 27.0649 71.8384 28.3207 71.9537C28.3207 71.9537 29.0907 72.0247 30.2444 72.0247C31.3497 72.0247 32.1027 71.9596 32.166 71.9541L32.1703 71.9537C32.806 71.8787 33.4047 71.615 33.8891 71.1966C34.3735 70.7782 34.7215 70.2243 34.8882 69.6063L36.2816 63.8287C36.3748 63.4404 36.8541 62.9101 37.2934 62.757L39.166 61.9804C39.4966 61.8185 40.2621 61.8518 40.5793 62.047L45.647 65.1466C46.0929 65.4195 46.6254 65.5637 47.1912 65.5637C47.9567 65.5637 48.6978 65.2953 49.2724 64.7827L51.895 62.1579C52.3107 61.6672 52.5648 61.06 52.6224 60.4195C52.68 59.7789 52.5383 59.1361 52.2167 58.5791L49.1171 53.5115C48.9085 53.1698 48.8753 52.4576 49.0772 52.036L49.8493 50.1656C49.9802 49.7884 50.5082 49.3069 50.8988 49.2138L56.6764 47.8226C57.2944 47.6552 57.8483 47.3067 58.2666 46.8219C58.6849 46.3372 58.9487 45.7383 59.0238 45.1024C59.0238 45.1024 59.0948 44.3325 59.0948 43.1788C59.0948 42.0735 59.0297 41.3205 59.0242 41.2572C59.0239 41.2544 59.0238 41.253 59.0238 41.2529C58.9484 40.6171 58.6846 40.0184 58.2663 39.5337C57.848 39.0489 57.2943 38.7004 56.6764 38.5327L50.901 37.1438C50.5105 37.0506 49.9802 36.5691 49.8271 36.1298L49.0505 34.2572C48.8752 33.8977 48.9085 33.1855 49.1171 32.8438L52.2167 27.7762C52.8801 26.689 52.7425 25.1492 51.8506 24.1508L49.2258 21.5282C48.3095 20.7139 46.6942 20.5675 45.647 21.2065L40.5793 24.3061C40.2621 24.4991 39.5787 24.5723 39.1039 24.346L37.2335 23.5739C36.8563 23.443 36.377 22.9149 36.2838 22.5244L34.8905 16.7468C34.7231 16.1287 34.3746 15.5749 33.8898 15.1566C33.405 14.7382 32.8062 14.4745 32.1703 14.3993C32.1696 14.3997 32.1522 14.3984 32.1193 14.396C31.9297 14.3821 31.2253 14.3306 30.2422 14.3306C29.1369 14.3306 28.3839 14.3957 28.3206 14.4012L28.3163 14.4016C27.6805 14.477 27.0818 14.7408 26.5971 15.1591C26.1124 15.5774 25.7638 16.1311 25.5961 16.749L24.2072 22.5222C24.114 22.9127 23.6325 23.443 23.1932 23.5961L21.3206 24.3726C20.9878 24.5346 20.2245 24.4991 19.9072 24.3061L14.8418 21.2065C13.7924 20.5675 12.2126 20.6784 11.2164 21.5703L8.59384 24.1951C8.17808 24.6859 7.92404 25.293 7.86645 25.9336C7.80886 26.5742 7.95055 27.217 8.27213 27.774L11.3717 32.8416C11.5803 33.1833 11.6136 33.8955 11.4117 34.3171L10.6395 36.1875C10.5086 36.5647 9.98056 37.0461 9.59006 37.1393L3.81244 38.5305C3.19438 38.6979 2.64055 39.0464 2.22221 39.5311C1.80387 40.0159 1.54015 40.6148 1.465 41.2507C1.46585 41.2507 1.46392 41.2791 1.46024 41.3332C1.44478 41.5607 1.39844 42.2423 1.39844 43.1743C1.39844 44.2796 1.4636 45.0326 1.46907 45.0959L1.46944 45.1002C1.54488 45.736 1.8087 46.3347 2.227 46.8194C2.64529 47.3041 3.19896 47.6527 3.81687 47.8204L9.59006 49.2093ZM3.61719 43.1743C3.61719 42.1581 3.67709 41.4725 3.67931 41.4503C3.71466 41.2777 3.79356 41.117 3.9085 40.9834C4.02344 40.8498 4.17062 40.7478 4.33606 40.6871L10.1137 39.2959C11.2342 39.0253 12.3635 38.0002 12.7141 36.9729L13.4329 35.2268C13.9388 34.1906 13.8678 32.6685 13.2665 31.6834L10.1669 26.618C10.0183 26.3717 10.0604 25.8836 10.2069 25.7172L12.7385 23.1834C12.9404 23.0037 13.4551 22.9593 13.6859 23.0991L18.7535 26.1987C19.7142 26.7866 21.3605 26.8266 22.2325 26.3939L23.9809 25.6706C25.0703 25.2956 26.0953 24.1663 26.366 23.0436L27.755 17.2682C27.8152 17.1022 27.917 16.9545 28.0506 16.8391C28.1842 16.7237 28.3452 16.6446 28.5182 16.6092C28.5211 16.6092 28.5349 16.6082 28.5591 16.6065C28.7224 16.5948 29.3568 16.5493 30.2422 16.5493C31.2584 16.5493 31.944 16.6092 31.9662 16.6114C32.1388 16.6468 32.2995 16.7257 32.4331 16.8406C32.5667 16.9556 32.6687 17.1027 32.7294 17.2682L34.1206 23.0436C34.3913 24.1641 35.4141 25.2956 36.4436 25.6462L38.1898 26.3651C39.2037 26.8621 40.7746 26.7844 41.7331 26.1987L46.7985 23.0991C47.0293 22.9593 47.5751 23.0325 47.6993 23.139L50.2331 25.6706C50.4239 25.8858 50.4661 26.3717 50.3174 26.618L47.2178 31.6856C46.6166 32.6685 46.5456 34.1928 47.0226 35.1646L47.7459 36.913C48.1209 38.0024 49.2502 39.0275 50.3729 39.2982L56.1483 40.6871C56.3143 40.7473 56.462 40.8491 56.5774 40.9827C56.6928 41.1164 56.7719 41.2774 56.8073 41.4503C56.8073 41.4532 56.8083 41.4671 56.81 41.4912C56.8217 41.6546 56.8672 42.289 56.8672 43.1743C56.8672 44.1905 56.8073 44.8761 56.8051 44.8983C56.7697 45.0709 56.6908 45.2317 56.5759 45.3653C56.4609 45.4988 56.3138 45.6008 56.1483 45.6615L50.3707 47.0527C49.2502 47.3234 48.1209 48.3484 47.7703 49.3757L47.0514 51.1219C46.5456 52.158 46.6166 53.6801 47.2178 54.6652L50.3174 59.7306C50.4661 59.9769 50.4239 60.465 50.2775 60.6314L47.7459 63.1653C47.5855 63.2851 47.3891 63.3469 47.189 63.3405C47.0538 63.345 46.9199 63.3136 46.8007 63.2496L41.7331 60.15C40.7746 59.5642 39.1283 59.5221 38.2541 59.9547L36.5057 60.678C35.4163 61.053 34.3913 62.1846 34.1228 63.305L32.7316 69.0804C32.6714 69.2464 32.5696 69.3941 32.436 69.5095C32.3024 69.6249 32.1413 69.7041 31.9684 69.7394C31.9651 69.7394 31.9499 69.7405 31.9236 69.7424C31.754 69.7544 31.122 69.7993 30.2422 69.7993C29.226 69.7993 28.5404 69.7394 28.5182 69.7372C28.3456 69.7018 28.1848 69.623 28.0512 69.508C27.9177 69.3931 27.8157 69.2459 27.755 69.0804L26.3638 63.3028C26.0931 62.1824 25.0681 61.053 24.0408 60.7024L22.2946 59.9836C21.7981 59.7527 21.2557 59.6374 20.7082 59.6463C19.9783 59.6463 19.2838 59.826 18.7513 60.1522L13.6859 63.2518C13.4551 63.3916 12.9071 63.3161 12.7851 63.2119L10.2513 60.678C10.0604 60.4628 10.0183 59.9769 10.1669 59.7306L13.2665 54.663C13.8678 53.6801 13.9388 52.1558 13.4618 51.184L12.7385 49.4356C12.3635 48.3462 11.2342 47.3212 10.1115 47.0505L4.33606 45.6615C4.1701 45.6013 4.02236 45.4995 3.90698 45.3659C3.7916 45.2323 3.71245 45.0713 3.67709 44.8983C3.67709 44.8954 3.6761 44.8816 3.67437 44.8574C3.66266 44.6941 3.61719 44.0597 3.61719 43.1743Z"/>
</mask>
<path fill-rule="evenodd" clip-rule="evenodd" d="M81.2734 20.9868C81.2734 24.6566 78.287 27.6431 74.6172 27.6431C70.9474 27.6431 67.9609 24.6566 67.9609 20.9868C67.9609 17.317 70.9474 14.3306 74.6172 14.3306C78.287 14.3306 81.2734 17.317 81.2734 20.9868ZM79.0547 20.9868C79.0547 18.5395 77.0645 16.5493 74.6172 16.5493C72.1699 16.5493 70.1797 18.5395 70.1797 20.9868C70.1797 23.4341 72.1699 25.4243 74.6172 25.4243C77.0645 25.4243 79.0547 23.4341 79.0547 20.9868Z" fill="#7730DF"/>
<path fill-rule="evenodd" clip-rule="evenodd" d="M62.363 12.8082C62.214 12.9754 62.0103 13.084 61.7884 13.1144L57.6593 13.0744C57.1497 13.088 56.6556 13.2525 56.2397 13.5472C55.8238 13.8418 55.5047 14.2534 55.3229 14.7296C55.3229 14.7296 55.141 15.2466 54.9413 16.0387C54.7416 16.8308 54.6573 17.3722 54.6573 17.3722C54.502 18.3728 55.0589 19.48 55.9531 19.9481L59.594 21.8563C59.7892 22.0041 59.9209 22.2207 59.9623 22.462L60.1687 23.8709C60.1818 24.0935 60.1158 24.3135 59.9823 24.4921L57.0491 27.3676C56.3147 28.0865 56.1217 29.3157 56.6276 30.2808L57.9566 32.4996C58.5179 33.325 59.7338 33.7465 60.6879 33.4492L64.7349 32.2112C64.9545 32.2112 65.1742 32.2955 65.2984 32.3953L66.4411 33.2384C66.6074 33.3882 66.7158 33.5916 66.7473 33.8131L66.7073 37.9222C66.6985 38.934 67.4085 39.9479 68.3625 40.2807C68.3625 40.2807 68.8795 40.4627 69.6716 40.6624C70.4637 40.8621 71.0051 40.9464 71.0051 40.9464C71.0627 40.9552 71.2935 40.973 71.3512 40.973C71.8062 40.9673 72.2516 40.8422 72.643 40.6101C73.0344 40.378 73.3578 40.0471 73.581 39.6506L75.4892 36.0097C75.637 35.8145 75.8536 35.6828 76.0949 35.6413L77.5659 35.4283C77.7878 35.4283 78.0496 35.5437 78.1228 35.6192L80.9983 38.5523C81.6972 39.2668 82.8754 39.5219 83.9115 38.9739L86.1281 37.6449C86.9756 37.068 87.3861 35.8921 87.0799 34.9136L85.8552 30.9931C85.8224 30.7494 85.8844 30.5024 86.0282 30.303L86.8713 29.1604C87.0203 28.9932 87.2241 28.8846 87.446 28.8542L91.5751 28.8941C92.0847 28.8806 92.5787 28.7161 92.9947 28.4214C93.4106 28.1267 93.7297 27.7152 93.9114 27.2389C93.9114 27.2389 94.0934 26.722 94.2931 25.9299C94.4928 25.1378 94.5771 24.5964 94.5771 24.5964C94.6429 24.0867 94.5547 23.569 94.3238 23.1099C94.0929 22.6508 93.7298 22.2714 93.2813 22.0204L89.6403 20.1123C89.4452 19.9644 89.3135 19.7479 89.272 19.5066L89.0679 18.1021C89.0548 17.8795 89.1208 17.6595 89.2543 17.4809L92.1875 14.6054C92.9219 13.8865 93.1149 12.6573 92.609 11.6922L91.28 9.47341C90.7187 8.65025 89.505 8.22425 88.5487 8.52156L84.4995 9.75962C84.2969 9.75934 84.0996 9.69487 83.9359 9.57547L82.7933 8.73234C82.627 8.58262 82.5186 8.37922 82.4871 8.15769L82.527 4.04856C82.5185 3.53503 82.3562 3.03585 82.0612 2.61544C81.7661 2.19503 81.3519 1.87269 80.8718 1.69003C80.8718 1.69003 80.3549 1.50809 79.5628 1.30841C78.7707 1.10872 78.2293 1.02441 78.2293 1.02441C78.1142 1.01296 77.9988 1.00482 77.8832 1C77.4282 1.00567 76.9827 1.13082 76.5914 1.36291C76.2 1.595 75.8765 1.92587 75.6533 2.32238L73.7452 5.96334C73.5973 6.1585 73.3808 6.29016 73.1395 6.33166L71.6685 6.54244C71.4675 6.53809 71.2729 6.47141 71.1116 6.35162L68.2361 3.41844C67.8602 3.04449 67.3739 2.80155 66.8492 2.72562C66.3245 2.64969 65.7893 2.74481 65.3228 2.99688L63.1041 4.32369C62.2565 4.90056 61.8461 6.0765 62.1522 7.05497L63.377 10.9755C63.4097 11.2192 63.3478 11.4661 63.2039 11.6655L62.363 12.8082ZM64.1824 14.0773L64.9434 13.0434C65.5381 12.34 65.7688 11.1929 65.4937 10.3165L64.2712 6.39822C64.2645 6.36121 64.2792 6.29663 64.2898 6.25C64.297 6.21836 64.3023 6.19499 64.2978 6.19409L66.4012 4.93384L66.6519 4.97156L69.5296 7.90475C70.0399 8.42394 70.8808 8.76119 71.6707 8.76119C71.8226 8.76358 71.9744 8.74945 72.1233 8.71903L73.3991 8.53044C73.8783 8.47231 74.3372 8.30276 74.739 8.03536C75.1409 7.76797 75.4745 7.41017 75.7132 6.99062L77.6192 3.35188C77.6878 3.27493 77.7828 3.22661 77.8854 3.21653C77.9098 3.21875 78.3624 3.29419 79.0236 3.45837C79.6826 3.62478 80.1175 3.77344 80.1374 3.78231C80.2062 3.81116 80.3061 3.95537 80.3105 4.02637L80.2706 8.1355C80.2617 9.05406 80.8142 10.0858 81.5286 10.5517L82.5603 11.3127C83.2459 11.8918 84.4218 12.1359 85.2872 11.863L89.2232 10.6382C89.2712 10.6382 89.3221 10.6535 89.3584 10.6644C89.3926 10.6747 89.4138 10.6811 89.4074 10.6671L90.6676 12.7705C90.692 12.8282 90.6676 12.9746 90.6299 13.0212L87.6967 15.8989C87.0422 16.5446 86.7027 17.6628 86.8824 18.4926L87.0688 19.7684C87.1487 20.6825 87.7966 21.6566 88.6108 22.0826L92.2496 23.9885C92.3259 24.0576 92.374 24.1524 92.3849 24.2547C92.3199 24.6373 92.2392 25.017 92.1431 25.3929C92.0511 25.7687 91.943 26.1403 91.8192 26.5068C91.7903 26.5755 91.6461 26.6754 91.5751 26.6798L87.4438 26.6399C86.5319 26.6399 85.5112 27.1923 85.0498 27.8979L84.2909 28.9296C83.9914 29.3089 83.7855 29.7535 83.6898 30.2273C83.5942 30.701 83.6117 31.1907 83.7407 31.6565L84.9632 35.5748C84.9698 35.6103 84.9553 35.6746 84.9448 35.7216C84.9375 35.7539 84.9321 35.778 84.9366 35.7789L82.8332 37.0392L82.5825 37.0014L79.7048 34.0682C79.1945 33.5491 78.3536 33.2118 77.5637 33.2118C77.4117 33.2094 77.26 33.2236 77.1111 33.254L75.8353 33.4426C75.3561 33.5007 74.8972 33.6702 74.4953 33.9376C74.0935 34.205 73.7598 34.5628 73.5211 34.9824L71.6152 38.6211C71.5466 38.6981 71.4516 38.7464 71.349 38.7565C70.9664 38.6914 70.5867 38.6107 70.2108 38.5146C69.835 38.4226 69.4634 38.3145 69.0969 38.1907C69.0282 38.1618 68.9283 38.0176 68.9239 37.9466L68.9638 33.8375C68.9727 32.9189 68.4202 31.8872 67.7058 31.4213L66.6741 30.6602C66.2944 30.3605 65.8495 30.1545 65.3753 30.0589C64.9011 29.9633 64.4111 29.9808 63.945 30.11L60.0089 31.3347C59.9564 31.3347 59.9012 31.3193 59.8648 31.3091C59.837 31.3013 59.8201 31.2966 59.8237 31.3041L58.5645 29.2025C58.5401 29.1448 58.5645 28.9984 58.6022 28.9518L61.5354 26.0741C62.19 25.4284 62.5294 24.3102 62.3497 23.4804L62.1633 22.2068C62.1051 21.7274 61.9353 21.2683 61.6675 20.8664C61.3997 20.4645 61.0414 20.131 60.6213 19.8927L56.9826 17.9867C56.9063 17.9176 56.8581 17.8229 56.8472 17.7205C56.8494 17.6961 56.9249 17.2435 57.0891 16.5823C57.2555 15.9233 57.4041 15.4884 57.413 15.4685C57.4418 15.3997 57.5861 15.2998 57.6571 15.2954L61.7884 15.3353C62.7003 15.3353 63.7209 14.7829 64.1824 14.0773Z" fill="#7730DF"/>
<path fill-rule="evenodd" clip-rule="evenodd" d="M30.2422 55.3771C36.9717 55.3771 42.4453 49.9035 42.4453 43.174C42.4453 36.4445 36.9717 30.9709 30.2422 30.9709C23.5127 30.9709 18.0391 36.4445 18.0391 43.174C18.0391 49.9035 23.5127 55.3771 30.2422 55.3771ZM30.2422 33.1896C35.7469 33.1896 40.2266 37.6693 40.2266 43.174C40.2266 48.6787 35.7469 53.1584 30.2422 53.1584C24.7375 53.1584 20.2578 48.6787 20.2578 43.174C20.2578 37.6693 24.7375 33.1896 30.2422 33.1896Z" fill="#7730DF"/>
<path fill-rule="evenodd" clip-rule="evenodd" d="M9.59006 49.2093C9.98056 49.3025 10.5108 49.784 10.6639 50.2233L11.4405 52.0959C11.6158 52.4554 11.5825 53.1676 11.3739 53.5093L8.27434 58.5769C7.61094 59.6641 7.7485 61.2039 8.64044 62.2023L11.2652 64.8249C12.1793 65.6369 13.7924 65.7834 14.8441 65.1466L19.9117 62.047C20.229 61.8518 20.9101 61.783 21.3872 62.0071L23.2576 62.7792C23.6348 62.9101 24.1162 63.4382 24.2094 63.8287L25.6006 69.6063C25.8957 70.831 27.0649 71.8384 28.3207 71.9537C28.3207 71.9537 29.0907 72.0247 30.2444 72.0247C31.3497 72.0247 32.1027 71.9596 32.166 71.9541L32.1703 71.9537C32.806 71.8787 33.4047 71.615 33.8891 71.1966C34.3735 70.7782 34.7215 70.2243 34.8882 69.6063L36.2816 63.8287C36.3748 63.4404 36.8541 62.9101 37.2934 62.757L39.166 61.9804C39.4966 61.8185 40.2621 61.8518 40.5793 62.047L45.647 65.1466C46.0929 65.4195 46.6254 65.5637 47.1912 65.5637C47.9567 65.5637 48.6978 65.2953 49.2724 64.7827L51.895 62.1579C52.3107 61.6672 52.5648 61.06 52.6224 60.4195C52.68 59.7789 52.5383 59.1361 52.2167 58.5791L49.1171 53.5115C48.9085 53.1698 48.8753 52.4576 49.0772 52.036L49.8493 50.1656C49.9802 49.7884 50.5082 49.3069 50.8988 49.2138L56.6764 47.8226C57.2944 47.6552 57.8483 47.3067 58.2666 46.8219C58.6849 46.3372 58.9487 45.7383 59.0238 45.1024C59.0238 45.1024 59.0948 44.3325 59.0948 43.1788C59.0948 42.0735 59.0297 41.3205 59.0242 41.2572C59.0239 41.2544 59.0238 41.253 59.0238 41.2529C58.9484 40.6171 58.6846 40.0184 58.2663 39.5337C57.848 39.0489 57.2943 38.7004 56.6764 38.5327L50.901 37.1438C50.5105 37.0506 49.9802 36.5691 49.8271 36.1298L49.0505 34.2572C48.8752 33.8977 48.9085 33.1855 49.1171 32.8438L52.2167 27.7762C52.8801 26.689 52.7425 25.1492 51.8506 24.1508L49.2258 21.5282C48.3095 20.7139 46.6942 20.5675 45.647 21.2065L40.5793 24.3061C40.2621 24.4991 39.5787 24.5723 39.1039 24.346L37.2335 23.5739C36.8563 23.443 36.377 22.9149 36.2838 22.5244L34.8905 16.7468C34.7231 16.1287 34.3746 15.5749 33.8898 15.1566C33.405 14.7382 32.8062 14.4745 32.1703 14.3993C32.1696 14.3997 32.1522 14.3984 32.1193 14.396C31.9297 14.3821 31.2253 14.3306 30.2422 14.3306C29.1369 14.3306 28.3839 14.3957 28.3206 14.4012L28.3163 14.4016C27.6805 14.477 27.0818 14.7408 26.5971 15.1591C26.1124 15.5774 25.7638 16.1311 25.5961 16.749L24.2072 22.5222C24.114 22.9127 23.6325 23.443 23.1932 23.5961L21.3206 24.3726C20.9878 24.5346 20.2245 24.4991 19.9072 24.3061L14.8418 21.2065C13.7924 20.5675 12.2126 20.6784 11.2164 21.5703L8.59384 24.1951C8.17808 24.6859 7.92404 25.293 7.86645 25.9336C7.80886 26.5742 7.95055 27.217 8.27213 27.774L11.3717 32.8416C11.5803 33.1833 11.6136 33.8955 11.4117 34.3171L10.6395 36.1875C10.5086 36.5647 9.98056 37.0461 9.59006 37.1393L3.81244 38.5305C3.19438 38.6979 2.64055 39.0464 2.22221 39.5311C1.80387 40.0159 1.54015 40.6148 1.465 41.2507C1.46585 41.2507 1.46392 41.2791 1.46024 41.3332C1.44478 41.5607 1.39844 42.2423 1.39844 43.1743C1.39844 44.2796 1.4636 45.0326 1.46907 45.0959L1.46944 45.1002C1.54488 45.736 1.8087 46.3347 2.227 46.8194C2.64529 47.3041 3.19896 47.6527 3.81687 47.8204L9.59006 49.2093ZM3.61719 43.1743C3.61719 42.1581 3.67709 41.4725 3.67931 41.4503C3.71466 41.2777 3.79356 41.117 3.9085 40.9834C4.02344 40.8498 4.17062 40.7478 4.33606 40.6871L10.1137 39.2959C11.2342 39.0253 12.3635 38.0002 12.7141 36.9729L13.4329 35.2268C13.9388 34.1906 13.8678 32.6685 13.2665 31.6834L10.1669 26.618C10.0183 26.3717 10.0604 25.8836 10.2069 25.7172L12.7385 23.1834C12.9404 23.0037 13.4551 22.9593 13.6859 23.0991L18.7535 26.1987C19.7142 26.7866 21.3605 26.8266 22.2325 26.3939L23.9809 25.6706C25.0703 25.2956 26.0953 24.1663 26.366 23.0436L27.755 17.2682C27.8152 17.1022 27.917 16.9545 28.0506 16.8391C28.1842 16.7237 28.3452 16.6446 28.5182 16.6092C28.5211 16.6092 28.5349 16.6082 28.5591 16.6065C28.7224 16.5948 29.3568 16.5493 30.2422 16.5493C31.2584 16.5493 31.944 16.6092 31.9662 16.6114C32.1388 16.6468 32.2995 16.7257 32.4331 16.8406C32.5667 16.9556 32.6687 17.1027 32.7294 17.2682L34.1206 23.0436C34.3913 24.1641 35.4141 25.2956 36.4436 25.6462L38.1898 26.3651C39.2037 26.8621 40.7746 26.7844 41.7331 26.1987L46.7985 23.0991C47.0293 22.9593 47.5751 23.0325 47.6993 23.139L50.2331 25.6706C50.4239 25.8858 50.4661 26.3717 50.3174 26.618L47.2178 31.6856C46.6166 32.6685 46.5456 34.1928 47.0226 35.1646L47.7459 36.913C48.1209 38.0024 49.2502 39.0275 50.3729 39.2982L56.1483 40.6871C56.3143 40.7473 56.462 40.8491 56.5774 40.9827C56.6928 41.1164 56.7719 41.2774 56.8073 41.4503C56.8073 41.4532 56.8083 41.4671 56.81 41.4912C56.8217 41.6546 56.8672 42.289 56.8672 43.1743C56.8672 44.1905 56.8073 44.8761 56.8051 44.8983C56.7697 45.0709 56.6908 45.2317 56.5759 45.3653C56.4609 45.4988 56.3138 45.6008 56.1483 45.6615L50.3707 47.0527C49.2502 47.3234 48.1209 48.3484 47.7703 49.3757L47.0514 51.1219C46.5456 52.158 46.6166 53.6801 47.2178 54.6652L50.3174 59.7306C50.4661 59.9769 50.4239 60.465 50.2775 60.6314L47.7459 63.1653C47.5855 63.2851 47.3891 63.3469 47.189 63.3405C47.0538 63.345 46.9199 63.3136 46.8007 63.2496L41.7331 60.15C40.7746 59.5642 39.1283 59.5221 38.2541 59.9547L36.5057 60.678C35.4163 61.053 34.3913 62.1846 34.1228 63.305L32.7316 69.0804C32.6714 69.2464 32.5696 69.3941 32.436 69.5095C32.3024 69.6249 32.1413 69.7041 31.9684 69.7394C31.9651 69.7394 31.9499 69.7405 31.9236 69.7424C31.754 69.7544 31.122 69.7993 30.2422 69.7993C29.226 69.7993 28.5404 69.7394 28.5182 69.7372C28.3456 69.7018 28.1848 69.623 28.0512 69.508C27.9177 69.3931 27.8157 69.2459 27.755 69.0804L26.3638 63.3028C26.0931 62.1824 25.0681 61.053 24.0408 60.7024L22.2946 59.9836C21.7981 59.7527 21.2557 59.6374 20.7082 59.6463C19.9783 59.6463 19.2838 59.826 18.7513 60.1522L13.6859 63.2518C13.4551 63.3916 12.9071 63.3161 12.7851 63.2119L10.2513 60.678C10.0604 60.4628 10.0183 59.9769 10.1669 59.7306L13.2665 54.663C13.8678 53.6801 13.9388 52.1558 13.4618 51.184L12.7385 49.4356C12.3635 48.3462 11.2342 47.3212 10.1115 47.0505L4.33606 45.6615C4.1701 45.6013 4.02236 45.4995 3.90698 45.3659C3.7916 45.2323 3.71245 45.0713 3.67709 44.8983C3.67709 44.8954 3.6761 44.8816 3.67437 44.8574C3.66266 44.6941 3.61719 44.0597 3.61719 43.1743Z" fill="#7730DF"/>
<path fill-rule="evenodd" clip-rule="evenodd" d="M81.2734 20.9868C81.2734 24.6566 78.287 27.6431 74.6172 27.6431C70.9474 27.6431 67.9609 24.6566 67.9609 20.9868C67.9609 17.317 70.9474 14.3306 74.6172 14.3306C78.287 14.3306 81.2734 17.317 81.2734 20.9868ZM79.0547 20.9868C79.0547 18.5395 77.0645 16.5493 74.6172 16.5493C72.1699 16.5493 70.1797 18.5395 70.1797 20.9868C70.1797 23.4341 72.1699 25.4243 74.6172 25.4243C77.0645 25.4243 79.0547 23.4341 79.0547 20.9868Z" stroke="#7730DF" stroke-width="2" mask="url(#path-1-outside-1_700_8687)"/>
<path fill-rule="evenodd" clip-rule="evenodd" d="M62.363 12.8082C62.214 12.9754 62.0103 13.084 61.7884 13.1144L57.6593 13.0744C57.1497 13.088 56.6556 13.2525 56.2397 13.5472C55.8238 13.8418 55.5047 14.2534 55.3229 14.7296C55.3229 14.7296 55.141 15.2466 54.9413 16.0387C54.7416 16.8308 54.6573 17.3722 54.6573 17.3722C54.502 18.3728 55.0589 19.48 55.9531 19.9481L59.594 21.8563C59.7892 22.0041 59.9209 22.2207 59.9623 22.462L60.1687 23.8709C60.1818 24.0935 60.1158 24.3135 59.9823 24.4921L57.0491 27.3676C56.3147 28.0865 56.1217 29.3157 56.6276 30.2808L57.9566 32.4996C58.5179 33.325 59.7338 33.7465 60.6879 33.4492L64.7349 32.2112C64.9545 32.2112 65.1742 32.2955 65.2984 32.3953L66.4411 33.2384C66.6074 33.3882 66.7158 33.5916 66.7473 33.8131L66.7073 37.9222C66.6985 38.934 67.4085 39.9479 68.3625 40.2807C68.3625 40.2807 68.8795 40.4627 69.6716 40.6624C70.4637 40.8621 71.0051 40.9464 71.0051 40.9464C71.0627 40.9552 71.2935 40.973 71.3512 40.973C71.8062 40.9673 72.2516 40.8422 72.643 40.6101C73.0344 40.378 73.3578 40.0471 73.581 39.6506L75.4892 36.0097C75.637 35.8145 75.8536 35.6828 76.0949 35.6413L77.5659 35.4283C77.7878 35.4283 78.0496 35.5437 78.1228 35.6192L80.9983 38.5523C81.6972 39.2668 82.8754 39.5219 83.9115 38.9739L86.1281 37.6449C86.9756 37.068 87.3861 35.8921 87.0799 34.9136L85.8552 30.9931C85.8224 30.7494 85.8844 30.5024 86.0282 30.303L86.8713 29.1604C87.0203 28.9932 87.2241 28.8846 87.446 28.8542L91.5751 28.8941C92.0847 28.8806 92.5787 28.7161 92.9947 28.4214C93.4106 28.1267 93.7297 27.7152 93.9114 27.2389C93.9114 27.2389 94.0934 26.722 94.2931 25.9299C94.4928 25.1378 94.5771 24.5964 94.5771 24.5964C94.6429 24.0867 94.5547 23.569 94.3238 23.1099C94.0929 22.6508 93.7298 22.2714 93.2813 22.0204L89.6403 20.1123C89.4452 19.9644 89.3135 19.7479 89.272 19.5066L89.0679 18.1021C89.0548 17.8795 89.1208 17.6595 89.2543 17.4809L92.1875 14.6054C92.9219 13.8865 93.1149 12.6573 92.609 11.6922L91.28 9.47341C90.7187 8.65025 89.505 8.22425 88.5487 8.52156L84.4995 9.75962C84.2969 9.75934 84.0996 9.69487 83.9359 9.57547L82.7933 8.73234C82.627 8.58262 82.5186 8.37922 82.4871 8.15769L82.527 4.04856C82.5185 3.53503 82.3562 3.03585 82.0612 2.61544C81.7661 2.19503 81.3519 1.87269 80.8718 1.69003C80.8718 1.69003 80.3549 1.50809 79.5628 1.30841C78.7707 1.10872 78.2293 1.02441 78.2293 1.02441C78.1142 1.01296 77.9988 1.00482 77.8832 1C77.4282 1.00567 76.9827 1.13082 76.5914 1.36291C76.2 1.595 75.8765 1.92587 75.6533 2.32238L73.7452 5.96334C73.5973 6.1585 73.3808 6.29016 73.1395 6.33166L71.6685 6.54244C71.4675 6.53809 71.2729 6.47141 71.1116 6.35162L68.2361 3.41844C67.8602 3.04449 67.3739 2.80155 66.8492 2.72562C66.3245 2.64969 65.7893 2.74481 65.3228 2.99688L63.1041 4.32369C62.2565 4.90056 61.8461 6.0765 62.1522 7.05497L63.377 10.9755C63.4097 11.2192 63.3478 11.4661 63.2039 11.6655L62.363 12.8082ZM64.1824 14.0773L64.9434 13.0434C65.5381 12.34 65.7688 11.1929 65.4937 10.3165L64.2712 6.39822C64.2645 6.36121 64.2792 6.29663 64.2898 6.25C64.297 6.21836 64.3023 6.19499 64.2978 6.19409L66.4012 4.93384L66.6519 4.97156L69.5296 7.90475C70.0399 8.42394 70.8808 8.76119 71.6707 8.76119C71.8226 8.76358 71.9744 8.74945 72.1233 8.71903L73.3991 8.53044C73.8783 8.47231 74.3372 8.30276 74.739 8.03536C75.1409 7.76797 75.4745 7.41017 75.7132 6.99062L77.6192 3.35188C77.6878 3.27493 77.7828 3.22661 77.8854 3.21653C77.9098 3.21875 78.3624 3.29419 79.0236 3.45837C79.6826 3.62478 80.1175 3.77344 80.1374 3.78231C80.2062 3.81116 80.3061 3.95537 80.3105 4.02637L80.2706 8.1355C80.2617 9.05406 80.8142 10.0858 81.5286 10.5517L82.5603 11.3127C83.2459 11.8918 84.4218 12.1359 85.2872 11.863L89.2232 10.6382C89.2712 10.6382 89.3221 10.6535 89.3584 10.6644C89.3926 10.6747 89.4138 10.6811 89.4074 10.6671L90.6676 12.7705C90.692 12.8282 90.6676 12.9746 90.6299 13.0212L87.6967 15.8989C87.0422 16.5446 86.7027 17.6628 86.8824 18.4926L87.0688 19.7684C87.1487 20.6825 87.7966 21.6566 88.6108 22.0826L92.2496 23.9885C92.3259 24.0576 92.374 24.1524 92.3849 24.2547C92.3199 24.6373 92.2392 25.017 92.1431 25.3929C92.0511 25.7687 91.943 26.1403 91.8192 26.5068C91.7903 26.5755 91.6461 26.6754 91.5751 26.6798L87.4438 26.6399C86.5319 26.6399 85.5112 27.1923 85.0498 27.8979L84.2909 28.9296C83.9914 29.3089 83.7855 29.7535 83.6898 30.2273C83.5942 30.701 83.6117 31.1907 83.7407 31.6565L84.9632 35.5748C84.9698 35.6103 84.9553 35.6746 84.9448 35.7216C84.9375 35.7539 84.9321 35.778 84.9366 35.7789L82.8332 37.0392L82.5825 37.0014L79.7048 34.0682C79.1945 33.5491 78.3536 33.2118 77.5637 33.2118C77.4117 33.2094 77.26 33.2236 77.1111 33.254L75.8353 33.4426C75.3561 33.5007 74.8972 33.6702 74.4953 33.9376C74.0935 34.205 73.7598 34.5628 73.5211 34.9824L71.6152 38.6211C71.5466 38.6981 71.4516 38.7464 71.349 38.7565C70.9664 38.6914 70.5867 38.6107 70.2108 38.5146C69.835 38.4226 69.4634 38.3145 69.0969 38.1907C69.0282 38.1618 68.9283 38.0176 68.9239 37.9466L68.9638 33.8375C68.9727 32.9189 68.4202 31.8872 67.7058 31.4213L66.6741 30.6602C66.2944 30.3605 65.8495 30.1545 65.3753 30.0589C64.9011 29.9633 64.4111 29.9808 63.945 30.11L60.0089 31.3347C59.9564 31.3347 59.9012 31.3193 59.8648 31.3091C59.837 31.3013 59.8201 31.2966 59.8237 31.3041L58.5645 29.2025C58.5401 29.1448 58.5645 28.9984 58.6022 28.9518L61.5354 26.0741C62.19 25.4284 62.5294 24.3102 62.3497 23.4804L62.1633 22.2068C62.1051 21.7274 61.9353 21.2683 61.6675 20.8664C61.3997 20.4645 61.0414 20.131 60.6213 19.8927L56.9826 17.9867C56.9063 17.9176 56.8581 17.8229 56.8472 17.7205C56.8494 17.6961 56.9249 17.2435 57.0891 16.5823C57.2555 15.9233 57.4041 15.4884 57.413 15.4685C57.4418 15.3997 57.5861 15.2998 57.6571 15.2954L61.7884 15.3353C62.7003 15.3353 63.7209 14.7829 64.1824 14.0773Z" stroke="#7730DF" stroke-width="2" mask="url(#path-1-outside-1_700_8687)"/>
<path fill-rule="evenodd" clip-rule="evenodd" d="M30.2422 55.3771C36.9717 55.3771 42.4453 49.9035 42.4453 43.174C42.4453 36.4445 36.9717 30.9709 30.2422 30.9709C23.5127 30.9709 18.0391 36.4445 18.0391 43.174C18.0391 49.9035 23.5127 55.3771 30.2422 55.3771ZM30.2422 33.1896C35.7469 33.1896 40.2266 37.6693 40.2266 43.174C40.2266 48.6787 35.7469 53.1584 30.2422 53.1584C24.7375 53.1584 20.2578 48.6787 20.2578 43.174C20.2578 37.6693 24.7375 33.1896 30.2422 33.1896Z" stroke="#7730DF" stroke-width="2" mask="url(#path-1-outside-1_700_8687)"/>
<path fill-rule="evenodd" clip-rule="evenodd" d="M9.59006 49.2093C9.98056 49.3025 10.5108 49.784 10.6639 50.2233L11.4405 52.0959C11.6158 52.4554 11.5825 53.1676 11.3739 53.5093L8.27434 58.5769C7.61094 59.6641 7.7485 61.2039 8.64044 62.2023L11.2652 64.8249C12.1793 65.6369 13.7924 65.7834 14.8441 65.1466L19.9117 62.047C20.229 61.8518 20.9101 61.783 21.3872 62.0071L23.2576 62.7792C23.6348 62.9101 24.1162 63.4382 24.2094 63.8287L25.6006 69.6063C25.8957 70.831 27.0649 71.8384 28.3207 71.9537C28.3207 71.9537 29.0907 72.0247 30.2444 72.0247C31.3497 72.0247 32.1027 71.9596 32.166 71.9541L32.1703 71.9537C32.806 71.8787 33.4047 71.615 33.8891 71.1966C34.3735 70.7782 34.7215 70.2243 34.8882 69.6063L36.2816 63.8287C36.3748 63.4404 36.8541 62.9101 37.2934 62.757L39.166 61.9804C39.4966 61.8185 40.2621 61.8518 40.5793 62.047L45.647 65.1466C46.0929 65.4195 46.6254 65.5637 47.1912 65.5637C47.9567 65.5637 48.6978 65.2953 49.2724 64.7827L51.895 62.1579C52.3107 61.6672 52.5648 61.06 52.6224 60.4195C52.68 59.7789 52.5383 59.1361 52.2167 58.5791L49.1171 53.5115C48.9085 53.1698 48.8753 52.4576 49.0772 52.036L49.8493 50.1656C49.9802 49.7884 50.5082 49.3069 50.8988 49.2138L56.6764 47.8226C57.2944 47.6552 57.8483 47.3067 58.2666 46.8219C58.6849 46.3372 58.9487 45.7383 59.0238 45.1024C59.0238 45.1024 59.0948 44.3325 59.0948 43.1788C59.0948 42.0735 59.0297 41.3205 59.0242 41.2572C59.0239 41.2544 59.0238 41.253 59.0238 41.2529C58.9484 40.6171 58.6846 40.0184 58.2663 39.5337C57.848 39.0489 57.2943 38.7004 56.6764 38.5327L50.901 37.1438C50.5105 37.0506 49.9802 36.5691 49.8271 36.1298L49.0505 34.2572C48.8752 33.8977 48.9085 33.1855 49.1171 32.8438L52.2167 27.7762C52.8801 26.689 52.7425 25.1492 51.8506 24.1508L49.2258 21.5282C48.3095 20.7139 46.6942 20.5675 45.647 21.2065L40.5793 24.3061C40.2621 24.4991 39.5787 24.5723 39.1039 24.346L37.2335 23.5739C36.8563 23.443 36.377 22.9149 36.2838 22.5244L34.8905 16.7468C34.7231 16.1287 34.3746 15.5749 33.8898 15.1566C33.405 14.7382 32.8062 14.4745 32.1703 14.3993C32.1696 14.3997 32.1522 14.3984 32.1193 14.396C31.9297 14.3821 31.2253 14.3306 30.2422 14.3306C29.1369 14.3306 28.3839 14.3957 28.3206 14.4012L28.3163 14.4016C27.6805 14.477 27.0818 14.7408 26.5971 15.1591C26.1124 15.5774 25.7638 16.1311 25.5961 16.749L24.2072 22.5222C24.114 22.9127 23.6325 23.443 23.1932 23.5961L21.3206 24.3726C20.9878 24.5346 20.2245 24.4991 19.9072 24.3061L14.8418 21.2065C13.7924 20.5675 12.2126 20.6784 11.2164 21.5703L8.59384 24.1951C8.17808 24.6859 7.92404 25.293 7.86645 25.9336C7.80886 26.5742 7.95055 27.217 8.27213 27.774L11.3717 32.8416C11.5803 33.1833 11.6136 33.8955 11.4117 34.3171L10.6395 36.1875C10.5086 36.5647 9.98056 37.0461 9.59006 37.1393L3.81244 38.5305C3.19438 38.6979 2.64055 39.0464 2.22221 39.5311C1.80387 40.0159 1.54015 40.6148 1.465 41.2507C1.46585 41.2507 1.46392 41.2791 1.46024 41.3332C1.44478 41.5607 1.39844 42.2423 1.39844 43.1743C1.39844 44.2796 1.4636 45.0326 1.46907 45.0959L1.46944 45.1002C1.54488 45.736 1.8087 46.3347 2.227 46.8194C2.64529 47.3041 3.19896 47.6527 3.81687 47.8204L9.59006 49.2093ZM3.61719 43.1743C3.61719 42.1581 3.67709 41.4725 3.67931 41.4503C3.71466 41.2777 3.79356 41.117 3.9085 40.9834C4.02344 40.8498 4.17062 40.7478 4.33606 40.6871L10.1137 39.2959C11.2342 39.0253 12.3635 38.0002 12.7141 36.9729L13.4329 35.2268C13.9388 34.1906 13.8678 32.6685 13.2665 31.6834L10.1669 26.618C10.0183 26.3717 10.0604 25.8836 10.2069 25.7172L12.7385 23.1834C12.9404 23.0037 13.4551 22.9593 13.6859 23.0991L18.7535 26.1987C19.7142 26.7866 21.3605 26.8266 22.2325 26.3939L23.9809 25.6706C25.0703 25.2956 26.0953 24.1663 26.366 23.0436L27.755 17.2682C27.8152 17.1022 27.917 16.9545 28.0506 16.8391C28.1842 16.7237 28.3452 16.6446 28.5182 16.6092C28.5211 16.6092 28.5349 16.6082 28.5591 16.6065C28.7224 16.5948 29.3568 16.5493 30.2422 16.5493C31.2584 16.5493 31.944 16.6092 31.9662 16.6114C32.1388 16.6468 32.2995 16.7257 32.4331 16.8406C32.5667 16.9556 32.6687 17.1027 32.7294 17.2682L34.1206 23.0436C34.3913 24.1641 35.4141 25.2956 36.4436 25.6462L38.1898 26.3651C39.2037 26.8621 40.7746 26.7844 41.7331 26.1987L46.7985 23.0991C47.0293 22.9593 47.5751 23.0325 47.6993 23.139L50.2331 25.6706C50.4239 25.8858 50.4661 26.3717 50.3174 26.618L47.2178 31.6856C46.6166 32.6685 46.5456 34.1928 47.0226 35.1646L47.7459 36.913C48.1209 38.0024 49.2502 39.0275 50.3729 39.2982L56.1483 40.6871C56.3143 40.7473 56.462 40.8491 56.5774 40.9827C56.6928 41.1164 56.7719 41.2774 56.8073 41.4503C56.8073 41.4532 56.8083 41.4671 56.81 41.4912C56.8217 41.6546 56.8672 42.289 56.8672 43.1743C56.8672 44.1905 56.8073 44.8761 56.8051 44.8983C56.7697 45.0709 56.6908 45.2317 56.5759 45.3653C56.4609 45.4988 56.3138 45.6008 56.1483 45.6615L50.3707 47.0527C49.2502 47.3234 48.1209 48.3484 47.7703 49.3757L47.0514 51.1219C46.5456 52.158 46.6166 53.6801 47.2178 54.6652L50.3174 59.7306C50.4661 59.9769 50.4239 60.465 50.2775 60.6314L47.7459 63.1653C47.5855 63.2851 47.3891 63.3469 47.189 63.3405C47.0538 63.345 46.9199 63.3136 46.8007 63.2496L41.7331 60.15C40.7746 59.5642 39.1283 59.5221 38.2541 59.9547L36.5057 60.678C35.4163 61.053 34.3913 62.1846 34.1228 63.305L32.7316 69.0804C32.6714 69.2464 32.5696 69.3941 32.436 69.5095C32.3024 69.6249 32.1413 69.7041 31.9684 69.7394C31.9651 69.7394 31.9499 69.7405 31.9236 69.7424C31.754 69.7544 31.122 69.7993 30.2422 69.7993C29.226 69.7993 28.5404 69.7394 28.5182 69.7372C28.3456 69.7018 28.1848 69.623 28.0512 69.508C27.9177 69.3931 27.8157 69.2459 27.755 69.0804L26.3638 63.3028C26.0931 62.1824 25.0681 61.053 24.0408 60.7024L22.2946 59.9836C21.7981 59.7527 21.2557 59.6374 20.7082 59.6463C19.9783 59.6463 19.2838 59.826 18.7513 60.1522L13.6859 63.2518C13.4551 63.3916 12.9071 63.3161 12.7851 63.2119L10.2513 60.678C10.0604 60.4628 10.0183 59.9769 10.1669 59.7306L13.2665 54.663C13.8678 53.6801 13.9388 52.1558 13.4618 51.184L12.7385 49.4356C12.3635 48.3462 11.2342 47.3212 10.1115 47.0505L4.33606 45.6615C4.1701 45.6013 4.02236 45.4995 3.90698 45.3659C3.7916 45.2323 3.71245 45.0713 3.67709 44.8983C3.67709 44.8954 3.6761 44.8816 3.67437 44.8574C3.66266 44.6941 3.61719 44.0597 3.61719 43.1743Z" stroke="#7730DF" stroke-width="2" mask="url(#path-1-outside-1_700_8687)"/>
</svg>
