<svg width="17" height="15" viewBox="0 0 17 15" fill="none" xmlns="http://www.w3.org/2000/svg">
<path d="M17 3.98213V12C17 12.7459 16.7201 13.4613 16.222 13.9887C15.7239 14.5162 15.0482 14.8125 14.3438 14.8125H2.65625C1.95177 14.8125 1.27614 14.5162 0.777998 13.9887C0.279854 13.4613 0 12.7459 0 12V3.98213L8.23013 9.10987C8.31189 9.16093 8.40508 9.18786 8.5 9.18786C8.59492 9.18786 8.68811 9.16093 8.76987 9.10987L17 3.98213ZM14.3438 0.1875C14.9973 0.187391 15.628 0.442432 16.1152 0.903832C16.6023 1.36523 16.9116 2.0006 16.9841 2.68838L8.5 7.9725L0.0159376 2.68838C0.0883557 2.0006 0.397719 1.36523 0.884845 0.903832C1.37197 0.442432 2.00266 0.187391 2.65625 0.1875H14.3438Z" fill="#7730DF"/>
</svg>
