<svg width="8" height="4" viewBox="0 0 8 4" fill="none" xmlns="http://www.w3.org/2000/svg">
<path d="M4.12259 3.77713C4.00387 3.77736 3.88883 3.73601 3.79742 3.66027L0.748973 1.1199C0.645215 1.03366 0.579966 0.909734 0.56758 0.775385C0.555193 0.641037 0.596683 0.507271 0.682923 0.403514C0.769163 0.299756 0.893088 0.234507 1.02744 0.222121C1.16178 0.209734 1.29555 0.251224 1.39931 0.337464L4.12259 2.61364L6.84586 0.418756C6.89783 0.376552 6.95763 0.345036 7.02182 0.326018C7.08601 0.306999 7.15333 0.300855 7.2199 0.307937C7.28647 0.315019 7.35099 0.335188 7.40974 0.367285C7.46849 0.399382 7.52032 0.442774 7.56225 0.494967C7.60878 0.547208 7.64402 0.608495 7.66576 0.674989C7.6875 0.741482 7.69528 0.811749 7.6886 0.881388C7.68192 0.951026 7.66093 1.01853 7.62695 1.07968C7.59297 1.14084 7.54673 1.19431 7.49112 1.23676L4.44267 3.69075C4.34864 3.75453 4.23594 3.78494 4.12259 3.77713Z" fill="#8F93A3"/>
</svg>
