<svg width="8" height="4" viewBox="0 0 8 4" fill="none" xmlns="http://www.w3.org/2000/svg">
<path d="M4.18533 3.77713C4.06662 3.77736 3.95157 3.73601 3.86016 3.66027L0.811717 1.1199C0.70796 1.03366 0.64271 0.909734 0.630324 0.775385C0.617937 0.641037 0.659427 0.507271 0.745667 0.403513C0.831907 0.299756 0.955832 0.234507 1.09018 0.222121C1.22453 0.209734 1.35829 0.251224 1.46205 0.337464L4.18533 2.61364L6.90861 0.418756C6.96058 0.376552 7.02038 0.345036 7.08457 0.326018C7.14876 0.306999 7.21607 0.300855 7.28264 0.307937C7.34921 0.315019 7.41373 0.335188 7.47248 0.367285C7.53124 0.399382 7.58306 0.442774 7.62499 0.494967C7.67152 0.547208 7.70676 0.608495 7.7285 0.674989C7.75024 0.741482 7.75802 0.811749 7.75134 0.881388C7.74466 0.951026 7.72368 1.01853 7.6897 1.07968C7.65571 1.14084 7.60947 1.19431 7.55386 1.23676L4.50542 3.69075C4.41138 3.75453 4.29868 3.78494 4.18533 3.77713V3.77713Z" fill="black"/>
</svg>
