<svg width="8" height="5" viewBox="0 0 8 5" fill="none" xmlns="http://www.w3.org/2000/svg">
<path d="M3.97805 0.721653C3.85934 0.721421 3.7443 0.762765 3.65289 0.838509L0.604441 3.37888C0.500684 3.46512 0.435435 3.58905 0.423048 3.72339C0.410662 3.85774 0.452152 3.99151 0.538392 4.09527C0.624632 4.19902 0.748557 4.26427 0.882905 4.27666C1.01725 4.28905 1.15102 4.24756 1.25478 4.16132L3.97805 1.88514L6.70133 4.08002C6.7533 4.12223 6.8131 4.15374 6.87729 4.17276C6.94148 4.19178 7.00879 4.19792 7.07537 4.19084C7.14194 4.18376 7.20646 4.16359 7.26521 4.13149C7.32396 4.0994 7.37579 4.05601 7.41772 4.00381C7.46425 3.95157 7.49949 3.89028 7.52123 3.82379C7.54297 3.7573 7.55074 3.68703 7.54407 3.61739C7.53739 3.54775 7.5164 3.48024 7.48242 3.41909C7.44844 3.35794 7.40219 3.30447 7.34659 3.26202L4.29814 0.808025C4.2041 0.744254 4.09141 0.713843 3.97805 0.721653Z" fill="black"/>
</svg>
