<svg width="22" height="21" viewBox="0 0 22 21" fill="none" xmlns="http://www.w3.org/2000/svg">
<path d="M1.06049 0.600473C1.64628 0.0146862 2.59602 0.0146862 3.18181 0.600473L20.8595 18.2781C21.4453 18.8639 21.4453 19.8137 20.8595 20.3995C20.2737 20.9852 19.3239 20.9852 18.7382 20.3995L1.06049 2.72179C0.474703 2.13601 0.474704 1.18626 1.06049 0.600473Z" fill="#7730DF"/>
<path d="M20.8594 0.600473C20.2736 0.0146862 19.3239 0.0146862 18.7381 0.600473L1.06043 18.2781C0.474647 18.8639 0.474647 19.8137 1.06043 20.3995C1.64622 20.9852 2.59597 20.9852 3.18175 20.3995L20.8594 2.72179C21.4452 2.13601 21.4452 1.18626 20.8594 0.600473Z" fill="#7730DF"/>
</svg>
