<svg width="91" height="90" viewBox="0 0 91 90" fill="none" xmlns="http://www.w3.org/2000/svg">
<path d="M25.8853 68.0423C25.8853 68.0423 26.0275 68.0731 26.2541 68.293C26.6633 68.6899 26.5635 68.9475 26.0838 69.2979L23.7014 71.0224C22.4127 71.9514 21.5052 71.7364 20.6707 70.9257C20.3446 70.6091 20.1708 70.2904 20.113 70.0515C20.0434 69.78 20.1057 69.5724 20.2505 69.4231C20.4545 69.213 20.7268 69.198 20.9919 69.4555C21.1633 69.6218 21.2035 69.7464 21.2035 69.7464C21.2035 69.7464 21.0734 69.8139 20.9556 69.9354C20.7677 70.1287 20.7666 70.4284 21.0265 70.6807C21.4248 71.0672 21.9797 71.0262 22.8636 70.3809L23.78 69.7135C23.6224 69.754 23.4705 69.7998 23.3079 69.8348C22.7158 69.9691 22.1771 69.9933 21.6959 69.5265C21.248 69.0919 21.2678 68.5742 21.6646 68.1649C21.8687 67.9548 22.0248 67.8271 22.2564 67.6551L23.5067 66.7428C23.6306 66.6481 23.728 66.5706 23.7975 66.4989L23.7477 66.4503C23.2447 65.962 22.7222 66.0027 22.4162 66.3174C22.2658 66.4727 22.2525 66.6523 22.3905 66.7866C22.4513 66.8456 22.5006 66.8613 22.5006 66.8613C22.5006 66.8613 22.4899 66.8831 22.4579 66.9164C22.3289 67.0492 22.0191 67.0916 21.737 66.8182C21.378 66.4694 21.3712 66.0334 21.6934 65.7018C22.2248 65.1545 23.114 65.2451 24.0041 66.1087L24.3856 66.4791C24.7948 66.8763 24.6951 67.1339 24.2154 67.484L22.7061 68.5745C22.2965 68.8745 22.2732 69.1531 22.4446 69.3194C22.6213 69.4911 22.9432 69.5132 23.5401 69.341C24.2237 69.1457 24.9928 68.8291 25.4186 68.5232C25.8175 68.2338 25.8854 68.0423 25.8854 68.0423H25.8853Z" fill="#2873B9"/>
<path d="M25.7889 70.4823C25.7889 70.4823 25.9234 70.4911 26.1574 70.6537C26.6442 70.9922 26.5801 71.2195 26.1904 71.6051L25.4567 72.3239C25.1235 72.6549 25.1235 72.8708 25.2945 72.9895C25.4464 73.0948 25.7075 73.0701 26.0843 72.9193C26.4094 72.7886 26.8647 72.5517 27.2459 72.1507C27.5164 71.8698 27.5473 71.7038 27.5473 71.7038C27.5473 71.7038 27.6819 71.7126 27.9158 71.8754C28.4026 72.2136 28.3321 72.4366 27.9488 72.8266L26.7091 74.0846C26.3822 74.4203 26.3668 74.672 26.5943 74.8301C26.8094 74.9794 27.239 74.9685 27.6408 74.7413C27.7232 74.7982 27.745 74.8885 27.6467 74.9891C27.3509 75.2805 26.4778 75.565 25.8645 75.1386C25.4279 74.8357 25.3219 74.3401 25.6733 73.8341C25.7571 73.714 25.919 73.5077 26.1241 73.2935C25.6668 73.5198 25.0641 73.6451 24.5896 73.3156C24.166 73.0209 24.1128 72.5435 24.4162 72.1072C24.5787 71.8733 24.7534 71.6759 25.4048 71.0215C25.7513 70.6715 25.789 70.4822 25.789 70.4822L25.7889 70.4823Z" fill="#2873B9"/>
<path d="M28.9251 74.6875C29.8597 74.9311 30.4274 74.7008 30.6658 74.2518C30.7416 74.1089 30.6971 73.9632 30.554 73.8871C30.1666 73.6811 29.4518 73.877 28.9251 74.6875H28.9251ZM27.8786 74.5067C28.5183 73.3026 29.8235 73.0628 30.728 73.5433C31.4219 73.9121 31.5092 74.4211 31.3248 74.7678C30.9961 75.3867 30.0648 75.4157 28.7483 75.0034C28.5179 75.5354 28.6619 76.1181 29.2401 76.4255C29.968 76.812 30.5745 76.6722 30.9103 76.4839C30.9986 76.5311 31.0173 76.6108 30.9248 76.7188C30.7046 76.9855 29.6756 77.346 28.6351 76.7928C27.7437 76.3192 27.3906 75.4247 27.8786 74.5067Z" fill="#2873B9"/>
<path d="M33.6002 77.1441C33.4727 76.9384 33.4496 76.6982 33.5408 76.4611C33.6347 76.2165 33.8391 76.0722 34.0955 76.1132C34.1817 75.717 34.0527 75.4942 33.7653 75.3835C33.4272 75.2537 33.0699 75.3889 32.8926 75.4856C32.5339 76.0323 32.217 76.6205 32.0182 77.1378C31.8492 77.5764 31.8769 77.9338 32.2221 78.0665C32.6749 78.2405 33.213 77.7212 33.6002 77.1439V77.1441ZM31.2083 76.4968C31.8801 74.7499 33.1726 73.3402 34.5763 73.0384C35.3148 72.8768 36.2249 73.3423 37.1941 73.3762C37.1941 73.3762 37.2251 73.4461 37.1781 73.5683C37.0288 73.9566 36.7108 74.1395 36.1503 73.924C35.8193 73.7969 35.5682 73.5269 35.3384 73.4385C35.0218 73.3169 34.7879 73.3674 34.3904 73.6931C34.0565 73.9609 33.6296 74.4487 33.2209 75.0178C33.5703 74.9457 33.8614 74.9836 34.1418 75.0912C34.8678 75.3704 35.1655 76.12 34.8699 76.8894C34.8033 77.062 34.7227 77.2291 34.633 77.3759C35.2027 77.5043 35.7188 77.1499 35.7188 77.1499C35.812 77.186 35.8347 77.2768 35.7789 77.3791C35.6391 77.6143 35.037 77.8282 34.4342 77.6789C33.848 78.4524 32.954 78.7604 32.0049 78.3955C31.0629 78.0336 30.9289 77.2228 31.2083 76.4968Z" fill="#2873B9"/>
<path d="M39.6068 79.2452C39.7043 79.2679 39.7578 79.344 39.7035 79.4735C39.535 79.8535 38.8272 80.4389 38.0999 80.2678C37.5822 80.146 37.3016 79.7237 37.4426 79.1236C37.478 78.9737 37.5512 78.7297 37.6781 78.4273L36.4704 78.143L36.0923 79.0433C35.8987 79.4965 35.9332 79.6866 35.9332 79.6866C35.9332 79.6866 35.8045 79.7278 35.5272 79.6623C34.9495 79.5263 34.9333 79.293 35.1469 78.7894L36.0845 76.5879C36.278 76.1347 36.2438 75.9444 36.2438 75.9444C36.2438 75.9444 36.3719 75.9037 36.6496 75.9689C37.2272 76.1046 37.2432 76.338 37.0298 76.8419L36.6259 77.7839L37.8261 78.0663L38.2444 77.0962C38.4379 76.643 38.4038 76.4527 38.4038 76.4527C38.4038 76.4527 38.5318 76.4118 38.8095 76.4769C39.3871 76.613 39.4034 76.8463 39.1897 77.3502L38.4985 78.9765C38.3194 79.4013 38.3959 79.6488 38.6658 79.7123C38.9207 79.7721 39.3166 79.6043 39.6066 79.2452H39.6068Z" fill="#2873B9"/>
<path d="M43.8436 77.8704C43.9646 77.393 43.9011 77.2104 43.9011 77.2104C43.9011 77.2104 44.0218 77.1502 44.3056 77.1715C44.8972 77.216 44.9494 77.4444 44.8166 77.9748L44.3859 79.6877C44.2744 80.1427 44.3885 80.3678 44.6651 80.3885C44.9262 80.4085 45.2908 80.1811 45.5218 79.7816C45.6218 79.789 45.6861 79.8556 45.6529 79.992C45.5455 80.3936 44.937 81.0813 44.1922 81.0249C43.6623 80.9851 43.3198 80.6112 43.3665 79.997C43.378 79.8433 43.4136 79.5758 43.4907 79.2727L43.8437 77.8704H43.8436ZM40.8565 79.2741C40.812 79.4562 40.773 79.6619 40.7574 79.869C40.7347 80.1687 40.8728 80.3876 41.1646 80.4098C41.5947 80.4425 41.9993 79.9941 42.0694 79.0647C42.1005 78.6576 41.9078 78.4502 41.5851 78.4257C41.324 78.4056 41.1204 78.5449 41.0127 78.6373L40.8566 79.2742L40.8565 79.2741ZM39.8466 79.4526C39.8588 79.2913 39.8974 79.0859 39.942 78.9039L40.2801 77.601C40.4013 77.1234 40.3376 76.9411 40.3376 76.9411C40.3376 76.9411 40.458 76.8805 40.7424 76.9021C41.3337 76.9467 41.3862 77.1748 41.2535 77.7051L41.1547 78.0917C41.3617 78.0069 41.6122 77.9642 41.9196 77.9872C42.6337 78.0415 43.1006 78.5017 43.0505 79.1696C42.9696 80.2371 42.1571 80.8711 41.0971 80.7906C40.2218 80.7248 39.7898 80.2053 39.8468 79.4526H39.8466Z" fill="#2873B9"/>
<path d="M48.5376 75.3786C48.6375 75.3709 48.7107 75.4193 48.6993 75.5671C48.6771 75.8774 48.3712 76.4115 47.6028 76.4714C46.973 76.5203 46.6012 76.2094 46.5658 75.7562C46.5398 75.4261 46.7369 75.1789 47.0981 75.1508C47.3515 75.131 47.4843 75.2444 47.4843 75.2444C47.4843 75.2444 47.3999 75.3514 47.4159 75.5586C47.4356 75.8123 47.6173 75.9604 47.9088 75.9377C48.293 75.9075 48.4629 75.6084 48.5375 75.3786H48.5376ZM48.2163 77.6985C48.2525 77.2706 48.1709 77.1149 48.1709 77.1149C48.1709 77.1149 48.2806 77.0367 48.5648 77.0146C49.1563 76.9686 49.2427 77.1856 49.1926 77.7306L49.033 79.4507C48.9841 80.0106 49.1195 80.1626 49.3189 80.147C49.5417 80.1298 49.5942 79.9091 49.5942 79.9091C49.7016 79.9009 49.7618 79.9812 49.7577 80.1204C49.7505 80.4302 49.4172 80.8117 48.918 80.8507C48.5188 80.8817 48.1179 80.5964 48.0718 80.0048C48.0641 79.9051 48.0561 79.805 48.0546 79.6891C47.964 79.9127 47.8638 80.1136 47.7534 80.2845C47.4649 80.7475 47.1437 80.9891 46.7214 81.0218C46.2069 81.0618 45.8561 80.7262 45.8147 80.1959C45.7926 79.9118 45.7953 79.6493 45.8334 79.2445L45.9567 77.9523C46.0033 77.4617 45.9131 77.2907 45.9131 77.2907C45.9131 77.2907 46.0228 77.2129 46.307 77.1908C46.8982 77.1445 46.9846 77.3619 46.9344 77.9066L46.7657 79.7048C46.7239 80.1562 46.8463 80.3396 47.0687 80.3226C47.2377 80.3092 47.4212 80.0862 47.5972 79.7635C47.8883 79.2386 48.15 78.4303 48.2164 77.6986L48.2163 77.6985Z" fill="#2873B9"/>
<path d="M56.1023 78.3051C56.2286 78.2707 56.3189 78.3095 56.3575 78.4506C56.6346 79.461 56.7112 80.558 55.9834 80.7574C55.6863 80.8387 55.4706 80.7218 55.3954 80.4474C55.3688 80.3507 55.3789 80.3001 55.3789 80.3001C55.8482 80.1473 56.0503 79.6608 56.0536 79.0613C55.9474 79.3138 55.7642 79.4914 55.482 79.5687C55.0289 79.6929 54.6211 79.4295 54.4686 78.8724C54.4423 78.7757 54.4179 78.6866 54.4008 78.5954C54.3539 78.8317 54.2934 79.0483 54.217 79.2365C54.0211 79.7454 53.7511 80.0431 53.3428 80.155C52.8451 80.2912 52.4374 80.0278 52.2972 79.5153C52.2219 79.2404 52.1748 78.9816 52.1362 78.5772L52.0138 77.2849C51.9671 76.7946 51.8462 76.6441 51.8462 76.6441C51.8462 76.6441 51.9395 76.5468 52.2141 76.4715C52.7861 76.3148 52.9121 76.512 52.9652 77.0563L53.1381 78.8533C53.1776 79.29 53.3366 79.462 53.5521 79.4029C53.7154 79.3581 53.8538 79.1047 53.9654 78.7544C54.1527 78.1845 54.2568 77.341 54.1846 76.6105C54.1398 76.1836 54.0301 76.0461 54.0301 76.0461C54.0301 76.0461 54.123 75.9488 54.3979 75.8733C54.9696 75.7168 55.0957 75.914 55.149 76.458L55.3192 78.2161C55.3656 78.7064 55.5352 78.8599 55.7358 78.8047C55.9511 78.7457 55.9818 78.3619 55.9818 78.3619C55.9818 78.3619 56.0279 78.3253 56.1022 78.3052L56.1023 78.3051Z" fill="#2873B9"/>
<path d="M57.2367 76.8796C58.0203 76.3148 58.2044 75.7307 58.0109 75.2607C57.9491 75.1111 57.8085 75.0527 57.6589 75.1144C57.2529 75.2813 56.9482 75.9569 57.2368 76.8795L57.2367 76.8796ZM56.4301 77.5702C55.9106 76.3096 56.5578 75.1515 57.5049 74.761C58.2316 74.4618 58.6791 74.7188 58.8287 75.0819C59.096 75.7301 58.5239 76.4656 57.3674 77.2174C57.6305 77.734 58.171 77.9942 58.7764 77.7449C59.5385 77.4307 59.8173 76.874 59.8861 76.4958C59.9791 76.4575 60.0521 76.4941 60.0767 76.6339C60.1416 76.9738 59.7631 77.9964 58.6735 78.4454C57.7406 78.8298 56.826 78.5319 56.4301 77.5704V77.5702Z" fill="#2873B9"/>
<path d="M63.9295 74.2759C64.0165 74.227 64.1074 74.2463 64.1554 74.3785C64.2887 74.7718 64.1657 75.6817 63.5149 76.049C63.052 76.3104 62.5596 76.19 62.2569 75.6533C62.1811 75.5194 62.0696 75.2902 61.9575 74.9822L60.8777 75.5917L61.2099 76.5096C61.3748 76.974 61.5288 77.0902 61.5288 77.0902C61.5288 77.0902 61.4624 77.2076 61.2144 77.3475C60.6977 77.6389 60.5278 77.4784 60.3431 76.9636L59.5401 74.7105C59.3752 74.2461 59.2212 74.1298 59.2212 74.1298C59.2212 74.1298 59.2878 74.0124 59.5356 73.8726C60.0523 73.5811 60.2228 73.7413 60.4072 74.2564L60.7489 75.2221L61.8218 74.6163L61.4719 73.62C61.307 73.1556 61.153 73.0394 61.153 73.0394C61.153 73.0394 61.2193 72.9223 61.4674 72.7821C61.984 72.4907 62.1543 72.6511 62.3387 73.166L62.9329 74.8296C63.089 75.2633 63.3129 75.3934 63.5545 75.2571C63.7825 75.1284 63.9596 74.7367 63.9295 74.2758V74.2759Z" fill="#2873B9"/>
<path d="M69.1076 70.2542C69.1858 70.1911 69.2781 70.1958 69.3471 70.3182C69.5397 70.6673 69.5652 71.607 69.0072 72.0566C68.5576 72.4192 68.04 72.3416 67.6772 71.8923C67.5518 71.7359 67.3494 71.3748 67.2164 71.1359L66.7983 70.3844C66.619 70.064 66.4818 70.0163 66.3496 70.123C66.044 70.3694 66.2879 71.6171 66.9291 72.7924C67.1677 73.2232 67.3389 73.3129 67.3389 73.3129C67.3389 73.3129 67.2926 73.4395 67.0707 73.6182C66.6087 73.9906 66.4145 73.8605 66.1481 73.3825L65.2034 71.6708C65.0436 71.3743 64.9049 71.2881 64.7608 71.404C64.4671 71.6409 64.6376 72.8096 65.3341 74.0785C65.5728 74.5095 65.744 74.5992 65.744 74.5992C65.744 74.5992 65.6973 74.7255 65.4754 74.9046C65.0137 75.2766 64.8196 75.1462 64.5528 74.6685L63.3913 72.5774C63.1526 72.1464 62.9814 72.0567 62.9814 72.0567C62.9814 72.0567 63.0281 71.9304 63.2499 71.7514C63.7117 71.3793 63.9059 71.5097 64.1722 71.9873L64.2644 72.1507C64.1965 71.6613 64.2213 70.9683 64.6352 70.6346C65.0128 70.3301 65.4474 70.3655 65.7615 70.7553C65.7952 70.7974 65.8233 70.8441 65.8619 70.8922C65.778 70.3957 65.8103 69.687 66.2363 69.3435C66.6139 69.0391 67.052 69.0916 67.3518 69.4633C67.458 69.5952 67.5746 69.7884 67.6893 69.9923L68.2275 70.9542C68.4525 71.3563 68.6827 71.4574 68.8986 71.2834C69.1382 71.0901 69.2126 70.7037 69.1076 70.2543V70.2542Z" fill="#2873B9"/>
<path d="M70.0898 69.3914L70.2722 69.6264C70.4598 69.6594 70.7041 69.6407 70.9092 69.4104C71.2995 68.9741 70.9847 67.9388 70.0946 67.1435C69.7668 66.8512 69.5426 66.8363 69.3729 67.0258C69.2192 67.198 69.2138 67.4928 69.3496 67.9654C69.4643 68.3572 69.6597 68.8207 70.0898 69.3914H70.0898ZM68.9561 67.9549C68.7351 67.3235 68.7871 66.7912 69.1104 66.4295C69.5878 65.8953 70.2285 65.9413 70.826 66.4747C71.9748 67.5014 72.1109 68.8521 71.4538 69.5872C71.2075 69.8631 70.8933 69.9953 70.5771 70.002L72.0513 71.8669C72.357 72.2531 72.5404 72.3139 72.5404 72.3139C72.5404 72.3139 72.5151 72.446 72.325 72.6588C71.93 73.1011 71.7173 73.004 71.3765 72.5759L68.1935 68.5543C67.8881 68.1678 67.7046 68.107 67.7046 68.107C67.7046 68.107 67.73 67.9749 67.92 67.7624C68.3148 67.3199 68.5278 67.4172 68.8682 67.8453L68.9562 67.9548L68.9561 67.9549Z" fill="#2873B9"/>
<path d="M9.84366 68.2342L9.00517 66.9054L7.29938 67.6085C6.79392 67.8179 6.67652 67.9923 6.67652 67.9923C6.67652 67.9923 6.54529 67.9291 6.37714 67.6621C6.073 67.18 6.22365 66.9573 6.77868 66.7254L10.6631 65.1305C10.8058 65.0683 10.9182 65.0154 11.003 64.9618L10.9619 64.8965C10.5879 64.3042 10.071 64.2207 9.69955 64.4546C9.51724 64.5697 9.46147 64.7414 9.56414 64.9042C9.60927 64.9759 9.65357 65.0027 9.65357 65.0027C9.65357 65.0027 9.63816 65.0214 9.59931 65.0461C9.44288 65.1446 9.13162 65.1137 8.92193 64.7815C8.65488 64.3578 8.7511 63.9329 9.14175 63.6862C9.78697 63.2794 10.6299 63.5763 11.2913 64.625L11.5793 65.0808C11.8834 65.5629 11.7323 65.7857 11.1776 66.0172L9.40486 66.7443L10.2434 68.0733L12.0525 67.3323C12.5514 67.1269 12.6691 66.9525 12.6691 66.9525C12.6691 66.9525 12.8 67.0157 12.9685 67.2827C13.2723 67.7647 13.1217 67.9876 12.5667 68.2191L9.16135 69.6211C8.74248 69.7943 8.66602 70.0339 8.80562 70.2554C9.0071 70.5746 9.56414 70.6056 9.80397 70.5818C9.8656 70.6793 9.82524 70.7596 9.71278 70.8121C9.27816 71.0045 8.38281 70.8408 8.00481 70.2415C7.7128 69.7789 7.82401 69.2626 8.31908 68.9502C8.61879 68.7611 8.89999 68.6294 9.28235 68.4702L9.84375 68.2342H9.84366Z" fill="#2873B9"/>
<path d="M12.4837 71.8208L12.8077 71.645C12.8829 71.494 12.9567 71.2437 12.7711 71.0175C12.4389 70.6124 11.4613 70.6469 10.5024 71.4338C10.1687 71.707 10.1156 71.9702 10.2962 72.1905C10.6432 72.6132 11.7953 72.1961 12.4838 71.8208H12.4837ZM12.0023 73.2018C11.5913 73.4293 11.5126 73.6733 11.6885 73.8878C11.8542 74.0902 12.2705 74.1973 12.7195 74.0884C12.783 74.1655 12.7792 74.2583 12.6573 74.3282C12.293 74.5277 11.3754 74.5628 10.9016 73.9851C10.5791 73.5921 10.5987 73.1178 11.003 72.7366C10.3623 72.8537 9.86098 72.7165 9.5828 72.3773C9.18244 71.8887 9.19248 71.2329 9.88904 70.6613C11.2172 69.5721 12.4775 69.8338 13.0491 70.5304C13.2933 70.8283 13.3453 71.1343 13.2847 71.4131C13.5771 71.3325 13.7769 71.4178 14.0162 71.7095C14.1822 71.9122 14.2008 72.0563 14.2008 72.0563C14.2008 72.0563 14.03 72.0669 13.6595 72.2711L12.0022 73.2018H12.0023Z" fill="#2873B9"/>
<path d="M17.3468 78.6C17.4197 78.6688 17.4274 78.7613 17.3152 78.8461C16.9945 79.0832 16.0667 79.2329 15.5468 78.7395C15.1279 78.3419 15.1364 77.8185 15.5338 77.3995C15.6719 77.2541 16.0033 77.0059 16.2221 76.8422L16.9116 76.3286C17.2054 76.1082 17.2347 75.9657 17.1117 75.8492C16.8269 75.5787 15.6223 75.9862 14.5425 76.7768C14.1468 77.0706 14.0808 77.2524 14.0808 77.2524C14.0808 77.2524 13.9491 77.2228 13.7423 77.0267C13.3122 76.6184 13.4157 76.4086 13.8541 76.0812L15.4254 74.9179C15.6983 74.7202 15.7653 74.5711 15.6314 74.444C15.3575 74.1841 14.2217 74.5077 13.0563 75.3663C12.6606 75.6598 12.5945 75.8416 12.5945 75.8416C12.5945 75.8416 12.463 75.8124 12.2561 75.6163C11.826 75.2079 11.9298 74.9982 12.3679 74.6707L14.2868 73.2421C14.6824 72.9486 14.7483 72.7671 14.7483 72.7671C14.7483 72.7671 14.8801 72.7963 15.0866 72.9924C15.5168 73.4008 15.4133 73.6105 14.9752 73.9377L14.8253 74.0507C15.3015 73.9185 15.9915 73.8513 16.3772 74.2174C16.7291 74.5514 16.7512 74.9868 16.4067 75.3496C16.3696 75.3888 16.327 75.4226 16.2843 75.4674C16.7654 75.3187 17.4723 75.2567 17.8692 75.6331C18.2208 75.9674 18.2267 76.4085 17.8981 76.7548C17.7816 76.8778 17.6055 77.0186 17.4184 77.1596L16.5366 77.8199C16.1678 78.0967 16.0979 78.3383 16.2988 78.5292C16.5225 78.7414 16.9151 78.764 17.3468 78.6Z" fill="#2873B9"/>
<path d="M20.2534 79.1408L20.524 78.8903C20.5594 78.7251 20.5695 78.4646 20.3338 78.2908C19.9122 77.9801 18.9727 78.2548 18.2373 79.2537C17.9815 79.6013 17.9945 79.8691 18.224 80.0383C18.6645 80.3628 19.6787 79.6745 20.2534 79.1408ZM20.1272 80.5979C19.7849 80.9198 19.7685 81.1759 19.9918 81.3404C20.2028 81.4957 20.6329 81.4966 21.0409 81.2806C21.1215 81.3399 21.1409 81.4308 21.04 81.5287C20.7359 81.8116 19.8549 82.0721 19.2531 81.6289C18.8438 81.3272 18.7459 80.8628 19.0436 80.3931C18.4514 80.6648 17.9318 80.6556 17.5784 80.3951C17.0695 80.0202 16.9176 79.382 17.4525 78.6562C18.4712 77.2728 19.7575 77.2156 20.4833 77.7502C20.7933 77.9788 20.9193 78.2626 20.9294 78.5476C21.1931 78.3971 21.4076 78.4311 21.7115 78.655C21.9225 78.8102 21.9762 78.9453 21.9762 78.9453C21.9762 78.9453 21.8134 78.9978 21.5044 79.287L20.1272 80.5978V80.5979Z" fill="#2873B9"/>
<path d="M24.3753 81.2008C24.4916 81.0636 24.5801 80.9278 24.5801 80.9278C24.2217 80.7627 23.8408 80.8783 23.3658 81.3232L22.2963 82.339C21.7687 82.8423 21.2949 83.011 20.8362 82.7421C20.4577 82.5198 20.3753 82.0962 20.5939 81.7242C20.8044 81.3658 21.1841 81.2666 21.4628 81.4303C21.6755 81.5551 21.7207 81.7069 21.7207 81.7069C21.7207 81.7069 21.505 81.8305 21.4115 81.9898C21.318 82.1493 21.348 82.2651 21.4413 82.3199C21.5741 82.3979 21.7517 82.3235 22.0252 82.0553L23.092 81.0286C23.749 80.3957 24.4134 80.3748 25.0513 80.7492C25.6163 81.0805 25.5564 81.3044 25.2039 81.7228L24.0633 83.0726C23.7633 83.4319 23.7668 83.6844 24.006 83.8249C24.232 83.9574 24.6599 83.9134 25.0431 83.6558C25.1296 83.7066 25.1579 83.7948 25.0679 83.9028C24.795 84.2161 23.9462 84.5666 23.3016 84.1884C22.8431 83.9196 22.6994 83.4332 23.0116 82.9017C23.0895 82.7687 23.2391 82.5443 23.4418 82.3055L24.3755 81.2009L24.3753 81.2008Z" fill="#2873B9"/>
<path d="M27.1926 84.778C27.0053 84.93 26.8203 85.0575 26.6415 85.1539C26.1656 85.42 25.7677 85.4763 25.3817 85.3011C24.912 85.088 24.767 84.6246 24.9864 84.1408C25.1044 83.8811 25.2337 83.6525 25.4624 83.3162L26.194 82.2443C26.472 81.8374 26.4746 81.6442 26.4746 81.6442C26.4746 81.6442 26.609 81.6288 26.8682 81.7468C27.4082 81.9917 27.3793 82.2239 27.0721 82.6764L26.0564 84.1693C25.805 84.5375 25.8204 84.7641 26.0236 84.8568C26.1783 84.9267 26.4464 84.8202 26.7563 84.6222C27.2646 84.3033 27.9069 83.6897 28.2952 83.1129C28.5335 82.7559 28.5371 82.58 28.5371 82.58C28.5371 82.58 28.671 82.5646 28.9307 82.682C29.4705 82.9275 29.4413 83.1594 29.1342 83.6122L28.1415 85.0732C27.8804 85.4621 27.9108 85.7126 28.163 85.8273C28.4017 85.9356 28.8221 85.8471 29.1764 85.5511C29.2676 85.5927 29.3054 85.6774 29.2272 85.7939C28.9883 86.1341 28.181 86.5711 27.5004 86.2622C27.0163 86.0426 26.823 85.5742 27.0777 85.0133C27.1063 84.9502 27.1414 84.8729 27.193 84.778L27.1926 84.778Z" fill="#2873B9"/>
<path d="M32.3482 84.6725C32.548 84.2925 32.5332 84.1172 32.5332 84.1172C32.5332 84.1172 32.6648 84.088 32.935 84.178C33.4976 84.3657 33.4929 84.5993 33.2347 85.0818L32.4187 86.6037C32.1558 87.1006 32.2213 87.2933 32.4117 87.3564C32.6235 87.4272 32.7574 87.2446 32.7574 87.2446C32.8595 87.2784 32.884 87.3759 32.8256 87.5027C32.6987 87.7852 32.2435 88.0067 31.7685 87.8486C31.3885 87.7217 31.1304 87.3028 31.318 86.7404C31.3497 86.6454 31.3815 86.5501 31.4251 86.443C31.2546 86.6135 31.0843 86.7596 30.9161 86.8743C30.4706 87.1883 30.0807 87.2856 29.6788 87.1517C29.1893 86.9889 28.997 86.5431 29.1651 86.0388C29.2551 85.7685 29.3598 85.5272 29.5522 85.1694L30.1682 84.0271C30.4021 83.5936 30.3854 83.4013 30.3854 83.4013C30.3854 83.4013 30.5167 83.372 30.7869 83.4621C31.3496 83.6497 31.3448 83.8834 31.0866 84.3658L30.2316 85.9563C30.0174 86.3555 30.0588 86.5719 30.2706 86.6431C30.4313 86.6964 30.6871 86.5625 30.9745 86.3336C31.4469 85.9634 32.0024 85.3205 32.3481 84.6726L32.3482 84.6725Z" fill="#2873B9"/>
<path d="M41.742 84.2467C42.1834 84.3157 42.469 84.2357 42.469 84.2357C42.5011 84.2797 42.5324 84.3782 42.5133 84.4997C42.4513 84.8958 42.1383 85.2524 41.4452 85.1439L40.3468 88.372C40.2011 88.8016 40.3315 89.0173 40.5902 89.058C40.9631 89.1161 41.3535 88.7168 41.4933 88.5206C41.6075 88.5387 41.6412 88.6219 41.6069 88.7411C41.4656 89.1948 40.7528 89.7616 40.0524 89.6519C39.5118 89.5672 39.1961 89.1436 39.2871 88.565C39.3416 88.2147 39.4275 87.9162 39.5594 87.5232L40.4843 84.806C40.0504 84.5897 39.6093 84.3178 39.0767 84.133L37.6048 88.4494C37.4299 88.9681 37.4836 89.1713 37.4836 89.1713C37.4836 89.1713 37.3499 89.2286 37.0381 89.1796C36.4746 89.0913 36.4062 88.8311 36.597 88.2602L37.9533 84.2847C37.9999 84.136 38.0345 84.0165 38.0497 83.9177L37.9813 83.9068C37.2883 83.7982 36.8849 84.1327 36.8171 84.5667C36.7835 84.7801 36.8764 84.9346 37.0667 84.9648C37.1504 84.9777 37.1998 84.9621 37.1998 84.9621C37.1998 84.9621 37.2035 84.986 37.1965 85.0317C37.1679 85.2144 36.9395 85.4283 36.5509 85.3675C36.0565 85.2899 35.7995 84.9377 35.8712 84.481C35.9892 83.7272 36.7451 83.284 38.2144 83.5145C39.4399 83.7065 40.44 84.0429 41.742 84.2468V84.2467Z" fill="#2873B9"/>
<path d="M43.9609 88.0827L44.1995 86.9114C44.237 86.7122 44.2742 86.5134 44.2742 86.5134C44.2742 86.5134 44.0606 86.4447 43.8373 86.4372C43.3293 86.4204 42.954 86.8244 42.9357 87.3786C42.9225 87.7867 43.1523 88.064 43.5911 88.0782C43.7143 88.0823 43.8683 88.0877 43.9609 88.0826V88.0827ZM44.8236 86.2078C45.1445 86.2951 45.2861 86.4384 45.176 86.9743L44.8456 88.5895C44.7538 89.0489 44.8772 89.269 45.1545 89.2779C45.4164 89.2864 45.7711 89.0439 45.9847 88.6347C46.0847 88.6379 46.1523 88.702 46.1245 88.8394C46.0339 89.2449 45.4557 89.9578 44.7093 89.9337C44.1779 89.9163 43.8198 89.5579 43.8403 88.9419C43.8438 88.8342 43.857 88.6574 43.887 88.4504C43.7561 88.454 43.5404 88.4465 43.4398 88.4513L43.2351 88.8298C42.874 89.496 42.5692 89.8636 42.0459 89.8467C41.5918 89.8316 41.3407 89.4922 41.354 89.0841C41.3688 88.6377 41.662 88.3852 41.993 88.3961C42.2317 88.404 42.3359 88.5153 42.3359 88.5153C42.3359 88.5153 42.2061 88.7189 42.199 88.9345C42.194 89.0885 42.2758 89.1835 42.3988 89.1876C42.5528 89.1926 42.6882 89.0584 42.8691 88.7099L43.0175 88.4217C42.2893 88.2978 41.9342 87.847 41.9518 87.3007C41.9764 86.5536 42.5029 86.0084 43.673 86.0468C44.058 86.0595 44.4265 86.1023 44.8236 86.2079L44.8236 86.2078Z" fill="#2873B9"/>
<path d="M52.4216 88.1397C52.5214 88.1308 52.596 88.1857 52.5857 88.3261C52.5518 88.7235 52.0513 89.5189 51.338 89.5835C50.7627 89.6351 50.375 89.2837 50.3231 88.7084C50.3051 88.509 50.3376 88.0963 50.3591 87.8236L50.4287 86.9663C50.4577 86.6002 50.3698 86.4845 50.201 86.4995C49.8095 86.5352 49.3201 87.7086 49.2009 89.0418C49.1602 89.5327 49.2531 89.7021 49.2531 89.7021C49.2531 89.7021 49.1442 89.7815 48.8604 89.8071C48.2697 89.8605 48.1804 89.6446 48.2237 89.099L48.388 87.1507C48.4199 86.8155 48.352 86.6669 48.1679 86.6834C47.7923 86.7175 47.2854 87.7841 47.1604 89.2261C47.1197 89.7171 47.2123 89.8865 47.2123 89.8865C47.2123 89.8865 47.1037 89.9659 46.8199 89.9915C46.2292 90.0449 46.1399 89.829 46.1832 89.2834L46.3779 86.8992C46.4183 86.4086 46.326 86.2389 46.326 86.2389C46.326 86.2389 46.4345 86.1596 46.7184 86.1339C47.3094 86.0805 47.3985 86.2967 47.3548 86.842L47.3406 87.0288C47.5557 86.5841 47.9614 86.0215 48.4906 85.9737C48.9736 85.9301 49.3155 86.2009 49.3603 86.6993C49.3654 86.7533 49.3624 86.8075 49.3677 86.8689C49.574 86.4095 49.9938 85.8377 50.5387 85.7885C51.022 85.7451 51.3575 86.0316 51.4002 86.5075C51.4156 86.6762 51.405 86.9014 51.3872 87.135L51.301 88.2331C51.2651 88.6928 51.4001 88.9049 51.6766 88.8799C51.9834 88.8521 52.2596 88.5721 52.4215 88.1397H52.4216Z" fill="#2873B9"/>
<path d="M54.8536 87.6934C54.7946 87.927 54.7231 88.1401 54.6376 88.3244C54.4156 88.8225 54.131 89.1057 53.7171 89.1969C53.2129 89.3074 52.8193 89.0233 52.7057 88.5041C52.6444 88.2259 52.6107 87.965 52.5927 87.5591L52.5364 86.2622C52.5152 85.77 52.4019 85.6137 52.4019 85.6137C52.4019 85.6137 52.4997 85.5213 52.7783 85.4602C53.3574 85.3327 53.4731 85.5361 53.4985 86.0824L53.5793 87.8862C53.5983 88.3317 53.7463 88.504 53.9646 88.4563C54.1302 88.42 54.2812 88.1739 54.4105 87.8299C54.6264 87.27 54.7736 86.3941 54.7391 85.6998C54.7158 85.2711 54.6138 85.128 54.6138 85.128C54.6138 85.128 54.7117 85.0353 54.9899 84.9742C55.5691 84.8474 55.6846 85.0504 55.7101 85.597L55.7903 87.3613C55.8143 87.8292 55.9884 88.0115 56.2592 87.9522C56.515 87.896 56.7988 87.5735 56.905 87.1241C57.003 87.1028 57.0841 87.1481 57.0912 87.2884C57.1033 87.7034 56.7186 88.5372 55.9892 88.6975C55.4699 88.8117 55.0345 88.5523 54.9023 87.9505C54.8875 87.8829 54.8694 87.8 54.8537 87.6932L54.8536 87.6934Z" fill="#2873B9"/>
<path d="M59.338 85.9181C59.1094 85.8393 58.9387 85.6685 58.8592 85.4272C58.7771 85.1782 58.8435 84.9374 59.0681 84.8062C58.8837 84.4454 58.6429 84.3545 58.3499 84.4513C58.0062 84.5649 57.8153 84.8956 57.7396 85.0832C57.8083 85.7338 57.9358 86.3897 58.1098 86.9162C58.2573 87.3626 58.5052 87.6214 58.8562 87.5054C59.3174 87.3528 59.4043 86.6103 59.338 85.9182V85.9181ZM57.0768 86.933C56.4894 85.1554 56.5965 83.2455 57.4911 82.1222C57.9605 81.5289 58.96 81.3124 59.7316 80.7244C59.7316 80.7244 59.7994 80.7589 59.8407 80.8834C59.9711 81.2781 59.8413 81.6216 59.2704 81.8101C58.934 81.9213 58.5688 81.8714 58.3349 81.9491C58.0127 82.0553 57.8637 82.2426 57.7625 82.7465C57.6734 83.1655 57.6525 83.8134 57.697 84.5129C57.9218 84.2358 58.1709 84.0803 58.4561 83.9859C59.1951 83.742 59.9002 84.1334 60.159 84.9161C60.2168 85.0916 60.2605 85.2725 60.2844 85.4431C60.8066 85.181 60.981 84.5799 60.981 84.5799C61.0763 84.5482 61.1515 84.6046 61.1733 84.7194C61.2137 84.9899 60.8837 85.5369 60.3224 85.8036C60.359 86.7731 59.8621 87.5785 58.8965 87.8977C57.9383 88.2143 57.3208 87.6718 57.0768 86.933Z" fill="#2873B9"/>
<path d="M63.1031 83.1983C62.9535 82.9785 62.7868 82.9266 62.6042 83.0087C62.3933 83.1034 62.2684 83.3706 62.1996 83.8572C62.1451 84.262 62.1345 84.765 62.2953 85.4613L62.3659 85.7503C62.5234 85.8569 62.7544 85.9389 63.0356 85.8126C63.4221 85.6392 63.5997 85.0189 63.4758 84.2726C63.2469 84.2147 63.0704 84.0657 62.9663 83.8339C62.8621 83.6023 62.9005 83.3488 63.1032 83.1983H63.1031ZM61.8448 83.6875C61.9003 83.0207 62.1641 82.5558 62.6069 82.3569C63.2604 82.0637 63.8271 82.3666 64.1552 83.0974C64.2503 83.3081 64.3171 83.5142 64.3641 83.7128C64.8772 83.4066 64.9895 82.7734 64.9895 82.7734C65.0807 82.7325 65.1618 82.7806 65.1949 82.8924C65.263 83.157 64.9831 83.7559 64.4323 84.0708C64.5526 85.0724 64.1426 85.8896 63.461 86.1958C63.1237 86.3476 62.7827 86.3399 62.4912 86.2174L63.0781 88.5213C63.1996 88.9987 63.3427 89.1288 63.3427 89.1288C63.3427 89.1288 63.2657 89.2394 63.0055 89.3559C62.4644 89.599 62.3098 89.4238 62.1732 88.8939L60.9039 83.9241C60.7828 83.4467 60.6396 83.3167 60.6396 83.3167C60.6396 83.3167 60.7166 83.206 60.9765 83.0895C61.518 82.8465 61.6696 83.0145 61.8092 83.5516L61.8448 83.6876V83.6875Z" fill="#2873B9"/>
<path d="M66.9137 81.5331L66.7921 81.1846C66.6549 81.0862 66.4201 80.9731 66.167 81.12C65.7135 81.3823 65.5901 82.3533 66.2121 83.4266C66.4281 83.8001 66.6794 83.8951 66.9261 83.752C67.3994 83.4779 67.1733 82.2733 66.9137 81.5331ZM68.1994 82.2305C68.3582 82.6731 68.5862 82.7905 68.8261 82.6513C69.0529 82.52 69.2255 82.126 69.1901 81.6655C69.2768 81.6154 69.3677 81.6339 69.4169 81.7655C69.5553 82.1576 69.442 83.069 68.7953 83.444C68.3554 83.6989 67.8904 83.6033 67.5789 83.1421C67.5913 83.7939 67.375 84.2664 66.995 84.4866C66.4487 84.8035 65.8025 84.6875 65.3508 83.9077C64.4894 82.4211 64.9508 81.2188 65.7305 80.7668C66.064 80.5736 66.3746 80.5718 66.6398 80.6765C66.6078 80.3744 66.7239 80.1912 67.0508 80.0021C67.2774 79.8705 67.4229 79.8755 67.4229 79.8755C67.4229 79.8755 67.4057 80.0458 67.5473 80.4446L68.1994 82.2305V82.2305Z" fill="#2873B9"/>
<path d="M74.3952 77.8176C74.4751 77.7572 74.5674 77.764 74.6329 77.8885C74.8155 78.243 74.8144 79.1831 74.2438 79.6167C73.7841 79.9664 73.2689 79.8746 72.9191 79.4146C72.7979 79.2553 72.6061 78.8883 72.4795 78.6458L72.083 77.8829C71.9128 77.5571 71.7768 77.5055 71.6419 77.6081C71.3292 77.8462 71.5378 79.1005 72.1456 80.2935C72.3717 80.731 72.5406 80.8255 72.5406 80.8255C72.5406 80.8255 72.4905 80.9506 72.2635 81.1231C71.7914 81.4822 71.6008 81.3465 71.348 80.8612L70.452 79.1231C70.3003 78.8222 70.1641 78.7325 70.0169 78.844C69.7168 79.0726 69.8537 80.2457 70.5145 81.534C70.7408 81.9716 70.9096 82.066 70.9096 82.066C70.9096 82.066 70.8595 82.1911 70.6325 82.3637C70.1602 82.7227 69.9699 82.587 69.717 82.1017L68.6148 79.9784C68.3885 79.5408 68.2197 79.4464 68.2197 79.4464C68.2197 79.4464 68.2699 79.3213 68.4968 79.1487C68.9689 78.7897 69.1595 78.9254 69.412 79.4105L69.4997 79.5765C69.4457 79.0853 69.4902 78.3932 69.9133 78.0713C70.2995 77.7774 70.7329 77.8253 71.0359 78.2241C71.0686 78.2669 71.0949 78.3147 71.1323 78.3637C71.0627 77.8649 71.1149 77.1573 71.5501 76.8263C71.9365 76.5325 72.3729 76.5971 72.6621 76.977C72.765 77.1122 72.8757 77.3087 72.9848 77.5162L73.4952 78.4924C73.7092 78.9011 73.9363 79.0088 74.157 78.8409C74.4022 78.6544 74.4874 78.27 74.3951 77.8177L74.3952 77.8176Z" fill="#2873B9"/>
<path d="M75.2037 74.8245C74.9072 74.5755 74.6351 74.5501 74.431 74.749C74.1548 75.0177 74.1422 75.5789 74.7886 76.5516C74.9006 76.7221 75.1582 77.0307 75.2924 77.1685C75.6312 77.5161 75.9515 77.5804 76.1834 77.3547C76.4814 77.0644 76.4236 76.5079 75.922 75.7057C75.6819 75.7353 75.465 75.6562 75.2874 75.4739C75.1048 75.2863 75.0591 75.0405 75.2036 74.8245H75.2037ZM76.2652 74.4899C76.3831 74.6112 76.485 74.738 76.5758 74.8646C76.9307 74.4005 76.8245 73.7836 76.8245 73.7836C76.8962 73.7137 76.9888 73.7314 77.0582 73.8246C77.2133 74.0503 77.1558 74.6869 76.7682 75.1723C77.2202 76.0116 77.1476 76.9534 76.397 77.6842C75.812 78.2542 75.0214 78.3034 74.3549 77.6193C73.3818 76.6203 73.2792 75.3441 74.2226 74.425C74.8685 73.796 75.6524 73.8606 76.2652 74.4899Z" fill="#2873B9"/>
<path d="M78.942 72.4581C78.6959 72.523 78.4559 72.4616 78.2555 72.2926C78.061 72.1292 77.9852 71.8843 78.1027 71.6609C77.9295 71.5553 77.7899 71.5182 77.6645 71.5234C77.5634 72.0023 77.4028 72.3604 77.2719 72.7437C77.6412 73.2257 78.0442 73.656 78.4039 73.9583C78.8458 74.3307 79.1337 74.3111 79.347 74.0577C79.6102 73.7453 79.4279 73.0889 78.9419 72.4581H78.942ZM76.3292 71.3158C76.5292 71.6756 76.7576 72.0386 77.0054 72.3781C77.3311 71.1419 76.9378 69.8747 76.3604 69.3885C76.1717 69.2298 76.0126 69.2871 75.9135 69.4048C75.6855 69.6759 75.8824 70.5067 76.3291 71.3158H76.3292ZM77.4388 74.4348C76.3074 73.4825 75.7519 72.3602 75.4409 71.4136C75.1214 70.4297 75.2417 69.6048 75.6931 69.0687C76.1596 68.5147 76.6579 68.5209 77.1173 68.908C77.5356 69.2603 77.856 69.8725 77.7356 71.08C78.2195 70.7924 78.7585 70.8939 79.23 71.2907C79.3242 71.3701 79.4135 71.4556 79.492 71.5418C79.7835 71.0517 79.6177 70.4593 79.6177 70.4593C79.6823 70.3826 79.7759 70.3908 79.8542 70.4773C80.0251 70.6815 80.0345 71.3037 79.7076 71.8238C80.2325 72.5877 80.262 73.5695 79.5973 74.3587C79.0167 75.0482 78.2582 75.1244 77.4388 74.4348V74.4348Z" fill="#2873B9"/>
<path d="M80.5891 68.3373C80.2495 68.1515 79.9778 68.1803 79.8167 68.4155C79.599 68.7332 79.697 69.2858 80.5219 70.1125C80.6656 70.2574 80.9786 70.509 81.1373 70.6179C81.5379 70.8923 81.8649 70.892 82.0477 70.625C82.2829 70.2819 82.1165 69.7476 81.4668 69.0599C81.237 69.1363 81.0089 69.1012 80.7992 68.9578C80.5829 68.8097 80.4897 68.5776 80.5891 68.3374L80.5891 68.3373ZM81.564 67.8004C81.7035 67.8962 81.8283 68.0001 81.9425 68.1063C82.1991 67.5817 81.9735 66.9975 81.9735 66.9975C82.0302 66.9151 82.1239 66.914 82.2107 66.9919C82.4071 67.1824 82.4762 67.818 82.1914 68.37C82.7998 69.1042 82.9143 70.0416 82.3222 70.9061C81.8607 71.5798 81.0954 71.7843 80.3071 71.2444C79.1565 70.4564 78.8043 69.2255 79.5489 68.1383C80.0581 67.3949 80.8394 67.304 81.564 67.8003V67.8004Z" fill="#2873B9"/>
<path d="M82.5117 64.545C82.1733 64.281 81.9981 64.2644 81.9981 64.2644C81.9981 64.2644 81.9925 64.1299 82.1291 63.8794C82.4132 63.3587 82.6424 63.4052 83.0714 63.7446L84.4256 64.8173C84.8681 65.1646 85.0693 65.1336 85.1652 64.9577C85.272 64.7615 85.1162 64.5975 85.1162 64.5975C85.1679 64.5028 85.2682 64.4961 85.3823 64.5759C85.6382 64.7506 85.7757 65.2387 85.5358 65.678C85.3437 66.0296 84.8856 66.2096 84.3648 65.9254C84.2769 65.8774 84.1893 65.8296 84.0913 65.7672C84.2291 65.9649 84.3426 66.1591 84.4256 66.3446C84.6562 66.8388 84.6829 67.2401 84.4799 67.6118C84.2327 68.065 83.7597 68.1753 83.293 67.9204C83.0431 67.784 82.8245 67.638 82.5055 67.3854L81.4903 66.5765C81.1051 66.2697 80.9127 66.2523 80.9127 66.2523C80.9127 66.2523 80.9073 66.1174 81.0437 65.8672C81.3278 65.3468 81.5573 65.3928 81.9863 65.7324L83.4006 66.8555C83.7559 67.1373 83.9765 67.135 84.0836 66.9388C84.1651 66.79 84.0783 66.5149 83.904 66.1912C83.623 65.6604 83.0882 65.0002 82.5117 64.545V64.545ZM80.7436 63.0091C80.7914 62.9211 80.872 62.8861 80.9894 62.9767C81.2378 63.1646 81.5181 63.7127 81.1488 64.389C80.846 64.9433 80.3825 65.0852 79.9837 64.8675C79.6928 64.7087 79.593 64.4085 79.7668 64.0907C79.8886 63.8676 80.0559 63.8183 80.0559 63.8183C80.0559 63.8183 80.0992 63.9479 80.2818 64.0473C80.5049 64.169 80.7282 64.0977 80.8687 63.8407C81.0533 63.5029 80.8952 63.1972 80.7435 63.009L80.7436 63.0091Z" fill="#2873B9"/>
<path d="M5.66395 38.1344C5.84274 37.1584 5.44238 36.471 4.63637 36.3232C3.7875 36.1677 3.22585 36.6787 3.04438 37.6688L2.8084 38.9561L5.42529 39.4358L5.66395 38.1343V38.1344ZM0 41.2774L0.777698 37.0343C1.23676 34.5303 2.81962 33.1541 5.04025 33.5612C7.37427 33.9889 8.27557 36.0111 7.82412 38.4722L7.5755 39.83L10.4042 40.3487L9.90122 43.0928L0 41.2774H0Z" fill="#4DB054"/>
<path d="M10.3192 27.782L7.25272 27.5681L9.35092 29.8219L10.3192 27.782ZM3.69727 27.3451L4.85062 24.9155L15.8478 25.3918L14.5651 28.0946L12.6264 27.986L10.9612 31.4939L12.2771 32.9145L11.0188 35.5647L3.69727 27.3452V27.3451Z" fill="#00A0E3"/>
<path d="M18.6312 18.8895L14.8373 15.368L13.3503 16.97L13.4241 17.0385C15.0576 18.5543 15.9077 19.7947 16.6063 21.0713L18.6311 18.8895H18.6312ZM14.0142 23.8637L14.6204 23.2105C13.7418 21.4728 12.6906 20.0266 9.91916 17.4536L9.72949 17.2778L14.9435 11.6606L20.529 16.8453L21.302 16.0127L24.3535 19.2769L22.7494 21.0052L21.274 19.6357L17.6348 23.5561L18.983 25.0627L17.281 26.8966L14.0142 23.8637H14.0142Z" fill="#98C22F"/>
<path d="M27.897 9.1172C27.1863 7.85063 25.6515 7.26059 24.3094 8.01342C22.98 8.7593 22.6947 10.3375 23.4193 11.6293C24.1301 12.8962 25.6652 13.4863 26.9942 12.7402C28.3363 11.9876 28.6215 10.4092 27.897 9.1172ZM20.9234 13.0296C19.509 10.5086 20.394 7.32432 23.1034 5.80426C25.8124 4.28463 28.9517 5.17797 30.3803 7.7241C31.7947 10.2451 30.9096 13.4294 28.2006 14.9494C25.4916 16.4691 22.352 15.5757 20.9234 13.0296Z" fill="#F49825"/>
<path d="M32.5364 7.03022C31.9386 4.15843 33.6799 1.4459 36.6642 0.824551C38.6771 0.405597 40.1118 1.01749 41.2365 2.04624L39.5601 4.01113C38.8503 3.42436 38.098 3.12582 37.1548 3.32228C35.7753 3.60934 35.047 4.98009 35.3518 6.44395C35.6595 7.92214 36.8712 8.87418 38.2508 8.58679C39.2787 8.37317 39.7841 7.76839 40.2257 6.92722L42.5859 7.96334C41.9233 9.43793 40.8668 10.6419 38.6851 11.096C35.8696 11.6826 33.155 10.0002 32.5363 7.03022H32.5364Z" fill="#E95229"/>
<path d="M46.8416 2.63556L43.8276 2.43995L43.9861 0L52.7979 0.572366L52.6396 3.01198L49.6261 2.81611L49.1319 10.4228L46.3478 10.242L46.8416 2.63556Z" fill="#E63A34"/>
<path d="M57.8084 9.99745C58.68 10.2931 59.3314 10.0736 59.5854 9.32485C59.8117 8.65743 59.4421 8.04613 58.5841 7.75496L57.1951 7.28409L56.4331 9.5311L57.8084 9.99753V9.99745ZM56.2714 1.32211L58.9134 2.21813L57.8973 5.21411L59.3406 5.70357C61.6285 6.47951 62.9341 8.13699 62.2041 10.2886C61.5067 12.345 59.5884 13.0763 57.2599 12.2866L53.0381 10.8545L56.2713 1.32202L56.2714 1.32211Z" fill="#F39314"/>
<path d="M72.1292 8.48608L74.3041 10.4758L73.446 14.972L77.8485 13.7173L80.0237 15.7073L73.2294 23.1346L71.1815 21.2612L75.0834 16.9963L70.5246 18.166L70.4821 18.1274L71.2335 13.5134L67.3512 17.7577L65.335 15.9138L72.1292 8.48608Z" fill="#E6265E"/>
<path d="M82.1217 28.5286C83.3959 27.8324 84.0031 26.3041 83.2652 24.954C82.5338 23.6164 80.9592 23.3134 79.6594 24.0238C78.3852 24.7204 77.7779 26.2483 78.509 27.5862C79.2472 28.9364 80.8221 29.239 82.1217 28.5286ZM78.2871 21.5128C80.8235 20.1265 83.9971 21.0466 85.487 23.7721C86.9767 26.4976 86.0488 29.6273 83.487 31.0272C80.9507 32.4132 77.7765 31.4934 76.2871 28.7678C74.7972 26.0421 75.7254 22.9127 78.2871 21.5128Z" fill="#742E6A"/>
<path d="M85.5362 39.4023L87.9921 38.9232L87.6422 37.1309C87.4631 36.2134 86.9155 35.7342 86.1109 35.8915C85.3911 36.0316 85.0016 36.6645 85.1837 37.5958L85.5362 39.4023ZM83.1055 35.731C83.3878 34.401 84.2328 33.4008 85.7713 33.1008C88.0859 32.6488 89.5053 34.2909 89.9434 36.5349L90.8551 41.2065L80.976 43.1348L80.4414 40.3972L83.4336 39.813L83.1993 38.6134L79.8189 37.2076L79.2017 34.0464L83.1056 35.7311L83.1055 35.731Z" fill="#E95055"/>
<path d="M62.0501 61.0381V39.5601C62.0501 39.2426 46.4513 28.7501 45.853 28.2958C45.5228 28.0451 45.0643 28.0382 44.7421 28.2981C44.1881 28.7454 28.6333 39.2449 28.6353 39.5639L28.7888 61.6769C28.7888 64.6119 31.1573 65.6645 32.5963 65.6645H37.4089C38.9679 65.6645 42.2347 65.6668 42.2834 65.6645H42.3946C42.3946 65.6645 49.822 65.7279 50.1453 65.6677C51.0473 65.6666 52.2386 65.6645 53.4556 65.6645H58.2682C59.7076 65.6645 62.0758 64.6119 62.0758 61.6769C62.0758 61.4435 62.0716 61.2367 62.0501 61.0381Z" fill="#00A0E3"/>
<path d="M51.2229 58.6703H39.1973V52.1824H51.2229V58.6703Z" fill="#FDEDE3"/>
<path d="M41.7095 58.6053C41.3885 58.6015 41.1144 58.3743 41.053 58.0589C40.7786 56.6463 39.9495 52.9941 38.8167 53.6314C36.9309 54.6917 34.411 56.1651 32.8226 56.9416C30.1416 58.2524 28.9467 59.7017 28.7765 61.2402C28.6151 62.6951 29.3763 64.2551 30.4546 64.9874C31.5335 65.7197 32.6765 65.6645 34.0127 65.6645H56.237C57.2475 65.6645 58.3376 65.7362 58.9683 65.5695C61.0974 65.0071 62.0399 63.6668 62.1004 61.514C62.1467 59.8523 60.4871 57.6819 55.5569 54.9867C54.4996 54.4087 53.092 53.7125 51.8422 53.1115C50.5149 52.4733 49.3082 56.5648 48.9256 58.0588C48.8488 58.3602 48.5745 58.6087 48.2632 58.6052H41.7095V58.6053Z" fill="#CA2E37"/>
<path d="M47.1291 62.2635C45.3 62.0267 42.1813 64.0216 41.5257 64.9613C41.3756 65.1764 41.3965 65.6647 41.3965 65.6647H41.7045H46.8035C48.8837 65.6647 49.9042 65.5853 50.3795 65.098C50.5763 64.8964 50.6671 64.615 50.6577 64.2379C50.6291 63.1327 49.7012 62.5964 47.1291 62.2635Z" fill="#F9CBB6"/>
<path d="M48.1421 62.4202C48.1421 62.4202 52.4536 59.5956 56.4498 58.9444C58.8281 58.5567 60.7113 58.2865 61.7005 59.993C62.0484 60.5923 62.0761 61.0374 62.0761 61.677C62.0761 64.6123 59.7076 65.6647 58.2682 65.6647H53.4559H48.3766C48.3766 65.6647 48.7516 64.8548 48.5921 63.9759C48.4962 63.4466 48.1422 62.4202 48.1422 62.4202L48.1421 62.4202Z" fill="#E52D32"/>
<path d="M50.0317 64.961C49.3502 64.0398 45.7645 61.8906 44.1063 62.1555C41.6842 62.5432 40.3203 63.1327 40.2917 64.2378C40.2822 64.6145 40.3732 64.8961 40.57 65.0979C41.045 65.5849 41.1034 65.6646 42.3944 65.6646H50.161C50.161 65.6646 50.3412 65.3793 50.0317 64.961Z" fill="#FDEDE3"/>
<path d="M42.7161 62.4275C42.7161 62.4275 36.7282 59.2987 34.4148 58.9441C32.033 58.5795 30.1534 58.2864 29.1638 59.993C28.8163 60.5919 28.7886 61.0372 28.7886 61.6771C28.7886 64.612 31.1571 65.6646 32.5962 65.6646H37.4088H42.488C42.488 65.6646 42.1127 64.8548 42.2726 63.9759C42.3684 63.4465 42.716 62.4275 42.716 62.4275H42.7161Z" fill="#E52D32"/>
<path d="M39.9253 53.6448C39.9253 53.6448 41.9894 56.1204 45.2869 55.9449C48.3746 55.7806 49.938 52.365 49.938 52.365C49.938 52.365 47.6898 54.5013 45.5633 54.8527C43.5677 55.1819 39.9253 53.6448 39.9253 53.6448Z" fill="#F9CBB6"/>
<path d="M30.7883 50.106C29.8301 52.722 31.5705 53.423 32.1983 54.1074C32.5804 54.5237 32.6677 55.66 31.8012 55.9848C30.9379 56.3085 30.2998 55.4661 30.2998 55.4661C30.2998 55.4661 31.1466 61.9027 37.7954 57.4564C39.7874 56.1241 39.9031 53.6334 39.9031 53.6334C39.9031 53.6334 38.9487 53.1194 37.9904 52.1651C37.2443 51.4219 36.7297 50.5943 36.5736 50.3362C35.96 49.3201 35.6573 48.2096 35.6573 48.2096C35.6573 48.2096 32.0361 46.6999 30.7883 50.106Z" fill="#FECD27"/>
<path d="M52.5496 53.3968C55.3354 53.3814 55.4296 51.7458 55.8556 50.9209C56.115 50.4191 57.1517 49.9458 57.7553 50.6474C58.3563 51.3464 57.7852 52.2353 57.7852 52.2353C57.7852 52.2353 63.4707 47.9859 57.5323 43.6839C55.1803 41.9801 52.2586 44.1969 52.2586 44.1969C52.2586 44.1969 52.5254 45.3534 52.3487 47.0283C52.3139 47.3564 52.2348 47.7092 52.1534 48.0701C52.097 48.3208 52.0395 48.566 51.9486 48.8611C51.7112 49.6335 51.3579 50.3076 51.0508 50.8381C50.87 51.1511 50.6626 51.4608 50.4973 51.6754C50.1393 52.1406 49.9365 52.3616 49.9365 52.3616C49.9365 52.3616 50.8594 53.406 52.5496 53.3969L52.5496 53.3968Z" fill="#FECD27"/>
<path d="M52.1988 43.9103C52.9759 47.461 51.5851 51.0775 49.131 53.134C48.1772 53.9333 47.3624 54.7136 45.964 55.0278C44.6529 55.3219 43.6755 54.8768 42.49 54.6245C39.1573 53.9161 36.3283 51.2803 35.5143 47.6556C34.4111 42.7416 36.775 36.6289 41.7728 35.5072C46.7706 34.3855 51.1225 38.9903 52.1988 43.9101V43.9103Z" fill="#FDEDE3"/>
<path d="M40.4411 49.1607C40.6193 49.9541 40.1204 50.7421 39.3268 50.9203C38.5331 51.0981 37.7454 50.5992 37.5672 49.8059C37.3894 49.0122 37.8882 48.2245 38.6819 48.0463C39.4753 47.8682 40.2629 48.3674 40.4411 49.1607Z" fill="#F3A2AB"/>
<path d="M48.5908 47.3732C48.769 48.1669 49.5564 48.6657 50.3503 48.4875C51.1437 48.3096 51.6429 47.5216 51.4643 46.728C51.2865 45.9346 50.4987 45.4358 49.7049 45.6136C48.9114 45.7922 48.4126 46.5799 48.5908 47.3732Z" fill="#F3A2AB"/>
<path d="M46.77 51.0635C46.3753 51.458 45.9259 51.8037 45.4178 51.8938C44.9069 51.9932 44.3502 51.8642 43.8195 51.6836C43.492 51.5674 43.1718 51.4208 42.8547 51.2603C42.9839 51.2913 43.1135 51.3181 43.2433 51.3394C43.8775 51.4379 44.5266 51.3925 45.1503 51.2698C45.7719 51.1408 46.3906 50.9408 46.9364 50.5951C47.1323 50.4735 47.3229 50.3337 47.4966 50.1767C47.2704 50.4921 47.0328 50.7933 46.7699 51.0636L46.77 51.0635ZM48.1773 49.1816C47.8213 49.6931 47.3111 50.0433 46.7736 50.2991C46.2354 50.5599 45.6546 50.7298 45.0654 50.8546C44.4759 50.9815 43.8761 51.0363 43.2746 51.0222C42.6771 50.9874 42.0692 50.8829 41.5127 50.6012C41.7883 50.8525 42.1225 51.0272 42.4781 51.1502C42.8386 51.4807 43.2466 51.7614 43.6942 51.9808C44.2278 52.246 44.8513 52.4218 45.4961 52.312C46.1488 52.1884 46.6565 51.7542 47.0215 51.2821C47.3416 50.862 47.5885 50.4002 47.7544 49.9108C47.9399 49.6941 48.0908 49.4523 48.1774 49.1814L48.1773 49.1816Z" fill="#EA7D8D"/>
<path d="M43.3752 48.7799C43.5896 48.8781 43.8236 48.8769 44.0465 48.872C44.2716 48.8558 44.4967 48.8331 44.7183 48.7773C44.9399 48.7357 45.1493 48.6652 45.3519 48.5651C45.5535 48.4666 45.7536 48.3512 45.9385 48.2046C45.6924 48.6168 45.2363 48.8893 44.7607 48.9826C44.5253 49.0218 44.2842 49.0564 44.0422 49.0301C43.804 49.0092 43.5529 48.9428 43.375 48.7799H43.3752Z" fill="#805330"/>
<path d="M46.4614 44.9298C46.5895 45.4986 47.1539 45.8562 47.7224 45.7284C48.2912 45.6007 48.6487 45.036 48.521 44.4675C48.3935 43.8987 47.8288 43.5412 47.2601 43.669C46.6912 43.7964 46.3337 44.361 46.4614 44.9298Z" fill="#83D0F4"/>
<path d="M47.029 44.4053C47.1906 44.1502 47.5288 44.074 47.7843 44.236C48.0398 44.3977 48.1156 44.7358 47.9538 44.991C47.792 45.2467 47.4538 45.3224 47.1983 45.1609C46.9431 44.999 46.867 44.6608 47.029 44.4053Z" fill="#805330"/>
<path d="M45.6636 45.7866C45.6636 45.7866 45.9577 43.9395 47.3922 43.5847C47.9424 43.4486 48.4897 43.6953 48.8635 43.6118C49.5485 43.459 49.6719 43.073 49.6719 43.073C49.6719 43.073 49.6588 43.9695 49.069 44.2088C48.5159 44.4336 48.4587 43.7855 47.247 44.1131C46.4746 44.3224 45.6636 45.7866 45.6636 45.7866Z" fill="#95633F"/>
<path d="M48.1338 45.5445C48.1338 45.5445 48.135 45.0357 48.7896 44.6769C49.252 44.4228 49.7798 44.6297 49.7798 44.6297C49.7798 44.6297 49.0817 44.7895 48.8746 44.9038C48.6598 45.0221 48.1338 45.5446 48.1338 45.5446V45.5445Z" fill="#805330"/>
<path d="M40.9849 42.7675C40.6333 42.4066 39.4927 43.1421 39.018 43.3602C38.2586 43.7092 37.9878 44.8358 37.9878 44.8358C37.9878 44.8358 38.2332 44.3396 38.9484 43.982C40.335 43.2893 40.7549 43.5448 41.1387 43.2554C41.2275 43.1887 41.054 42.8385 40.9849 42.7675Z" fill="#95633F"/>
<path d="M45.0413 41.7938C45.178 41.3086 46.531 41.4101 47.0523 41.375C47.8863 41.3186 48.6625 42.1792 48.6625 42.1792C48.6625 42.1792 48.2096 41.8606 47.411 41.888C45.8615 41.9417 45.6148 42.3665 45.1393 42.2961C45.0293 42.2795 45.0145 41.8892 45.0414 41.7939L45.0413 41.7938Z" fill="#95633F"/>
<path d="M41.2734 46.094C41.4012 46.6628 41.0436 47.2272 40.4748 47.3547C39.906 47.4824 39.3416 47.1248 39.2139 46.5561C39.0861 45.9875 39.4437 45.4231 40.0124 45.2954C40.5813 45.1676 41.1457 45.5252 41.2734 46.094Z" fill="#83D0F4"/>
<path d="M40.5365 45.8628C40.281 45.7012 39.9429 45.7769 39.7813 46.0321C39.6196 46.2876 39.6953 46.626 39.9508 46.7876C40.2061 46.9494 40.5442 46.8736 40.7062 46.6181C40.8678 46.3626 40.792 46.0244 40.5365 45.8628Z" fill="#805330"/>
<path d="M42.3613 46.5285C42.3613 46.5285 41.306 44.9846 39.8573 45.2768C39.3015 45.3892 38.9127 45.8459 38.5386 45.9303C37.8541 46.0849 37.5776 45.7887 37.5776 45.7887C37.5776 45.7887 37.9727 46.5934 38.6082 46.5581C39.2042 46.5248 38.9788 45.9143 40.2147 45.6928C41.0021 45.5514 42.3613 46.5286 42.3613 46.5286V46.5285Z" fill="#95633F"/>
<path d="M40.0114 47.3616C40.0114 47.3616 39.7927 46.902 39.0479 46.8574C38.5212 46.8258 38.1323 47.2383 38.1323 47.2383C38.1323 47.2383 38.8318 47.0843 39.0679 47.0988C39.3121 47.1139 40.0113 47.3616 40.0113 47.3616H40.0114Z" fill="#805330"/>
<path d="M48.8723 35.3159C46.2867 33.4644 42.9824 34.3218 41.6663 34.7729C40.8435 34.8585 36.9724 35.4134 34.926 38.4103C30.5416 44.8324 35.666 48.2247 35.666 48.2247C35.666 48.2247 35.0032 43.7891 38.0525 42.523C41.8327 40.9534 43.4639 39.5479 43.9757 38.3775C45.0263 39.1051 46.4392 39.8187 48.3366 40.3654C51.0573 41.1496 51.9864 43.365 52.2591 44.1972C52.2591 44.1972 52.3485 43.9765 52.4535 43.7326C52.5323 43.5488 52.6674 43.2514 52.6674 43.2514C52.6674 43.2514 53.4032 38.5614 48.8724 35.3159H48.8723Z" fill="#FECD27"/>
<path d="M52.3877 45.1328C52.3877 45.1328 52.3579 44.828 52.344 44.7256C52.3254 44.5925 52.2588 44.1966 52.2588 44.1966C52.2588 44.1966 53.4442 41.2033 54.1036 41.095C54.637 41.0083 55.9428 41.5403 56.0314 42.0737C56.183 42.9904 53.4357 44.7354 53.4357 44.7354C53.4357 44.7354 56.6123 43.7577 57.2386 44.4757C57.7879 45.1047 57.305 47.365 56.5621 47.7465C54.7645 48.6699 52.3877 45.1328 52.3877 45.1328Z" fill="#E52D32"/>
<path d="M35.961 49.0928C35.961 49.0928 35.8389 48.7778 35.8022 48.6689C35.7654 48.5586 35.6657 48.2243 35.6657 48.2243C35.6657 48.2243 33.3225 46.0172 32.6802 46.2016C32.1607 46.3509 31.2077 47.3902 31.3559 47.9098C31.6102 48.8041 34.8401 49.2071 34.8401 49.2071C34.8401 49.2071 31.5503 49.6809 31.2907 50.5982C31.0633 51.4012 32.4661 53.2384 33.3004 53.2658C35.3204 53.3322 35.9609 49.0928 35.9609 49.0928H35.961Z" fill="#E52D32"/>
<path d="M39.9211 46.094C39.7933 46.0132 39.6243 46.051 39.5434 46.1788C39.4626 46.3065 39.5007 46.4755 39.6281 46.5561C39.7559 46.6372 39.9249 46.5991 40.0061 46.4714C40.087 46.3439 40.0488 46.1746 39.9211 46.094Z" fill="#FEFEFE"/>
<path d="M47.1392 44.5276C47.0115 44.4468 46.8425 44.4846 46.7619 44.6124C46.6808 44.7404 46.7189 44.9091 46.8466 44.9899C46.9741 45.0711 47.1433 45.033 47.2242 44.9053C47.3051 44.7778 47.2673 44.6085 47.1392 44.5276Z" fill="#FEFEFE"/>
<path d="M42.3942 65.5907C44.9609 65.6129 49.8814 65.6423 50.1313 65.5954L50.8314 65.5934C51.6129 65.5922 52.5263 65.5907 53.4551 65.5907H58.2677C59.7112 65.5907 62.0015 64.5281 62.0015 61.6765C62.0015 61.4712 61.9983 61.2526 61.9762 61.0461L61.9759 61.0381V39.577C61.646 39.1452 53.5102 33.6092 49.1252 30.6249C47.2966 29.3808 45.9754 28.4818 45.8073 28.3544C45.499 28.1196 45.0794 28.1205 44.7879 28.3555C44.611 28.4984 42.9901 29.608 40.7464 31.1436C36.3525 34.1511 29.0204 39.1695 28.7086 39.5803L28.862 61.676C28.862 64.528 31.1523 65.5907 32.5959 65.5907L39.3247 65.5913C40.6872 65.5919 42.231 65.5928 42.2797 65.5907H42.3942ZM48.1183 65.768C45.8879 65.768 42.5974 65.74 42.3936 65.7382H42.283C42.2546 65.74 41.1462 65.7394 39.3247 65.7388L32.5959 65.7382C31.0954 65.7382 28.7144 64.6357 28.7144 61.6765L28.561 39.5645C28.5595 39.3644 31.2741 37.4484 40.6631 31.0221C42.8195 29.5457 44.5229 28.3801 44.6953 28.2409C45.0399 27.9632 45.5337 27.9615 45.8966 28.2371C46.0615 28.3618 47.3812 29.2599 49.2083 30.5032C58.985 37.1561 62.1233 39.357 62.1233 39.5603V61.0343C62.1458 61.2464 62.149 61.4682 62.149 61.6765C62.149 64.6358 59.7684 65.7382 58.2676 65.7382H53.4551C52.5266 65.7382 51.6129 65.7397 50.8316 65.7409L50.1448 65.7417C50.0421 65.7612 49.2061 65.768 48.1183 65.768Z" fill="#805330"/>
<path d="M70.6659 42.05L58.1005 33.3145C58.1005 33.3145 58.097 33.3139 58.0964 33.3139C58.1071 32.771 57.9091 32.4276 57.9091 32.4276L40.4023 20.257C40.4023 20.257 38.8874 20.1585 38.0097 21.3053C37.7197 21.6841 37.5706 22.044 37.4954 22.3727C37.2989 23.231 37.653 23.8493 37.653 23.8493L55.1591 36.0199C55.1591 36.0199 55.5637 36.101 56.1059 35.9241L68.6695 44.6584C68.6695 44.6584 69.5251 44.8378 70.3308 43.7849C71.0805 42.8056 70.666 42.0501 70.666 42.0501L70.6659 42.05Z" fill="#E52D32"/>
<path d="M70.7394 42.866C71.4837 43.309 73.7746 44.6009 74.1512 44.6635C74.3382 44.6945 74.5011 44.8314 74.5498 44.9989C74.684 45.4622 75.3797 46.6508 75.7343 47.2899C75.7691 47.3529 75.6969 47.4029 75.6337 47.3589L73.3611 45.7793C73.3732 45.6755 73.3178 45.5598 73.2089 45.484C73.0578 45.379 72.861 45.3907 72.7699 45.5103C72.678 45.6298 72.7265 45.8118 72.8775 45.9169C72.9864 45.9928 73.1191 46.0072 73.2189 45.9649L75.4915 47.5445C75.5546 47.5885 75.5269 47.6693 75.4534 47.6569C74.7065 47.5304 73.3062 47.2618 72.8026 47.2819C72.62 47.2887 72.4338 47.1829 72.3457 47.0226C72.1683 46.7002 70.2143 45.0412 69.544 44.501C69.5325 44.4916 69.5213 44.4818 69.5107 44.4712C69.5107 44.4712 69.4553 44.2024 69.94 43.5696C70.4247 42.9362 70.7394 42.866 70.7394 42.866L70.7394 42.866Z" fill="#F8CF26"/>
<path d="M55.7599 33.6452C54.6996 35.0303 55.1595 36.0196 55.1595 36.0196L37.6527 23.849C37.6527 23.849 37.299 23.2306 37.4954 22.3724C37.5707 22.0439 37.7194 21.6838 38.0094 21.3049L55.7598 33.6453L55.7599 33.6452Z" fill="#CA2E37"/>
<path d="M69.2461 43.0207C68.4006 44.1252 68.6694 44.658 68.6694 44.658L56.1041 35.9222C56.1041 35.9222 55.8255 35.1738 56.5664 34.2058L69.2461 43.0207Z" fill="#CA2E37"/>
<path d="M72.8574 47.2069C73.3145 47.2069 74.3057 47.3812 75.0384 47.5099C75.169 47.5326 75.292 47.5544 75.403 47.5736L73.2079 46.0465C73.0878 46.0819 72.9495 46.0568 72.8353 45.9772C72.7368 45.9087 72.6704 45.8085 72.6539 45.7016C72.6403 45.6151 72.6604 45.5314 72.711 45.4656C72.8261 45.3148 73.0686 45.296 73.2508 45.4234C73.3652 45.5028 73.433 45.6214 73.4363 45.7415L75.641 47.2742C75.5876 47.1783 75.5277 47.0724 75.464 46.959C75.0961 46.3061 74.5925 45.4122 74.4786 45.0195C74.4379 44.879 74.2983 44.7628 74.139 44.7362C73.7112 44.6651 71.1595 43.1901 70.7078 42.9216L70.6638 42.8953L70.673 42.8451C70.7447 42.4388 70.637 42.1637 70.6078 42.0993L58.0711 33.3836L58.0254 33.3753L58.0227 33.3119C58.031 32.8569 57.8865 32.5451 57.852 32.4775L40.3777 20.3293C40.1995 20.324 38.8575 20.3184 38.0682 21.3495C37.8156 21.6794 37.6519 22.019 37.5673 22.3886C37.4507 22.8984 37.5322 23.3203 37.6209 23.5843C37.658 23.6947 37.6941 23.7693 37.7095 23.7983L55.1876 35.9494C55.2622 35.961 55.6227 36.0037 56.083 35.8536L56.1178 35.8421L56.1476 35.8634L68.6967 44.5867C68.7645 44.5935 69.0681 44.6098 69.4682 44.4044L69.5118 44.3819L69.5496 44.4138C70.1874 44.9488 72.2456 46.6876 72.4099 46.9871C72.4849 47.1232 72.6423 47.2143 72.7999 47.2078C72.8179 47.2073 72.8371 47.207 72.8574 47.207V47.2069ZM75.4675 47.7317C75.4587 47.7317 75.4499 47.7311 75.441 47.7294C75.3141 47.7081 75.1689 47.6825 75.0126 47.6554C74.2547 47.5217 73.2165 47.3385 72.8055 47.3553C72.5961 47.3654 72.3834 47.2441 72.2809 47.058C72.1682 46.8535 70.8031 45.6586 69.4915 44.5579C69.0131 44.7891 68.6713 44.7328 68.6568 44.7301L68.6273 44.718L56.0932 36.005C55.5577 36.1719 55.1615 36.0953 55.1446 36.0918L55.1168 36.0799L37.5969 23.9002L37.5886 23.8857C37.5865 23.8816 37.5344 23.7904 37.4813 23.6314C37.3862 23.3496 37.299 22.8991 37.4235 22.356C37.5128 21.965 37.6854 21.607 37.9507 21.2603C38.8423 20.0949 40.3431 20.1793 40.4068 20.1831L40.4275 20.1843L40.4443 20.1961L57.9643 32.3758L57.9726 32.3903C57.9809 32.4048 58.1709 32.7405 58.1706 33.273L70.7224 41.9991L70.7306 42.0145C70.7377 42.0275 70.8985 42.3313 70.8265 42.8205C71.6785 43.3247 73.8199 44.5333 74.1633 44.5905C74.3799 44.6268 74.5636 44.7826 74.6206 44.9785C74.7294 45.3547 75.2283 46.2404 75.5927 46.8868C75.668 47.0208 75.7385 47.1455 75.7987 47.2541C75.8295 47.3098 75.8206 47.3742 75.7763 47.4145C75.727 47.4587 75.6514 47.4611 75.5919 47.4195L73.2823 45.8142L73.2877 45.7704C73.2968 45.6904 73.2493 45.6022 73.1667 45.5444C73.0499 45.4632 72.8947 45.468 72.8279 45.5551C72.7953 45.5984 72.7944 45.6463 72.7996 45.6789C72.8099 45.7459 72.8536 45.8106 72.9194 45.8562C73.0041 45.9146 73.1103 45.9309 73.1903 45.8969L73.2277 45.8806L75.5337 47.4839C75.5926 47.5248 75.6154 47.5927 75.5909 47.6526C75.5705 47.7022 75.5227 47.7316 75.4675 47.7316V47.7317Z" fill="#805330"/>
<path d="M22.1863 44.9163L14.8105 47.7241L19.9347 41.9207L21.0053 42.3216L22.1321 43.821L22.1863 44.9163Z" fill="#F6E498"/>
<path d="M52.5103 20.8157L53.6373 22.315L22.1314 43.8212L21.0044 42.3219L52.5103 20.8157Z" fill="#2873B9"/>
<path d="M51.5775 20.3213L52.5118 20.8179L21.006 42.3238L19.9341 41.9211L51.5775 20.3213Z" fill="#348FCD"/>
<path d="M53.6368 22.314L53.8291 23.3168L22.186 44.9165L22.1309 43.8203L53.6368 22.314Z" fill="#206293"/>
<path d="M16.3155 47.159L14.8315 47.7239L15.8632 46.5574L16.3155 47.159Z" fill="#348FCD"/>
<path d="M51.5825 20.4066L19.9762 41.9813L15.0835 47.5491L22.1598 44.8475L53.7477 23.2829L53.5683 22.3456L52.4611 20.8734L51.5825 20.4066ZM14.5796 47.8989L19.8792 41.8718L51.5728 20.2346L52.569 20.7716L53.7099 22.301L53.9108 23.3505L53.8707 23.3777L22.2276 44.977L14.5796 47.8989Z" fill="#805330"/>
</svg>
