<svg width="40" height="40" viewBox="0 0 40 40" fill="none" xmlns="http://www.w3.org/2000/svg">
<circle r="20" transform="matrix(-1 0 0 1 20 20)" fill="#FFD990"/>
<circle r="20" transform="matrix(-1 0 0 1 20 20)" fill="white" fill-opacity="0.2"/>
<path d="M18.3083 16.0225C18.1911 16.1397 18.1253 16.2986 18.1253 16.4643C18.1253 16.6301 18.1911 16.789 18.3083 16.9062L21.402 20L18.3083 23.0937C18.1944 23.2116 18.1314 23.3695 18.1329 23.5333C18.1343 23.6972 18.2 23.854 18.3159 23.9699C18.4318 24.0857 18.5885 24.1515 18.7524 24.1529C18.9163 24.1543 19.0742 24.0913 19.192 23.9775L22.7277 20.4418C22.8448 20.3246 22.9106 20.1657 22.9106 20C22.9106 19.8342 22.8448 19.6753 22.7277 19.5581L19.192 16.0225C19.0748 15.9053 18.9159 15.8395 18.7502 15.8395C18.5844 15.8395 18.4255 15.9053 18.3083 16.0225Z" fill="white"/>
</svg>
