<svg width="40" height="40" viewBox="0 0 40 40" fill="none" xmlns="http://www.w3.org/2000/svg">
<path d="M0 20C0 31.0457 8.95431 40 20 40C31.0457 40 40 31.0457 40 20C40 8.9543 31.0457 0 20 0C8.95431 0 0 8.9543 0 20Z" fill="#FFD990"/>
<path d="M18.3081 16.0225C18.1909 16.1397 18.1251 16.2986 18.1251 16.4644C18.1251 16.6301 18.1909 16.789 18.3081 16.9062L21.4019 20L18.3081 23.0937C18.1943 23.2116 18.1313 23.3695 18.1327 23.5334C18.1341 23.6972 18.1999 23.854 18.3157 23.9699C18.4316 24.0857 18.5884 24.1515 18.7522 24.1529C18.9161 24.1543 19.074 24.0913 19.1919 23.9775L22.7275 20.4419C22.8447 20.3246 22.9105 20.1657 22.9105 20C22.9105 19.8342 22.8447 19.6753 22.7275 19.5581L19.1919 16.0225C19.0747 15.9053 18.9157 15.8395 18.75 15.8395C18.5843 15.8395 18.4253 15.9053 18.3081 16.0225Z" fill="white"/>
</svg>
