<svg width="40" height="40" viewBox="0 0 40 40" fill="none" xmlns="http://www.w3.org/2000/svg">
<path d="M40 20C40 31.0457 31.0457 40 20 40C8.9543 40 0 31.0457 0 20C0 8.9543 8.9543 0 20 0C31.0457 0 40 8.9543 40 20Z" fill="#FFD990"/>
<path d="M40 20C40 31.0457 31.0457 40 20 40C8.9543 40 0 31.0457 0 20C0 8.9543 8.9543 0 20 0C31.0457 0 40 8.9543 40 20Z" fill="white" fill-opacity="0.2"/>
<path d="M21.6919 16.0225C21.8091 16.1397 21.8749 16.2986 21.8749 16.4644C21.8749 16.6301 21.8091 16.789 21.6919 16.9062L18.5981 20L21.6919 23.0937C21.8057 23.2116 21.8687 23.3695 21.8673 23.5334C21.8659 23.6972 21.8001 23.854 21.6843 23.9699C21.5684 24.0857 21.4116 24.1515 21.2478 24.1529C21.0839 24.1543 20.926 24.0913 20.8081 23.9775L17.2725 20.4419C17.1553 20.3246 17.0895 20.1657 17.0895 20C17.0895 19.8342 17.1553 19.6753 17.2725 19.5581L20.8081 16.0225C20.9253 15.9053 21.0843 15.8395 21.25 15.8395C21.4157 15.8395 21.5747 15.9053 21.6919 16.0225Z" fill="white"/>
</svg>
