<svg width="82" height="31" viewBox="0 0 82 31" fill="none" xmlns="http://www.w3.org/2000/svg">
<path d="M0 6.90327C0 3.09069 3.0907 0 6.90328 0H74.7098C78.5224 0 81.6131 3.0907 81.6131 6.90328V23.9033C81.6131 27.7159 78.5224 30.8066 74.7098 30.8066H0V6.90327Z" fill="#B6FF00"/>
<path d="M19.9102 21.0433C21.5202 21.0433 22.8922 20.4693 23.8022 19.4053L22.6262 18.2853C21.9122 19.0693 21.0302 19.4473 20.0082 19.4473C17.9782 19.4473 16.5082 18.0193 16.5082 16.0033C16.5082 13.9873 17.9782 12.5593 20.0082 12.5593C21.0302 12.5593 21.9122 12.9373 22.6262 13.7073L23.8022 12.6013C22.8922 11.5373 21.5202 10.9633 19.9242 10.9633C16.9142 10.9633 14.6742 13.0773 14.6742 16.0033C14.6742 18.9293 16.9142 21.0433 19.9102 21.0433ZM31.974 20.9033H34.032L30.56 15.8493L33.906 11.1033H31.974L29.16 15.2053H27.284V11.1033H25.492V20.9033H27.284V16.7733H29.104L31.974 20.9033ZM39.7761 21.0433C42.8141 21.0433 45.0541 18.9153 45.0541 16.0033C45.0541 13.0913 42.8141 10.9633 39.7761 10.9633C36.7381 10.9633 34.4981 13.1053 34.4981 16.0033C34.4981 18.9013 36.7381 21.0433 39.7761 21.0433ZM39.7761 19.4473C37.8021 19.4473 36.3321 18.0053 36.3321 16.0033C36.3321 14.0013 37.8021 12.5593 39.7761 12.5593C41.7501 12.5593 43.2201 14.0013 43.2201 16.0033C43.2201 18.0053 41.7501 19.4473 39.7761 19.4473ZM51.0982 11.1033H47.0662V20.9033H48.8862V18.0753H51.0982C53.6742 18.0753 55.2702 16.7453 55.2702 14.5893C55.2702 12.4193 53.6742 11.1033 51.0982 11.1033ZM51.0142 16.5353H48.8862V12.6433H51.0142C52.6102 12.6433 53.4362 13.3573 53.4362 14.5893C53.4362 15.8213 52.6102 16.5353 51.0142 16.5353ZM61.6647 21.0433C64.7027 21.0433 66.9427 18.9153 66.9427 16.0033C66.9427 13.0913 64.7027 10.9633 61.6647 10.9633C58.6267 10.9633 56.3867 13.1053 56.3867 16.0033C56.3867 18.9013 58.6267 21.0433 61.6647 21.0433ZM61.6647 19.4473C59.6907 19.4473 58.2207 18.0053 58.2207 16.0033C58.2207 14.0013 59.6907 12.5593 61.6647 12.5593C63.6387 12.5593 65.1087 14.0013 65.1087 16.0033C65.1087 18.0053 63.6387 19.4473 61.6647 19.4473Z" fill="white"/>
</svg>
