<svg width="109" height="42" viewBox="0 0 109 42" fill="none" xmlns="http://www.w3.org/2000/svg">
<path d="M0 10C0 4.47715 4.47715 0 10 0H99C104.523 0 109 4.47715 109 10V32C109 37.5228 104.523 42 99 42H0V10Z" fill="#B6FF00"/>
<path d="M27.6332 27.18C29.7032 27.18 31.4672 26.442 32.6372 25.074L31.1252 23.634C30.2072 24.642 29.0732 25.128 27.7592 25.128C25.1492 25.128 23.2592 23.292 23.2592 20.7C23.2592 18.108 25.1492 16.272 27.7592 16.272C29.0732 16.272 30.2072 16.758 31.1252 17.748L32.6372 16.326C31.4672 14.958 29.7032 14.22 27.6512 14.22C23.7812 14.22 20.9012 16.938 20.9012 20.7C20.9012 24.462 23.7812 27.18 27.6332 27.18ZM43.1439 27H45.7899L41.3259 20.502L45.6279 14.4H43.1439L39.5259 19.674H37.1139V14.4H34.8099V27H37.1139V21.69H39.4539L43.1439 27ZM53.1751 27.18C57.0811 27.18 59.9611 24.444 59.9611 20.7C59.9611 16.956 57.0811 14.22 53.1751 14.22C49.2691 14.22 46.3891 16.974 46.3891 20.7C46.3891 24.426 49.2691 27.18 53.1751 27.18ZM53.1751 25.128C50.6371 25.128 48.7471 23.274 48.7471 20.7C48.7471 18.126 50.6371 16.272 53.1751 16.272C55.7131 16.272 57.6031 18.126 57.6031 20.7C57.6031 23.274 55.7131 25.128 53.1751 25.128ZM67.7322 14.4H62.5482V27H64.8882V23.364H67.7322C71.0442 23.364 73.0962 21.654 73.0962 18.882C73.0962 16.092 71.0442 14.4 67.7322 14.4ZM67.6242 21.384H64.8882V16.38H67.6242C69.6762 16.38 70.7382 17.298 70.7382 18.882C70.7382 20.466 69.6762 21.384 67.6242 21.384ZM81.3177 27.18C85.2237 27.18 88.1037 24.444 88.1037 20.7C88.1037 16.956 85.2237 14.22 81.3177 14.22C77.4117 14.22 74.5317 16.974 74.5317 20.7C74.5317 24.426 77.4117 27.18 81.3177 27.18ZM81.3177 25.128C78.7797 25.128 76.8897 23.274 76.8897 20.7C76.8897 18.126 78.7797 16.272 81.3177 16.272C83.8557 16.272 85.7457 18.126 85.7457 20.7C85.7457 23.274 83.8557 25.128 81.3177 25.128Z" fill="white"/>
</svg>
