<svg width="65" height="66" viewBox="0 0 65 66" fill="none" xmlns="http://www.w3.org/2000/svg">
<rect width="64.975" height="65.1303" rx="32.4875" fill="#FCB8FF"/>
<path d="M44.975 45.1303L39.0783 39.1863M31.173 26.6132V31.2425M31.173 31.2425V35.8718M31.173 31.2425H35.7737M31.173 31.2425H26.5724M42.3461 31.2425C42.3461 34.2242 41.1689 37.0838 39.0736 39.1921C36.9782 41.3005 34.1363 42.485 31.173 42.485C28.2098 42.485 25.3679 41.3005 23.2725 39.1921C21.1772 37.0838 20 34.2242 20 31.2425C20 28.2608 21.1772 25.4012 23.2725 23.2929C25.3679 21.1845 28.2098 20 31.173 20C34.1363 20 36.9782 21.1845 39.0736 23.2929C41.1689 25.4012 42.3461 28.2608 42.3461 31.2425ZM42.3461 31.2425L-nan -nanC-nan -nan -nan -nan -nan -nanL-nan -nanC-nan -nan -nan -nan -nan -nanL42.3461 31.2425Z" stroke="white" stroke-width="2.11667" stroke-linecap="round"/>
</svg>
