<svg width="65" height="66" viewBox="0 0 65 66" fill="none" xmlns="http://www.w3.org/2000/svg">
<rect y="0.130249" width="64.975" height="65.1303" rx="32.4875" fill="#E582EA"/>
<path d="M44.975 45.2605L39.0783 39.3166M31.173 26.7435V31.3727M31.173 31.3727V36.002M31.173 31.3727H35.7737M31.173 31.3727H26.5724M42.3461 31.3727C42.3461 34.3544 41.1689 37.214 39.0736 39.3224C36.9782 41.4308 34.1363 42.6152 31.173 42.6152C28.2098 42.6152 25.3679 41.4308 23.2725 39.3224C21.1772 37.214 20 34.3544 20 31.3727C20 28.391 21.1772 25.5315 23.2725 23.4231C25.3679 21.3147 28.2098 20.1302 31.173 20.1302C34.1363 20.1302 36.9782 21.3147 39.0736 23.4231C41.1689 25.5315 42.3461 28.391 42.3461 31.3727ZM42.3461 31.3727L-nan -nanC-nan -nan -nan -nan -nan -nanL-nan -nanC-nan -nan -nan -nan -nan -nanL42.3461 31.3727Z" stroke="white" stroke-width="2.11667" stroke-linecap="round"/>
</svg>
