<svg width="39" height="30" viewBox="0 0 39 30" fill="none" xmlns="http://www.w3.org/2000/svg">
<path d="M6.47883 2.14711C7.74919 0.56503 9.06189 -0.142742 10.4169 0.0237901C11.8567 0.190322 12.8306 0.898095 13.3388 2.14711C13.8469 3.39611 13.4658 4.81166 12.1954 6.39373C11.1792 7.72601 10.3746 9.05828 9.78176 10.3906C9.18892 11.6396 8.76547 12.8886 8.5114 14.1376C10.798 14.3041 12.6612 15.0952 14.101 16.5107C15.5407 17.9262 16.2606 19.7998 16.2606 22.1312C16.2606 24.3795 15.4984 26.253 13.9739 27.7518C12.5342 29.2506 10.6287 30 8.25733 30C5.63192 30 3.59935 29.1673 2.15961 27.502C0.71987 25.7534 0 23.297 0 20.1328C0 17.385 0.423453 14.4707 1.27036 11.3898C2.20195 8.30888 3.93811 5.228 6.47883 2.14711ZM29.2182 2.14711C30.4886 0.56503 31.8013 -0.142742 33.1564 0.0237901C34.5961 0.190322 35.57 0.898095 36.0782 2.14711C36.5863 3.39611 36.2052 4.81166 34.9349 6.39373C33.9186 7.72601 33.114 9.05828 32.5212 10.3906C31.9283 11.6396 31.5049 12.8886 31.2508 14.1376C33.5375 14.3041 35.4007 15.0952 36.8404 16.5107C38.2801 17.9262 39 19.7998 39 22.1312C39 24.3795 38.2378 26.253 36.7134 27.7518C35.2736 29.2506 33.3681 30 30.9967 30C28.3713 30 26.3388 29.1673 24.899 27.502C23.4593 25.7534 22.7394 23.297 22.7394 20.1328C22.7394 17.385 23.1629 14.4707 24.0098 11.3898C24.9414 8.30888 26.6775 5.228 29.2182 2.14711Z" fill="#A882E1"/>
</svg>
