<svg width="56" height="48" viewBox="0 0 56 48" fill="none" xmlns="http://www.w3.org/2000/svg">
<path d="M54.4489 19.6332C54.6552 19.8347 54.8192 20.0756 54.9309 20.3415C55.0427 20.6075 55.1 20.8931 55.0996 21.1816C55.0992 21.4701 55.0409 21.7556 54.9283 22.0212C54.8158 22.2868 54.6511 22.5272 54.4441 22.7281L29.2052 47.3262C28.762 47.7582 28.1675 48 27.5486 48C26.9296 48 26.3351 47.7582 25.8919 47.3262L0.652999 22.7281C0.446307 22.5268 0.282023 22.2862 0.169848 22.0204C0.0576735 21.7547 -0.000115379 21.4691 -0.000115367 21.1806C-0.000115354 20.8921 0.0576735 20.6066 0.169849 20.3408C0.282024 20.075 0.446307 19.8344 0.652999 19.6331C1.07688 19.2191 1.64591 18.9873 2.23844 18.9873C2.83098 18.9873 3.4 19.2191 3.82389 19.6331L27.5486 42.7645L51.2827 19.6332C51.7064 19.2205 52.2744 18.9896 52.8658 18.9896C53.4572 18.9896 54.0252 19.2205 54.4489 19.6332ZM54.4489 0.645819C54.6552 0.847383 54.8192 1.08825 54.9309 1.3542C55.0427 1.62016 55.1 1.9058 55.0996 2.19429C55.0992 2.48277 55.0409 2.76824 54.9284 3.03385C54.8158 3.29946 54.6511 3.53982 54.4441 3.74075L29.2052 28.3388C28.762 28.7709 28.1675 29.0127 27.5486 29.0127C26.9296 29.0127 26.3351 28.7709 25.8919 28.3388L0.653 3.74075C0.446308 3.5395 0.282024 3.29889 0.169849 3.03311C0.0576743 2.76733 -0.000114549 2.48177 -0.000114537 2.19328C-0.000114524 1.9048 0.0576743 1.61924 0.169849 1.35346C0.282024 1.08768 0.446308 0.847064 0.653 0.645817C1.07688 0.231787 1.64591 -2.33654e-06 2.23845 -2.31063e-06C2.83098 -2.28473e-06 3.40001 0.231787 3.82389 0.645817L27.5486 23.7771L51.2827 0.645819C51.7064 0.233209 52.2744 0.00231427 52.8658 0.0023143C53.4572 0.00231432 54.0252 0.233209 54.4489 0.645819Z" fill="#E582EA"/>
</svg>
