<svg width="70" height="70" viewBox="0 0 70 70" fill="none" xmlns="http://www.w3.org/2000/svg">
<path d="M35 70C15.67 70 -8.4494e-07 54.33 0 35C8.4494e-07 15.67 15.67 -8.44939e-07 35 0C54.33 8.4494e-07 70 15.67 70 35C70 54.33 54.33 70 35 70Z" fill="#FFD990"/>
<path d="M41.9607 37.9608C41.7556 38.1658 41.4774 38.281 41.1874 38.281C40.8974 38.281 40.6192 38.1658 40.4141 37.9608L35 32.5467L29.586 37.9608C29.3797 38.16 29.1034 38.2703 28.8166 38.2678C28.5299 38.2653 28.2555 38.1503 28.0527 37.9475C27.8499 37.7447 27.7349 37.4704 27.7324 37.1836C27.7299 36.8968 27.8402 36.6205 28.0394 36.4142L34.2268 30.2269C34.4319 30.0218 34.71 29.9067 35 29.9067C35.2901 29.9067 35.5682 30.0218 35.7733 30.2269L41.9607 36.4142C42.1657 36.6193 42.2809 36.8975 42.2809 37.1875C42.2809 37.4775 42.1657 37.7557 41.9607 37.9608Z" fill="white"/>
</svg>
