<svg width="64" height="64" viewBox="0 0 64 64" fill="none" xmlns="http://www.w3.org/2000/svg">
<path d="M64 32C64 49.6731 49.6731 64 32 64C14.3269 64 0 49.6731 0 32C0 14.3269 14.3269 0 32 0C49.6731 0 64 14.3269 64 32Z" fill="#EBEBEB" fill-opacity="0.8"/>
<path d="M18 23.5C18 22.6716 18.6716 22 19.5 22H44.5C45.3284 22 46 22.6716 46 23.5C46 24.3284 45.3284 25 44.5 25H19.5C18.6716 25 18 24.3284 18 23.5Z" fill="#7730DF"/>
<path d="M18 32.5C18 31.6716 18.6716 31 19.5 31H44.5C45.3284 31 46 31.6716 46 32.5C46 33.3284 45.3284 34 44.5 34H19.5C18.6716 34 18 33.3284 18 32.5Z" fill="#7730DF"/>
<path d="M18 41.5C18 40.6716 18.6716 40 19.5 40H44.5C45.3284 40 46 40.6716 46 41.5C46 42.3284 45.3284 43 44.5 43H19.5C18.6716 43 18 42.3284 18 41.5Z" fill="#7730DF"/>
</svg>
