<svg width="40" height="40" viewBox="0 0 40 40" fill="none" xmlns="http://www.w3.org/2000/svg">
<g clip-path="url(#clip0_167_59707)">
<path d="M9.02918 36.875L9.78145 37.25C12.9163 39.125 16.4271 40 19.938 40C30.9721 40 40 31 40 20C40 14.7501 37.8683 9.62503 34.1068 5.87497C30.3451 2.12492 25.3295 0 19.938 0C8.90389 0 -0.124175 8.99999 0.00129214 20.1251C0.00129214 23.875 1.12978 27.5001 3.01053 30.625L3.51204 31.3751L1.506 38.7501L9.02918 36.875Z" fill="#00E676"/>
<path d="M9.02918 36.875L9.78145 37.25C12.9163 39.125 16.4271 40 19.938 40C30.9721 40 40 31 40 20C40 14.7501 37.8683 9.62503 34.1068 5.87497C30.3451 2.12492 25.3295 0 19.938 0C8.90389 0 -0.124175 8.99999 0.00129214 20.1251C0.00129214 23.875 1.12978 27.5001 3.01053 30.625L3.51204 31.3751L1.506 38.7501L9.02918 36.875Z" fill="black" fill-opacity="0.2"/>
<path d="M28.5564 23.7012L29.7554 24.2399C29.9733 24.3475 30.0824 24.4554 30.0824 24.4554V25.2095L30.0819 25.2117C29.973 25.7495 29.8641 26.2873 29.6464 26.7176C29.5374 26.9332 29.3194 27.1486 29.1014 27.3641C28.8835 27.5795 28.6655 27.6872 28.4475 27.9026L28.2294 28.1182C28.0114 28.3337 27.7935 28.3337 27.4666 28.5491C27.0305 28.7645 26.3766 28.98 25.8316 28.98H24.7418C24.4147 28.8722 23.9788 28.8722 23.6518 28.7645C20.7089 28.0104 18.0932 26.6099 15.8043 24.6706C15.5863 24.3476 15.2593 24.1321 14.9324 23.8089L14.4964 23.378C12.7524 21.7621 11.4446 19.9306 10.4636 17.8838L10.3546 17.5605C10.0275 16.8064 9.80957 15.9445 9.80957 15.0827C9.80957 13.8977 11.0085 11.7431 11.0085 11.7431C11.0085 11.7431 11.3116 11.3214 11.5535 11.0966C11.8206 10.8483 11.9739 10.6831 12.3164 10.5581C12.5596 10.4693 12.9705 10.4503 12.9705 10.4503C12.9705 10.4503 13.8424 10.3425 14.1694 10.4503C14.4964 10.5581 14.7143 10.6657 14.9324 10.9889C15.2593 11.6353 16.5672 14.544 16.6761 15.0827C16.7852 15.4059 16.6761 15.8368 16.4582 16.1601C16.2402 16.3755 16.1313 16.6986 15.9132 16.9142C15.5863 17.2373 15.1504 17.776 15.1504 17.776C15.0413 17.8838 15.0413 18.0992 15.0413 18.3147C15.1504 18.5301 15.1504 18.6377 15.2593 18.7455L15.3683 18.961C15.9132 19.9306 16.6761 20.7925 17.4391 21.5466C17.6571 21.7621 17.9841 21.9775 18.2021 22.193C19.0741 23.0547 20.1639 23.7012 21.3629 24.2399L21.9079 24.4554C22.0169 24.563 22.2349 24.6708 22.3438 24.6708H22.4529C22.6708 24.6708 22.8888 24.563 22.9979 24.3476C24.5238 22.6238 24.6327 22.5162 24.6327 22.5162C24.8507 22.4084 25.0686 22.3006 25.3957 22.3006C25.5047 22.3006 25.6136 22.4084 25.7227 22.4084C26.8127 22.9471 28.5564 23.7012 28.5564 23.7012Z" fill="white"/>
</g>
<defs>
<clipPath id="clip0_167_59707">
<rect width="40" height="40" fill="white"/>
</clipPath>
</defs>
</svg>
