<svg width="99" height="76" viewBox="0 0 99 76" fill="none" xmlns="http://www.w3.org/2000/svg">
<path fill-rule="evenodd" clip-rule="evenodd" d="M35.905 34.5135C37.2932 33.636 38.9513 32.1318 39.9442 30.8754C40.3213 30.3983 40.6464 29.9343 41.0035 29.4981C42.1677 30.2014 43.6503 31.6593 44.5695 32.7039C49.3663 38.1559 50.1827 46.4809 46.4132 53.2451C44.1886 57.2371 39.7816 60.7816 34.8054 61.8491C27.1134 63.4991 20.2708 60.5521 15.9193 54.5698C12.6697 50.102 11.8397 43.9859 13.6726 38.4428C13.9443 37.6211 14.3196 36.834 14.6947 36.0958C15.0343 35.4275 15.7163 34.4706 15.9072 33.9447C16.4542 34.1343 18.5169 35.5011 20.8011 35.9907C23.5727 36.5846 25.0539 36.7259 27.9319 36.7249C31.1526 36.7239 33.7133 35.8986 35.905 34.5133V34.5135ZM14.1777 63.4901C13.0579 63.2438 12.1596 63.8782 11.9362 64.8137C11.37 67.1842 14.8468 68.1406 15.5351 65.6849C15.8289 64.6368 15.001 63.6712 14.1777 63.4901ZM3.18173 34.4486C3.86374 32.7359 1.12819 31.7341 0.526813 33.4626C-0.0841434 35.2184 2.48158 36.2071 3.18173 34.4486ZM36.4553 43.6222C36.5876 44.8162 37.6752 45.8355 39.1059 45.6554C40.2655 45.5097 41.2919 44.4073 41.1192 43.0384C40.7493 40.1057 36.1053 40.4632 36.4553 43.6222ZM25.1235 48.3834C26.2428 48.1444 27.2412 46.953 26.8707 45.5018C26.1328 42.6125 21.6269 43.5569 22.3089 46.6412C22.5402 47.6873 23.6596 48.6959 25.1235 48.3834ZM27.775 56.5548C31.3408 57.5248 35.1872 56.9475 38.1878 54.9078C39.1621 54.2455 41.0402 52.7269 41.4536 51.7507C41.8383 50.842 41.1209 49.9396 40.2586 49.9201C38.7735 49.8864 38.4614 52.4257 34.5087 53.7798C28.0922 55.9781 25.2193 51.0537 24.2758 53.6871C23.6807 55.3479 26.4181 56.186 27.775 56.555V56.5548ZM52.7036 73.1166C53.789 69.1297 47.8918 67.614 46.8331 71.428C45.7105 75.4717 51.7072 76.777 52.7036 73.1166ZM80.2442 62.98C79.612 64.2474 81.4994 65.1002 82.0704 63.8271C82.6268 62.5865 80.7601 61.9456 80.2442 62.98ZM65.7442 54.0349C62.0959 54.2511 60.6123 53.0865 58.4362 51.6087C57.6302 51.0614 56.7132 51.3904 56.3956 52.0673C55.6709 53.6125 58.3112 54.8928 59.4 55.4152C62.7121 57.0045 66.5666 57.2132 69.9696 55.7362C71.044 55.2699 73.4157 53.9679 73.7923 53.1443C74.2251 52.1976 73.548 51.2327 72.6089 51.2297C72.069 51.2281 71.717 51.5547 71.4591 51.7665C69.9579 52.9998 67.8973 53.9075 65.7444 54.0351L65.7442 54.0349ZM60.5512 45.0156C60.8444 43.6693 59.9365 42.5004 58.8507 42.2489C57.4042 41.9138 56.2054 42.8634 55.9622 43.9847C55.2887 47.0919 59.8976 48.0161 60.551 45.0154L60.5512 45.0156ZM74.9992 45.0156C75.3284 43.7082 74.3615 42.4836 73.2859 42.2404C71.8148 41.9078 70.647 42.8611 70.412 43.9978C69.7842 47.0333 74.2319 48.0608 74.9992 45.0156ZM94.4137 40.4869C95.0068 39.102 92.7984 38.1929 92.2281 39.5234C91.5502 41.1045 93.828 41.855 94.4137 40.4869ZM84.6955 16.5796C80.8264 13.5652 72.403 14.0358 71.5503 20.0369C71.4878 20.4774 71.4022 21.7956 71.5695 22.2548C71.6564 22.4932 71.5974 22.3681 71.7187 22.5167C74.3445 19.3893 78.8156 23.765 80.3761 24.9568C80.7791 25.2645 80.9033 25.4723 81.2734 25.8006C81.6001 26.0902 81.8133 26.2698 82.1302 26.5718C83.4994 27.8767 85.9647 30.5494 87.1491 31.3183C88.6865 32.3166 90.1164 32.8826 92.3129 32.4051C93.9553 32.0482 95.6925 30.9849 96.5004 30.0748C97.5237 28.9223 98.2487 27.3994 98.3053 25.2769C98.3443 23.8186 97.8788 20.8337 97.2201 19.8714C97.0395 21.0567 95.5519 22.7221 94.8657 23.2145C93.4637 24.2207 91.4944 22.9863 90.569 22.3248C87.7209 20.2888 87.0522 18.4154 84.6955 16.5794V16.5796ZM64.5483 12.5576C62.1872 13.3211 63.2432 16.8447 65.6504 16.1219C67.9567 15.4294 66.9419 11.7834 64.5483 12.5576ZM53.5411 22.0236C54.4096 19.6901 50.9558 18.4142 50.0418 20.636C49.071 22.9965 52.6747 24.351 53.5411 22.0236ZM47.4482 0.816262C43.3832 1.46506 44.254 7.3198 48.2227 6.86225C49.7691 6.68389 51.0816 5.22541 50.8574 3.44969C50.6682 1.95274 49.2127 0.534584 47.4484 0.816262H47.4482ZM41.5384 11.6375C40.2415 12.2894 41.3769 14.1541 42.5303 13.3714C43.6482 12.6129 42.6268 11.0903 41.5384 11.6375ZM25.3102 16.2175C25.5642 18.1639 28.828 17.9926 28.5721 15.7986C28.3181 13.6196 25.0253 14.0362 25.3102 16.2175ZM50.5609 51.3418C52.3117 46.3319 52.007 42.9079 50.8441 37.9988L51.434 37.9917C52.5973 37.9907 53.7609 37.9915 54.9245 37.9915C55.7749 37.9915 57.6044 38.2846 58.0514 37.6851C58.5613 37.001 60.3466 33.9586 60.8909 33.5863L62.9965 37.9936L71.5622 37.9913C72.1761 37.9928 72.6783 36.2033 73.1911 35.8113C73.5001 36.0568 73.6285 36.3168 73.9383 36.6068C75.4278 38.0011 74.4207 37.9946 76.6814 37.9917C78.5818 37.9892 80.4822 37.9938 82.3825 37.9921C82.7387 38.2443 82.7587 38.7274 82.8683 39.1681C85.6713 50.4379 77.0519 61.4878 65.5122 61.4793H65.396C58.7373 61.4743 54.0287 58.0775 51.3017 54.7866C51.0252 54.4529 50.369 53.6254 50.1652 53.2408C49.8558 52.6571 50.3302 52.0029 50.5611 51.3418H50.5609ZM72.6349 63.1635C74.9281 62.2952 76.5216 61.3038 78.1788 60.0958C79.8491 58.8783 81.1225 57.4325 82.3661 55.7938C90.5209 45.0468 85.9949 27.9559 71.4701 23.3877C65.5471 21.5249 59.2329 22.5776 54.1733 25.6848C52.0293 27.0015 51.2571 27.8715 49.5592 29.5586C49.2917 29.8245 48.8835 30.3927 48.6307 30.7273C48.2846 31.1853 48.0523 31.6198 47.6836 31.9116C45.8151 28.7182 41.6418 26.5839 41.1215 25.8178C39.0792 22.8117 35.8267 22.1564 32.1157 22.2995C25.0678 22.5712 19.1024 25.1175 12.3534 23.3906C11.4732 23.1655 10.7962 22.8146 10.0219 22.5951C10.1654 24.4749 10.5934 26.2529 11.225 27.8964C12.2096 30.4579 13.3648 31.3826 13.6743 32.01C10.5468 36.7642 8.73285 41.9275 10.214 48.8701C10.8199 51.7099 12.1467 54.371 13.4792 56.3045C14.9387 58.4218 16.7434 60.0761 18.7974 61.566C22.9482 64.5769 29.72 66.2346 35.8629 64.6624C41.0575 63.3327 45.3288 60.2382 48.3094 55.8551C48.639 56.1029 49.0212 56.7519 49.2729 57.0431C50.3363 58.2727 50.2725 58.1709 51.4327 59.1851C57.1193 64.156 65.3951 65.9053 72.6354 63.1635H72.6349Z" fill="#7730DF"/>
</svg>
