<svg width="85" height="75" viewBox="0 0 85 75" fill="none" xmlns="http://www.w3.org/2000/svg">
<path fill-rule="evenodd" clip-rule="evenodd" d="M63.9792 48.3307C64.1286 48.1076 65.9453 46.7255 66.3634 46.4456V51.602L66.1904 51.4422C66.0927 51.3419 66.1253 51.3818 66.0403 51.2597C65.9345 51.1078 65.8547 50.9692 65.7533 50.8258L63.9792 48.3307ZM59.1001 51.6574V46.4456C59.2747 46.4922 59.8475 46.9439 60.0087 47.0894C60.0172 47.097 60.029 47.1084 60.0373 47.1163L60.1448 47.2305C60.2418 47.3272 60.1778 47.2767 60.2951 47.3574L61.2071 48.0534C61.3515 48.1651 61.3586 48.2269 61.5396 48.2753L60.6659 49.5639C60.2263 50.0503 59.8512 50.6896 59.4483 51.2295C59.3263 51.393 59.2598 51.5504 59.1001 51.6574ZM27.441 43.6733C27.441 43.4642 28.3841 43.0819 28.6053 43.0635V46.2793C28.3657 46.2739 28.2849 46.2134 28.0561 46.1632C27.8443 46.1167 27.7014 46.0575 27.441 46.0575V43.6733ZM59.1001 41.7882C59.6447 41.8335 60.4916 42.2318 61.9278 42.2318C63.3656 42.2318 63.6045 42.2968 65.0254 42.0582C65.3422 42.0051 66.1219 41.8486 66.3633 41.7328V44.2278L65.4336 44.906C65.0986 45.1828 62.915 46.9437 62.704 47.0001L60.5021 45.2653C60.2674 45.0901 59.2774 44.2752 59.1 44.2278L59.1001 41.7882ZM11.0293 37.9071L12.5029 39.982C13.5041 41.2709 13.3026 39.9799 13.3025 42.7863C13.3025 43.9349 13.4889 45.4345 13.7341 46.4026C13.9028 47.0691 14.1048 46.8222 12.5304 47.1705C12.2608 47.2302 12.084 47.3327 11.7501 47.3327L11.2744 45.3134C11.1478 44.6121 11.0262 43.7918 11.0292 43.0082C11.0355 41.3083 11.0293 39.6071 11.0293 37.9071ZM15.0214 42.2318C15.5822 42.5286 15.7567 42.7453 16.2957 43.0089C16.6319 43.1733 17.6273 43.5267 17.6273 43.7288C17.6273 46.3338 17.7908 45.9758 17.1837 46.1129C16.998 46.1548 16.8591 46.1987 16.6513 46.2458C16.313 46.3225 15.8103 46.4769 15.5204 46.501C15.5057 46.324 15.4477 46.1819 15.4247 46.0422L15.0214 42.2318ZM56.3278 40.6793C56.3283 40.6795 57.3813 41.0954 57.3813 41.2892V43.7843C57.3813 44.008 56.6995 44.0999 56.4941 44.1169C56.4941 43.5272 56.5207 41.111 56.3278 40.6793ZM50.9497 29.0913V25.0439C50.9497 24.1066 51.4492 22.5424 51.7996 21.9572L51.8915 21.8273C51.8984 21.818 51.9088 21.8054 51.9156 21.796C51.9225 21.7866 51.9327 21.7739 51.9395 21.7644C52.1752 21.4329 52.2864 21.2209 52.5987 20.8712C52.9917 20.4312 52.9905 20.3962 53.4675 20.0212C53.6334 19.8909 53.7865 19.7754 53.9433 19.6653L54.4447 19.335C55.1865 18.8692 56.7125 18.4976 57.8816 18.5026C58.2961 18.5044 59.0538 18.4172 59.3924 18.3501C60.698 18.0914 60.5681 18.1939 61.9823 17.5578C62.7463 17.2142 63.4076 16.769 64.0523 16.2457C64.3736 15.9848 65.0968 15.2992 65.3422 14.9852L66.0406 14.0202C66.1718 13.8274 66.2874 13.7075 66.4188 13.5113C66.9431 13.5113 69.529 13.5288 69.9275 13.6619C70.1941 13.751 70.6154 13.8992 70.8231 14.0415C71.3952 14.4337 71.6505 14.7742 71.9635 15.3962C72.81 17.0776 71.6016 18.8792 73.0529 21.7365C73.6312 22.8752 74.4028 23.5076 74.4028 25.3765C74.4028 26.7738 74.4778 29.0728 74.2953 30.3699L73.7538 32.7116C73.6749 32.8965 73.6182 33.0202 73.5398 33.2184C73.4546 33.4338 73.3957 33.5169 73.3166 33.716C72.8599 34.8664 71.8269 36.2344 70.9515 37.1171C70.7934 37.2765 70.74 37.3183 70.5688 37.4553C70.4205 37.5741 70.3438 37.6774 70.1894 37.7967L68.9375 38.7071C68.6011 38.9541 67.916 39.27 67.5284 39.4604C67.1754 39.6337 66.8967 39.7715 66.4966 39.8701C66.1001 39.9678 65.7589 40.0779 65.3723 40.1874C63.5517 40.7029 61.2965 40.5711 59.5067 40.0508C58.2891 39.6969 58.098 39.5638 56.956 38.9976C55.795 38.422 55.809 38.2725 55.52 37.5504C55.4741 37.4357 55.4703 37.4193 55.4255 37.3122L55.0905 36.5384C54.1719 34.7156 53.8903 34.5825 52.732 33.1306C52.1959 32.4585 51.4347 32.091 51.3233 31.6562C51.1424 30.9502 50.9497 29.9924 50.9497 29.0913ZM47.2903 26.6518C47.4274 26.7522 47.6659 27.2781 48.0972 27.6191C48.3992 27.8577 48.8362 28.2232 49.2309 28.3151C49.2309 28.7713 49.1999 29.2749 49.2863 29.6458C49.0321 29.6246 48.7288 29.4202 48.4384 29.2739C48.1525 29.1299 47.512 28.2553 47.3795 27.8378C47.2574 27.4529 47.2903 27.1254 47.2903 26.6518ZM76.1217 29.6458C76.2045 29.2903 76.1771 28.8618 76.1771 28.426C76.3043 28.3649 76.3388 28.3637 76.4789 28.2842C76.7407 28.1356 77.082 27.9384 77.2733 27.7479C77.5815 27.4409 77.8397 27.1379 78.1177 26.8181C78.1177 28.1335 77.363 29.3566 76.1217 29.6458ZM49.2309 26.2637C48.856 26.0126 48.5101 25.1934 48.5101 24.5449V17.0598C48.5101 15.6653 48.6631 14.5429 48.9552 13.3466C49.0569 12.9303 48.9823 12.8662 49.2387 12.1885L50.8855 8.67892C51.4933 7.86229 52.0749 7.03572 52.7932 6.31739C53.5457 5.5649 54.4331 4.71124 55.3522 4.16353C55.5862 4.02409 55.7329 3.9565 55.9393 3.80808L56.5261 3.4523C57.0029 3.16562 58.5925 2.46978 59.1947 2.35068C60.593 2.07415 61.2762 1.70158 63.2584 1.70158C64.081 1.70158 64.6584 1.90625 65.1858 2.43563C65.544 2.79521 65.9753 3.34306 65.9753 4.03029V8.96488C65.9753 9.80476 65.4594 11.6392 65.0893 12.2928C64.0618 14.1078 63.3778 14.6272 61.6851 15.7637C61.1848 16.0996 59.5021 16.6039 58.8568 16.7057C58.0819 16.8278 57.905 16.751 57.3256 16.7823C56.5185 16.8259 55.802 16.928 55.0588 17.1768L52.8257 18.3259C52.0636 18.95 51.7575 19.07 51.0363 20.0295C50.9441 20.1522 50.8904 20.2365 50.7958 20.3435C50.3446 20.8532 49.9229 21.8142 49.6817 22.4452C49.2543 23.5634 49.2309 24.7376 49.2309 26.2637ZM67.6386 3.25402C68.1633 3.26572 69.1744 3.49618 69.5864 3.63487C69.8449 3.72191 70.1783 3.84155 70.4299 3.95571C71.2198 4.31403 71.1534 4.17874 71.9863 4.72796L72.6929 5.1857C73.1386 5.51521 73.5531 5.87282 73.9459 6.26142C74.4969 6.80658 75.6352 8.4072 75.8597 9.00496C75.9252 9.17917 75.9414 9.25849 76.0086 9.41049L76.4737 10.7197C76.6317 11.3258 76.787 12.0039 76.787 12.7351V25.3211C76.787 25.4667 76.6231 25.8265 76.5645 25.9303C76.4637 26.1091 76.3461 26.2614 76.1771 26.3745C76.1771 25.0292 76.1614 24.258 75.7634 23.1289L75.5668 22.6048C75.4418 22.3007 75.2204 21.9205 75.0356 21.6389C74.0196 20.09 73.9587 19.3082 73.9593 16.838C73.9595 16.0443 73.89 15.1058 73.4592 14.3996C73.0085 13.661 72.412 12.9883 71.6767 12.5227C71.3559 12.3196 70.5305 11.9688 70.1019 11.8797C69.3535 11.7241 68.0811 11.7925 67.195 11.7925C67.215 11.5526 67.3259 11.3442 67.394 11.1044C67.6629 10.1578 67.694 9.64368 67.694 8.57675V4.08568C67.694 3.71692 67.6386 3.60574 67.6386 3.25402ZM45.5161 26.929C45.5161 27.572 45.6249 28.1562 45.8492 28.7028L46.0705 29.2022C45.3599 28.8613 43.4226 28.7033 42.5774 28.7033C41.1889 28.7033 39.8676 28.9586 38.5648 29.2925C37.8167 29.4843 37.2219 29.8359 36.7097 30.0433C36.4882 30.133 36.2054 30.314 35.9795 30.3666C35.9795 29.4542 35.9673 28.6162 35.9244 27.7604C35.8886 27.0469 35.709 26.1486 35.5365 25.4868C35.2736 24.478 34.2649 22.2363 33.5269 21.4529C33.3958 21.3137 33.3202 21.2592 33.2062 21.1084C33.1103 20.9816 33.0226 20.8606 32.9233 20.7259L31.18 19.1425C30.6295 18.6997 29.3534 17.9412 28.6263 17.7041C28.2923 17.5951 27.9364 17.4137 27.6073 17.337C27.4694 17.6245 27.1395 18.6806 27.1083 19.0558C27.5003 19.0884 27.9296 19.2856 28.2544 19.4622C28.4061 19.5446 28.489 19.5514 28.6428 19.6282L29.3187 20.0058C29.7813 20.2562 30.1562 20.5953 30.5701 20.9167C30.7976 21.0934 30.9167 21.2286 31.1142 21.4261C32.1485 22.4605 32.9785 23.5346 33.4849 24.9326C34.3948 27.4448 34.2607 28.7562 34.2607 31.4201C34.2607 31.5566 34.2119 31.5482 34.1295 31.6216C33.5662 32.1235 33.4811 32.1165 32.7775 32.82C32.5478 33.0498 32.2618 33.2986 32.0662 33.5503L31.2106 34.6352C31.1784 34.6735 31.1518 34.704 31.1118 34.7582C30.7912 35.1934 30.5465 35.6289 30.3061 36.1149L29.8266 37.0769C29.3565 38.1416 29.0242 39.197 28.8357 40.4107C28.7957 40.6684 28.8091 40.7997 28.642 40.9378C28.0263 41.4462 26.5261 42.0845 25.6988 42.3193C25.4941 42.3774 25.3236 42.4485 25.1447 42.486C24.4367 42.634 23.252 42.7863 22.5618 42.7863C21.6641 42.7863 20.8281 42.6222 20.0573 42.5186C18.713 42.338 16.2018 41.1456 15.2837 40.2507C15.1198 40.091 15.0982 40.0456 14.8997 39.9139C14.4375 39.6072 13.5819 38.5554 13.2309 38.0897C12.332 36.8968 11.8322 35.6786 11.4106 34.2546C10.9124 32.5722 11.0293 30.5278 11.0293 28.7587C11.0293 27.5093 11.6387 25.4189 12.3375 24.3561C12.8921 23.5125 13.292 22.9211 14.0095 22.2024L15.0656 21.318L16.851 20.2757C17.6593 19.8703 17.9176 19.7179 18.6488 19.1903C19.0283 18.9164 19.3916 18.6547 19.7208 18.3218C20.3678 17.6673 20.9401 16.9976 21.4536 16.2289L22.1559 15.0461L22.708 13.6576C23.3639 11.7289 23.3381 10.7134 23.3381 8.68775C23.3381 8.55999 23.2995 8.52143 23.1718 8.52143H21.6193C21.6193 10.3696 21.5075 12.0585 20.8676 13.6468C20.7526 13.9322 20.6815 14.0644 20.5338 14.3111L19.8015 15.5747C19.534 15.9767 19.2304 16.2657 18.9346 16.6484C18.5674 17.1235 16.95 18.3326 16.3852 18.5901C15.7647 18.8731 14.6627 19.3584 14.1506 19.7931C13.7312 20.149 12.8582 20.7981 12.5426 21.1791C12.2765 21.5003 11.5701 22.227 11.3981 22.5297L11.1355 22.9878C10.6213 23.6402 10.1719 24.6974 9.91343 25.4805C9.75687 25.9548 9.54581 26.4863 9.48558 27.0487C9.41831 27.6767 9.31058 28.2093 9.31058 28.8697V42.7309C9.31058 43.3131 9.40981 44.8444 9.51525 45.4648C9.59381 45.9271 9.66825 46.2691 9.77638 46.7007C9.8707 47.0773 10.057 47.5289 10.0868 47.8873C9.21558 47.9598 7.04899 49.5502 6.49924 50.0105C6.05994 50.3783 5.4596 51.0404 5.11244 51.5069C4.81413 51.9077 4.43913 52.3219 4.23342 52.7902C4.17401 52.9254 4.20855 52.886 4.12888 53.0183C4.03341 53.1768 4.04457 53.053 3.98785 53.2654C3.73159 53.0938 3.2147 52.274 3.05584 51.9796C2.79567 51.4974 2.61472 50.9569 2.40323 50.4144C2.18174 49.8462 2.10733 49.2508 2.05018 48.5497L2.03038 47.7846C2.04505 46.7803 2.13998 45.6048 2.55473 44.7354C2.82061 44.178 3.02058 43.5765 3.38482 43.0704L3.45797 42.9772C3.89016 42.4487 4.25071 41.8555 4.79609 41.4322C4.92771 41.33 4.96958 41.2667 5.08851 41.1702C5.19689 41.0821 5.28069 41.0195 5.39926 40.9265C5.67543 40.7099 6.25901 40.0985 6.45988 39.7693C7.60886 37.8865 7.36997 36.3918 7.36997 34.0261V20.6638C7.36997 17.7149 7.35956 17.1482 8.06663 14.7071C8.12758 14.4967 8.13724 14.4746 8.20985 14.2959C8.46288 13.6731 8.51622 13.4073 8.86766 12.7359C9.61749 11.3032 9.79586 10.9752 10.825 9.70316C11.2391 9.19129 11.6748 8.70346 12.1773 8.28329L13.0679 7.51057C14.1355 6.63205 15.24 5.98105 16.5198 5.41792C18.0989 4.72308 20.3294 4.19672 22.0074 4.19672C25.1893 4.19672 25.1024 4.43881 27.5283 5.05202C27.746 5.10706 28.0117 5.22928 28.199 5.32385C28.4308 5.44084 28.614 5.5024 28.846 5.61939C29.0627 5.72863 29.2394 5.82557 29.4451 5.90747C29.88 6.08068 30.2045 6.33148 30.5902 6.59198C31.2441 7.03357 32.1979 7.60155 32.6749 8.22208C32.8485 8.44792 32.9809 8.43253 33.1952 8.6443C33.458 8.9039 33.5223 9.07473 33.8247 9.34549C34.3943 9.85542 35.1335 11.056 35.5599 11.7687C36.0417 12.574 36.0928 12.7159 36.4936 13.6073C37.1591 15.0876 37.6983 17.403 37.6983 18.9451V27.04H39.4171C39.4171 23.8121 39.5288 20.3628 39.3033 17.1738C39.2668 16.6583 39.0833 15.95 38.9626 15.463C38.7842 14.7435 38.2511 13.0529 37.8675 12.3997C37.5427 11.8467 37.3699 11.229 36.9939 10.7228C36.4015 9.92509 35.9271 9.04532 35.2455 8.31288C34.1691 7.1563 33.022 6.01295 31.6522 5.19736C31.5316 5.12557 31.4707 5.09726 31.3451 5.00539C30.6251 4.47852 29.7883 4.10516 28.957 3.73421C28.8381 3.68119 28.7181 3.62461 28.6063 3.58583C27.5665 3.22496 26.462 2.87586 25.3594 2.67442L22.8945 2.47796C21.6422 2.47796 21.2312 2.55058 20.0626 2.64008C18.5965 2.75237 16.5981 3.40667 15.2431 4.08583C14.2723 4.57244 12.9529 5.25041 12.1608 5.99357C12.1563 5.99777 12.0764 6.0715 12.0742 6.07333C11.8886 6.23179 11.612 6.35599 11.4596 6.51219C11.3221 6.65314 11.3962 6.6393 11.2284 6.77993C10.7609 7.17179 10.3405 7.63279 9.9065 8.06398C9.60242 8.36609 9.36887 8.72107 9.07061 9.05773C8.6599 9.52124 8.00747 10.5402 7.73077 11.1C7.48132 11.6046 7.26317 11.9919 7.01778 12.4939C6.89096 12.7535 6.87187 12.9511 6.74175 13.2159L6.1939 14.775C5.81136 16.2973 5.59575 17.7726 5.59575 19.3886C5.59575 24.9331 5.59575 30.4776 5.59575 36.0221C5.59575 37.42 5.46635 38.5827 4.37509 39.4588C4.21677 39.5859 4.2628 39.5843 4.12873 39.7114C3.91251 39.9165 3.74669 39.9345 3.52836 40.1645L3.03141 40.7211C2.84228 40.9096 2.67865 41.0379 2.52327 41.2664C2.36764 41.4952 2.24534 41.6269 2.10245 41.8436C1.95805 42.0626 1.83798 42.2389 1.68963 42.4843L0.993113 43.8946C0.241416 45.8097 -0.000779271 48.2829 0.582483 50.2947C0.730397 50.8048 0.773269 51.1859 1.00413 51.7027L1.59503 52.9415C1.66578 53.0773 1.75206 53.2056 1.82205 53.3243C1.9201 53.4906 1.94062 53.53 2.0721 53.6842C2.44729 54.124 2.72213 54.712 3.21158 55.0397C3.04716 55.7455 2.85063 56.3381 2.73504 57.0582C2.6243 57.748 2.60169 58.6554 2.60169 59.4198V74.8335C2.60169 74.9613 2.64026 74.9999 2.76801 74.9999H23.6708V73.2811H4.37595V58.699C4.37595 57.5974 4.59267 56.7585 4.77822 55.8301C4.87849 55.3283 5.25529 54.5777 5.50373 54.116L6.82369 52.1647C7.65051 51.138 9.36988 49.9611 10.6903 49.4888C11.591 49.1667 12.9984 48.8535 13.9535 48.6491L18.6467 47.576C18.8919 47.519 19.1206 47.4963 19.3461 47.4438V44.1726C20.0466 44.1882 20.8493 44.5052 21.7856 44.5052C23.366 44.5052 24.134 44.4742 25.6668 44.1171C25.6668 48.006 25.3899 47.3667 26.4569 47.5962C26.7298 47.6549 26.947 47.7081 27.175 47.7653C27.6666 47.8888 28.1255 47.9974 28.6053 48.1092C28.6053 49.514 28.6098 50.9196 28.604 52.3243C28.6014 52.9606 28.7556 53.6168 28.9177 54.1175C29.1611 54.8688 29.1775 54.9309 29.5862 55.6114C30.1805 56.6009 31.3191 57.7044 32.3827 58.1376C33.372 58.5406 34.2818 58.7546 35.4251 58.7546V56.9803C34.0719 56.9803 33.4522 56.8023 32.3754 56.0934C31.9196 55.7935 31.5078 55.3788 31.2218 54.9183C30.6566 54.0084 30.3796 53.355 30.3796 52.212V42.8419C30.3796 42.2909 30.4363 41.8889 30.4339 41.3991C30.4277 40.1379 31.299 37.8867 31.9139 36.7802C32.0621 36.5136 32.1808 36.2542 32.3748 36.0213L32.5205 35.8343C32.9601 35.1946 33.3495 34.6878 33.8865 34.1509C34.403 33.6345 34.9372 33.178 35.5274 32.7422C35.8199 32.5263 36.126 32.3591 36.4341 32.152C36.7522 31.9381 37.0646 31.7675 37.4441 31.6096C37.6426 31.5269 37.7659 31.4869 37.9571 31.4017C39.8742 30.5471 42.0908 30.3001 44.1826 30.5914C45.3152 30.7491 46.0945 30.9482 47.1234 31.3654C47.5759 31.5489 47.9956 31.7118 48.417 31.9569L50.4195 33.3366C51.2077 33.9488 52.3935 35.2901 52.8623 36.161C52.9353 36.2965 52.9281 36.2964 53.0007 36.4107C54.177 38.26 54.7199 40.403 54.7199 42.6201C54.7199 44.1591 54.8215 52.38 54.6337 53.2902C54.5635 53.6305 54.4488 53.8745 54.3261 54.1469C53.9771 54.9217 53.4475 55.5687 52.7644 56.0782C52.4477 56.3144 52.0475 56.5838 51.6604 56.693C51.1053 56.8496 50.5817 56.9804 49.9516 56.9804V58.7546C50.7609 58.7546 51.4763 58.571 52.1075 58.3601C53.3415 57.9477 54.4575 57.1484 55.1967 56.0711C55.6848 55.3599 55.9458 54.9369 56.1926 54.0729C56.5129 52.9514 56.4941 51.9298 56.4941 50.7151C56.4941 49.1072 56.4941 47.4993 56.4941 45.8914C56.8232 45.864 57.0078 45.7251 57.3813 45.7251V53.5982C57.3813 53.8963 57.4867 54.0568 57.6325 54.2342C57.9917 54.6712 58.364 54.5963 58.8783 54.5963C59.3225 54.5963 59.7241 53.8527 59.9638 53.5194C60.2866 53.0707 60.5607 52.656 60.8827 52.2206L61.794 50.9695C62.0965 50.6411 62.5053 50.0372 62.704 49.6617C62.8263 49.7514 62.9242 49.9311 63.0336 50.0528C63.092 50.1179 63.0621 50.0789 63.115 50.1378C63.5971 50.6746 64.4049 52.0152 64.9335 52.6994C64.9434 52.7123 64.9728 52.7483 64.9833 52.7605C64.9908 52.7691 65.0023 52.7808 65.01 52.7893C65.4349 53.2592 65.9787 54.4938 66.5922 54.5918C66.8904 54.6394 66.9345 54.6255 67.1955 54.6012C67.8186 54.5431 68.1376 53.9703 68.1376 53.321V45.7251C68.5229 45.7251 69.1772 45.917 69.5557 46.0257C69.8023 46.0965 70.0066 46.1431 70.2681 46.2005L73.8491 46.9996C74.0872 47.0569 74.2623 47.1194 74.5085 47.1718C75.9056 47.4691 77.6416 48.2086 78.7663 49.1239C79.0983 49.394 79.911 50.0438 80.1458 50.3503C80.5392 50.8636 80.966 51.2933 81.3021 51.8554C81.5354 52.2458 81.7377 52.5743 81.9615 52.9702C82.2064 53.4033 82.537 54.3503 82.6847 54.8529C82.7581 55.1029 82.7992 55.3047 82.8643 55.5605C82.9222 55.7884 82.9861 56.0757 82.9965 56.3154C83.0113 56.6553 83.0515 56.8518 83.0544 57.1446C83.0605 57.7569 83.1077 58.2159 83.1077 58.8655V73.1149C83.1077 73.2426 83.0691 73.2812 82.9414 73.2812H75.8444V58.9764H74.1256V73.2812H60.3753V75H84.8265V57.424C84.8265 55.9213 84.3679 54.1834 83.7715 52.8236C83.5647 52.3521 83.4326 51.9711 83.1603 51.5497C82.5508 50.6067 81.9293 49.668 81.1266 48.8705C80.9425 48.6876 80.81 48.6162 80.6263 48.4283C80.1723 47.9636 79.5771 47.5576 79.0278 47.1991C78.8113 47.0579 78.6546 46.986 78.4265 46.8579C78.1974 46.7292 78.0563 46.6087 77.8421 46.4997L76.5082 45.9484C76.0744 45.756 75.5489 45.6084 75.0796 45.4919L72.7619 44.9819C71.734 44.7224 70.7457 44.4208 69.6923 44.2813C69.1743 44.2128 68.6712 43.9627 68.1376 43.9509V41.2341C68.1376 41.033 68.5805 40.9019 68.7665 40.8096C69.0439 40.6719 69.2064 40.563 69.4875 40.4216C70.0821 40.1224 70.8676 39.5304 71.3664 39.0847C72.4862 38.084 73.315 37.0958 74.157 35.8873C74.5391 35.3387 74.8186 34.7179 75.0842 34.0977C75.3479 33.4821 75.8299 32.1816 75.8444 31.5312C76.702 31.3314 77.3738 31.1238 78.0709 30.5974C79.7093 29.3605 80.4413 26.876 79.4309 25.0062L78.9836 24.2336C78.7179 23.8745 78.5527 24.0328 78.5584 23.4391L78.5612 13.7889C78.5617 12.0638 78.3667 11.8224 78.2256 10.5207C78.1989 10.2748 78.0336 9.79045 77.9592 9.56723C77.8523 9.24636 77.7445 9.02013 77.6196 8.74246C77.2462 7.91244 76.8623 7.11751 76.3122 6.3905C75.4488 5.24927 74.454 4.22958 73.2492 3.46543C72.6722 3.0994 72.3241 2.87424 71.687 2.58806C70.657 2.12538 70.0287 1.93212 68.9096 1.70614C68.2869 1.5804 67.4243 1.48009 66.696 1.48009C66.6186 1.19 65.777 0.627079 65.4534 0.449496C64.2716 -0.198881 63.3459 0.0477627 62.0941 0.0385427C61.1643 0.0316547 60.2032 0.272558 59.4095 0.458823L57.6413 1.0193C57.2897 1.15721 56.873 1.29741 56.5513 1.48174C56.3836 1.57774 56.2427 1.67166 56.0499 1.75665C55.6479 1.93377 55.4054 2.07307 55.0351 2.29425L54.0766 2.88823C53.2016 3.5576 52.3584 4.26431 51.5733 5.04234C51.4032 5.21088 51.3612 5.27589 51.2105 5.4558C51.0747 5.61803 50.9688 5.69125 50.8387 5.86015C50.7257 6.00685 50.6188 6.12603 50.4885 6.28625L49.4968 7.62321C49.0735 8.25448 48.7624 8.96951 48.4076 9.63895C48.2148 10.0028 48.095 10.3095 47.9191 10.7029C47.4411 11.7719 46.8015 14.5346 46.7892 15.7828L46.7387 23.4946C46.7431 23.9591 46.7582 23.8073 46.5313 24.0634C46.4174 24.192 46.3158 24.3677 46.2137 24.5221C45.7607 25.2079 45.5161 26.077 45.5161 26.929Z" fill="#7730DF"/>
<path fill-rule="evenodd" clip-rule="evenodd" d="M54.3868 63.3008C54.68 63.456 55.2904 64.1344 55.4637 64.3863C56.2424 65.5179 56.5312 65.9806 56.8718 67.3583C57.228 68.7996 57.1036 71.6668 57.1036 73.2809H54.3868L54.3868 63.3008ZM32.5415 62.1919C32.5415 62.0236 33.1888 61.7669 33.3961 61.7159C33.6037 61.6648 33.7449 61.657 33.9502 61.6046C34.1539 61.5525 34.3425 61.4874 34.5375 61.4712L34.5373 67.1267C34.5357 67.3985 34.4512 67.7919 34.7039 67.7919H50.7829V61.5266C50.966 61.5418 51.1154 61.5984 51.2808 61.6386C51.486 61.6884 52.6681 61.9483 52.6681 62.2473V73.2809H32.5416L32.5415 62.1919ZM30.6564 73.2809H27.995C27.995 71.7055 27.8753 68.7978 28.2161 67.4031C28.2972 67.0713 28.3603 66.8645 28.4732 66.5513C28.9307 65.2822 29.1565 65.0327 29.9355 64.0215L30.8227 63.1899C30.8227 66.2635 30.7742 69.7225 30.8247 72.7838C30.8287 73.0306 30.8901 73.2809 30.6564 73.2809ZM36.2563 65.8513V61.1939C36.2563 60.9097 37.3784 60.825 37.7046 60.7571C39.3831 60.4078 38.6406 60.2838 39.7594 60.9621C41.1367 61.7972 41.7945 61.6929 43.2978 61.6929C43.9652 61.6929 44.9273 61.2054 45.4782 60.8792C45.5711 60.8242 46.062 60.4731 46.0701 60.4731C46.5137 60.4731 47.075 60.7092 47.5344 60.7831L49.0641 61.0831V66.0176H36.4227C36.2949 66.0176 36.2563 65.979 36.2563 65.8513ZM40.1929 58.0336C40.487 58.1747 42.2794 58.2554 42.7988 58.2554C43.1307 58.2554 44.7084 58.1282 44.9057 58.0336V59.1979C44.7209 59.2473 44.8314 59.2238 44.6908 59.3157L44.012 59.6903C42.7977 60.1445 41.7818 60.0927 40.6532 59.4585L40.1929 59.1979V58.0336ZM42.7988 56.5366C41.8272 56.5366 41.3269 56.52 40.3917 56.2823L39.1318 55.8789C38.2375 55.5629 38.7547 55.7279 38.0306 55.3722C37.0983 54.9143 36.2463 54.2326 35.5753 53.4474L35.375 53.2595C35.3668 53.2517 35.3549 53.2403 35.3468 53.2323L34.8038 52.5555C34.2092 51.6829 33.8471 51.1232 33.4359 50.0422C33.3779 49.8897 33.3575 49.7918 33.2942 49.6295C32.925 48.6823 32.675 47.4117 33.8709 46.9433C34.0741 46.8637 36.1947 46.6179 36.6294 46.5415C36.9053 46.493 37.2401 46.4079 37.4903 46.3489C38.0966 46.2061 38.5817 46.0853 39.1642 45.9159L39.9916 45.6899C40.4821 45.5655 42.5025 44.7374 42.9766 44.461L44.3414 43.7189C45.5201 42.9445 46.8553 41.8706 47.7004 40.7572C47.8616 40.5448 48.0802 40.3637 48.3312 40.5765C48.506 40.7246 48.591 41.9828 49.0924 42.9799C49.655 44.0985 50.2211 44.8378 51.1006 45.6845C52.2226 46.7645 52.6116 46.3616 51.9605 49.1757C51.8573 49.6218 51.4841 50.4739 51.2638 50.8632C50.9849 51.356 50.9988 51.57 50.4269 52.3549C50.2455 52.6038 50.1167 52.7793 49.9281 53.0205C49.4787 53.5953 48.6962 54.3101 48.0888 54.7297L46.9885 55.4036C46.3859 55.7686 46.4256 55.713 45.7587 55.948C44.7877 56.2901 43.9198 56.5366 42.7988 56.5366ZM31.2109 48.1644C31.2109 48.775 31.5894 50.1923 31.8314 50.7596L32.6622 52.4793C32.7515 52.6309 32.7937 52.6433 32.8923 52.8037C33.6814 54.0866 34.6242 55.1226 35.8285 56.0219C36.0507 56.1877 36.1821 56.2881 36.4195 56.4289C36.6253 56.5509 36.8668 56.6825 37.072 56.8298C38.4711 57.834 38.4187 56.6632 38.4187 58.6435C38.4187 58.8539 37.6852 58.9605 37.3607 59.027C36.941 59.113 36.5832 59.2282 36.1516 59.3149C35.9617 59.3531 35.7261 59.3734 35.5346 59.4188C34.1973 59.735 32.794 59.9875 31.5621 60.6025C31.383 60.6919 31.2512 60.7517 31.0889 60.8502C30.2024 61.3883 30.6597 61.0238 29.7529 61.7875C29.35 62.1268 28.5259 62.8849 28.2708 63.2439L27.6853 64.1C27.199 64.9017 26.5876 66.3429 26.4342 67.2845C26.1903 68.7825 26.2763 73.2925 26.2763 74.9998H58.8224C58.8224 73.5451 58.9044 68.541 58.6706 67.3339C58.3441 65.6479 57.7238 64.5716 56.8505 63.2768C56.6116 62.9226 55.3882 61.7634 54.9659 61.4466C54.4613 61.0681 54.5168 61.1608 54.0782 60.8927C52.6151 59.9986 50.6593 59.6394 48.9932 59.3243L47.2011 58.8986C46.5667 58.7438 46.68 58.996 46.68 57.59C46.68 57.3606 47.3886 57.2335 47.9363 56.9058C47.9467 56.8996 47.9605 56.8911 47.9706 56.8846L48.2291 56.6995C48.2912 56.6596 48.3375 56.6329 48.4016 56.5949L49.3974 55.9273C50.0438 55.4327 50.2936 55.1925 50.8533 54.6109C51.5089 53.9299 52.4738 52.5051 52.8717 51.6393C53.2549 50.8056 53.2727 50.8405 53.4927 50.0425C53.575 49.7439 53.6512 49.4896 53.7414 49.1822C54.0482 48.1363 54.2239 46.8377 53.6839 45.8733C53.2392 45.0791 53.0508 45.0684 52.4038 44.492C51.9955 44.1284 52.0962 44.2814 51.7333 43.8319C51.0749 43.0163 50.5636 42.2749 50.3166 41.2011C50.2564 40.9395 50.234 40.6897 50.1749 40.4557C50.0558 39.984 49.8796 39.5883 49.5472 39.3091C48.7695 38.656 47.4452 38.5444 46.6659 39.3345C46.5156 39.4868 46.4168 39.5743 46.2918 39.7366C45.6081 40.6243 44.6811 41.3915 43.7422 42.0107C42.5888 42.7715 41.2013 43.4111 39.8805 43.8599C38.5777 44.3026 38.6825 44.2436 37.3765 44.5716C36.5308 44.784 35.5896 44.9562 34.6251 45.0915C33.9799 45.182 33.6752 45.1307 33.2299 45.3042C32.0627 45.7591 31.2109 46.8801 31.2109 48.1644Z" fill="#7730DF"/>
<path fill-rule="evenodd" clip-rule="evenodd" d="M7.8125 55.7051H27.1628V53.9863H7.8125V55.7051Z" fill="#7730DF"/>
<path fill-rule="evenodd" clip-rule="evenodd" d="M61.8722 71.2296C61.8722 71.3573 61.9108 71.3959 62.0385 71.3959H63.4246C63.5523 71.3959 63.5909 71.3573 63.5909 71.2296V53.7644H61.8721L61.8722 71.2296Z" fill="#7730DF"/>
<path fill-rule="evenodd" clip-rule="evenodd" d="M38.7508 52.3228C39.1249 53.0299 39.4949 53.5193 40.1838 53.9946C40.3308 54.0959 40.4978 54.198 40.6584 54.2963C40.8328 54.403 41.007 54.4781 41.1948 54.5361C42.1512 54.8309 42.98 54.7921 43.9394 54.5728C44.3788 54.4723 45.1049 53.9937 45.4476 53.6968C45.8216 53.3728 46.4156 52.772 46.4576 52.2673C46.1741 52.2012 45.2524 51.7009 44.9606 51.5465C44.6532 52.0056 44.5742 52.2301 44.0856 52.5566C42.6911 53.4885 41.0708 52.9971 40.3032 51.5465L38.7508 52.3228Z" fill="#7730DF"/>
<path fill-rule="evenodd" clip-rule="evenodd" d="M59.5988 34.303C59.8144 35.2285 61.3102 36.299 62.482 36.299C63.2839 36.299 64.257 36.188 64.7981 35.6765C65.1676 35.3272 65.8211 34.82 65.8641 34.303C64.1536 33.3979 64.3949 33.5855 64.103 33.928C63.9331 34.1273 63.5618 34.4228 63.3398 34.4955C63.0227 34.5993 62.5573 34.5832 62.2195 34.51C61.9542 34.4526 61.5914 34.195 61.414 33.9849C61.1671 33.6928 61.379 33.4109 60.3368 33.9321C60.0794 34.0608 59.878 34.2379 59.5988 34.303Z" fill="#7730DF"/>
<path fill-rule="evenodd" clip-rule="evenodd" d="M19.4014 36.7982C19.6094 37.6908 21.0615 38.7942 22.2845 38.7942C23.4092 38.7942 24.5008 38.4556 25.137 37.5992C25.3004 37.3792 25.5474 37.0721 25.6112 36.7982L24.4579 36.2882C24.3112 36.2157 24.2501 36.1383 24.0033 36.1328C23.7949 36.9133 22.2631 37.5374 21.4064 36.6228C21.3318 36.5432 21.3504 36.5626 21.2626 36.4894C21.121 36.3715 21.0596 36.3214 21.0093 36.1328C20.4047 36.2737 19.9477 36.6709 19.4014 36.7982Z" fill="#7730DF"/>
<path fill-rule="evenodd" clip-rule="evenodd" d="M25.9992 29.3684V29.6456H27.5517C27.8573 29.6456 27.682 29.2415 27.9052 29.0011C28.0057 28.8929 28.3855 28.6963 28.5691 28.6712C29.1653 28.5896 29.5567 29.087 29.6032 29.6456C29.9174 29.6456 30.2316 29.6452 30.5458 29.6457C31.2061 29.6467 31.322 29.7625 31.322 29.313C31.322 28.6973 30.8533 28.0373 30.5403 27.7104C30.3235 27.4839 30.1123 27.3446 29.8262 27.2048C28.472 26.543 26.894 27.0806 26.2568 28.4062C26.1402 28.6487 25.9992 29.038 25.9992 29.3684Z" fill="#7730DF"/>
<path fill-rule="evenodd" clip-rule="evenodd" d="M15.4094 29.6453C15.4574 29.0686 15.7917 28.6791 16.3589 28.6662C17.003 28.6515 17.2237 29.1031 17.35 29.6453H19.0133C19.0133 28.5359 18.5983 27.7532 17.6099 27.2231C16.3295 26.5363 14.6829 27.0712 14.0405 28.2765C13.9522 28.4423 13.5907 29.4468 13.7397 29.5957C13.862 29.718 15.1252 29.6453 15.4094 29.6453Z" fill="#7730DF"/>
<path fill-rule="evenodd" clip-rule="evenodd" d="M53.8878 27.3723H55.6621C55.9759 26.0252 57.2536 26.3284 57.4632 27.0682C57.5838 27.494 57.3263 27.3723 59.266 27.3723C59.266 25.2744 57.0997 24.207 55.4624 24.9549C54.8926 25.2152 54.3893 25.7371 54.1554 26.3093C54.0931 26.4617 54.0313 26.5994 53.9846 26.8038C53.9448 26.9775 53.9633 27.215 53.8878 27.3723Z" fill="#7730DF"/>
<path fill-rule="evenodd" clip-rule="evenodd" d="M66.1972 27.2062V27.3725H67.9714C67.9714 27.0493 68.0616 26.9152 68.2318 26.7458C68.6256 26.3538 69.0934 26.3243 69.5137 26.7173C69.6809 26.8736 69.7776 27.0906 69.8011 27.3725H71.5754C71.5304 27.1798 71.5371 27.0618 71.4984 26.8396C71.4636 26.6404 71.4043 26.5164 71.3308 26.3419C71.047 25.6678 70.6603 25.3077 70.0418 24.9695C69.3257 24.578 67.6742 24.6427 67.0837 25.4314C66.9154 25.6561 66.1972 26.169 66.1972 27.2062Z" fill="#7730DF"/>
<path fill-rule="evenodd" clip-rule="evenodd" d="M32.209 39.626C32.2616 39.8228 32.3934 39.8952 32.5278 40.0281C32.9548 40.4506 35.028 42.5766 35.2585 42.731L36.4919 41.5247L33.4426 38.448C33.2194 38.5165 32.3083 39.4778 32.209 39.626Z" fill="#7730DF"/>
<path fill-rule="evenodd" clip-rule="evenodd" d="M34.0392 37.7964L34.7599 38.5726C35.2166 38.9205 35.2575 39.1319 35.5225 39.3625C35.6796 39.4993 35.7553 39.5383 35.9114 39.6944C36.0742 39.8572 36.1244 39.9536 36.2696 40.1124L37.0886 40.8458C37.3027 40.7887 38.2128 39.8243 38.3084 39.6815L35.2727 36.6183C35.0495 36.6869 34.1385 37.6481 34.0392 37.7964Z" fill="#7730DF"/>
<path fill-rule="evenodd" clip-rule="evenodd" d="M45.2393 47.7763V48.4971C45.2393 49.4763 46.9026 49.445 46.9026 48.4416V47.7208C46.9026 46.7807 45.2393 46.6289 45.2393 47.7763Z" fill="#7730DF"/>
<path fill-rule="evenodd" clip-rule="evenodd" d="M38.4189 47.998C38.4189 49.8014 40.1376 49.3579 40.1376 48.3307C40.1376 47.8354 40.1893 46.9445 39.2505 46.9445C38.7698 46.9445 38.4189 47.4027 38.4189 47.998Z" fill="#7730DF"/>
</svg>
