<svg width="71" height="79" viewBox="0 0 71 79" fill="none" xmlns="http://www.w3.org/2000/svg">
<mask id="path-1-inside-1_221_7234" fill="white">
<path fill-rule="evenodd" clip-rule="evenodd" d="M8.26608 13.9409C8.26608 12.1767 8.70087 11.2597 9.57296 10.3426L10.8498 9.29559C12.9888 8.09366 18.0764 8.53845 18.0764 13.9384C18.0764 20.058 8.26608 19.9155 8.26608 13.9384V13.9409ZM30.468 40.016C28.359 40.016 27.4195 35.6281 24.7882 35.6281C22.7717 35.6281 23.239 39.4363 23.239 41.5653C23.239 44.0616 23.239 46.5554 23.239 49.0517C20.3528 50.4361 20.6577 48.1421 20.6577 57.0554C20.6577 59.3393 21.025 73.3852 20.3204 74.5321C19.8906 75.2293 18.9535 75.759 17.964 75.5166C15.9624 75.0244 16.5272 72.3482 16.5272 69.9643C16.5272 67.0707 17.1019 54.3942 15.7725 52.6475C14.5356 51.0208 12.1617 51.0383 10.9498 52.5126C9.9053 53.782 10.3301 60.3089 10.3301 62.7352C10.3301 65.1441 10.3301 67.5554 10.3301 69.9643C10.3301 72.4656 10.7649 74.9869 8.6334 75.5142C5.72978 76.2313 5.93218 72.5381 5.93968 71.2562C5.96717 66.7208 6.28452 52.4051 5.6823 49.8263C4.74525 49.3766 3.35841 49.519 3.35841 48.5345V29.1712C3.35841 27.5119 7.42397 26.1151 9.29559 26.0726C9.86282 27.1446 10.3176 27.9967 10.9273 29.0887C10.9298 29.0937 12.719 33.784 14.7205 30.9828L17.2993 26.0751C18.5862 26.1026 20.4153 26.6848 21.3524 27.1871L28.5914 33.3742C31.3326 36.0954 32.5795 32.6445 37.3723 27.8193C37.8545 27.3345 39.8911 24.8782 41.5078 26.6548C43.2795 28.6039 40.4033 30.3256 39.6112 31.3501C38.0519 33.3667 35.7105 35.1583 33.8614 37.4747C33.1892 38.3168 31.8099 40.0185 30.468 40.0185V40.016ZM0.00499763 1.29189V21.4298C0.00499763 23.0865 3.3609 23.4988 3.3609 20.6552V3.35841H64.0296V45.4384H31.2427C28.9538 45.4384 28.9463 48.0447 30.5905 48.6719C31.2777 48.9318 32.2722 48.8043 33.0468 48.7968L65.0691 48.7868C66.6559 48.9093 67.5554 50.3386 66.7383 51.7379C65.9687 53.0548 64.4069 52.6675 62.4803 52.665H30.2082C28.369 52.6575 26.3375 52.3926 26.3375 54.2143C26.3375 55.4187 26.9397 56.0209 28.1441 56.0209H65.319C70.1417 56.0209 72.8554 48.8468 67.3855 45.9532V11.3596C67.3855 8.14613 67.9477 2.50631 66.8683 0.257378C66.2885 0.122442 66.2735 0 65.5764 0H1.29189C0.689673 0 0 0.689673 0 1.29189H0.00499763ZM35.1158 70.7389C40.2134 70.7389 39.6562 74.772 41.8251 74.777C44.2215 74.782 43.132 70.7389 48.7993 70.7389C52.5825 70.7389 53.2897 74.682 54.7365 74.8695C56.6806 75.1218 56.5507 70.7389 61.7082 70.7389C64.3245 70.7389 66.8133 73.0453 66.8708 75.6441H29.6959C30.2107 74.5721 30.8004 70.7389 35.1183 70.7389H35.1158ZM4.91017 13.4261C4.91017 25.0881 21.4323 24.1235 21.4323 14.2008V12.6515C21.4323 9.35306 17.5017 5.42243 14.2033 5.42243H12.654C8.52345 5.42243 4.91017 9.24561 4.91017 13.4261ZM48.2821 65.8337C46.9702 65.8337 45.9582 64.7717 45.9582 62.9951C45.9582 59.9166 50.8634 60.129 50.8634 63.2525C50.8634 64.8767 49.4365 65.8337 48.2821 65.8337ZM61.4483 65.8337C58.1299 65.8337 58.1299 60.6712 61.4483 60.6712C62.7227 60.6712 63.9221 62.078 63.9221 63.2525C63.9221 64.4244 62.8477 65.8337 61.4483 65.8337ZM35.3732 65.8337C32.0423 65.8337 32.0423 60.6712 35.3732 60.6712C38.4967 60.6712 38.6392 65.8337 35.3732 65.8337ZM29.436 63.2525C29.436 65.8088 30.7904 66.7108 31.7599 68.1576C27.2396 69.2096 23.8912 79 28.404 79H68.42C72.708 79 69.8993 69.3446 64.8067 68.1576C65.3515 67.413 65.1041 67.9278 65.7188 67.2631C68.0277 64.7718 67.7803 61.5083 65.5639 59.1394C65.5264 59.1019 65.4739 59.047 65.4364 59.007L64.8942 58.5172C61.4084 55.726 55.5136 58.2598 55.5136 63.2525C55.5136 65.8088 56.868 66.7108 57.8375 68.1576C56.3832 68.4975 55.796 69.5145 54.739 70.2242C54.1543 69.3521 53.0748 68.4325 51.9004 68.1576C53.1473 66.296 54.2243 66.2485 54.2243 62.9951C54.2243 61.3609 53.3697 59.9216 52.4951 59.0445C49.3041 55.846 42.6073 57.0854 42.6073 63.7697C42.6073 66.251 44.0266 66.8083 44.9312 68.1576C43.6393 68.4575 42.8322 69.2946 41.8326 69.9643C40.9681 69.3846 39.986 68.2601 38.7341 68.1576C39.4113 67.2356 42.1675 65.4239 40.9431 61.5633C38.864 55.0114 29.441 56.6606 29.441 63.2525H29.436ZM18.8211 79H18.2963C16.6646 78.9125 14.9604 78.0105 13.596 75.9939C13.2487 75.4792 13.5661 75.839 13.1712 75.3842C12.1967 79.5622 5.21253 80.5018 3.19848 75.8065C2.07152 73.1828 2.58627 56.0084 2.58627 52.4076C1.4718 51.8179 0.00499763 50.7034 0.00499763 49.0517V28.6564C0.00499763 27.5919 0.88458 26.355 1.4768 25.7403C3.29594 23.8537 7.7863 22.4618 10.59 22.4618C11.4521 22.4618 12.7614 25.5604 13.1712 26.335C14.5356 25.3355 14.3507 22.6193 16.5322 22.4893C17.7816 22.4169 21.3624 23.3839 22.3394 23.8787C24.4509 24.9507 24.2135 25.0481 25.5279 26.1101C25.9727 26.4699 26.0576 26.4674 26.5349 26.9097L30.2107 30.2057C33.754 27.8318 37.0224 20.4203 42.3449 23.234C43.152 22.0295 49.6589 15.79 51.5755 13.8759C52.4051 13.0463 53.5821 11.3596 54.9964 11.3596C55.8535 11.3596 56.2383 12.3266 56.5457 12.9089C56.2033 14.3782 54.759 15.3402 53.7695 16.3297C52.73 17.3693 51.7254 18.2363 50.8658 19.3633C49.2866 21.4323 46.243 23.5963 44.9287 25.5604C45.1236 26.395 45.4459 27.1621 45.4459 28.1416C45.4459 31.4776 40.7981 34.741 39.029 36.9575C38.0594 38.1719 36.4752 39.5612 35.3107 40.7282C30.608 45.4334 29.5085 42.7922 26.8547 42.0825C26.8547 44.2215 27.0771 46.6329 26.7173 48.6594C26.5224 49.7614 26.3375 50.491 25.8327 51.1307C25.4604 51.603 24.6733 52.2352 24.0136 52.4101C24.0136 57.8325 24.0136 63.2525 24.0136 68.6749C24.0136 71.3686 24.3085 74.1423 23.3314 75.9964C22.4094 77.7456 20.6927 78.9025 18.8186 79H18.8211Z"/>
</mask>
<path fill-rule="evenodd" clip-rule="evenodd" d="M8.26608 13.9409C8.26608 12.1767 8.70087 11.2597 9.57296 10.3426L10.8498 9.29559C12.9888 8.09366 18.0764 8.53845 18.0764 13.9384C18.0764 20.058 8.26608 19.9155 8.26608 13.9384V13.9409ZM30.468 40.016C28.359 40.016 27.4195 35.6281 24.7882 35.6281C22.7717 35.6281 23.239 39.4363 23.239 41.5653C23.239 44.0616 23.239 46.5554 23.239 49.0517C20.3528 50.4361 20.6577 48.1421 20.6577 57.0554C20.6577 59.3393 21.025 73.3852 20.3204 74.5321C19.8906 75.2293 18.9535 75.759 17.964 75.5166C15.9624 75.0244 16.5272 72.3482 16.5272 69.9643C16.5272 67.0707 17.1019 54.3942 15.7725 52.6475C14.5356 51.0208 12.1617 51.0383 10.9498 52.5126C9.9053 53.782 10.3301 60.3089 10.3301 62.7352C10.3301 65.1441 10.3301 67.5554 10.3301 69.9643C10.3301 72.4656 10.7649 74.9869 8.6334 75.5142C5.72978 76.2313 5.93218 72.5381 5.93968 71.2562C5.96717 66.7208 6.28452 52.4051 5.6823 49.8263C4.74525 49.3766 3.35841 49.519 3.35841 48.5345V29.1712C3.35841 27.5119 7.42397 26.1151 9.29559 26.0726C9.86282 27.1446 10.3176 27.9967 10.9273 29.0887C10.9298 29.0937 12.719 33.784 14.7205 30.9828L17.2993 26.0751C18.5862 26.1026 20.4153 26.6848 21.3524 27.1871L28.5914 33.3742C31.3326 36.0954 32.5795 32.6445 37.3723 27.8193C37.8545 27.3345 39.8911 24.8782 41.5078 26.6548C43.2795 28.6039 40.4033 30.3256 39.6112 31.3501C38.0519 33.3667 35.7105 35.1583 33.8614 37.4747C33.1892 38.3168 31.8099 40.0185 30.468 40.0185V40.016ZM0.00499763 1.29189V21.4298C0.00499763 23.0865 3.3609 23.4988 3.3609 20.6552V3.35841H64.0296V45.4384H31.2427C28.9538 45.4384 28.9463 48.0447 30.5905 48.6719C31.2777 48.9318 32.2722 48.8043 33.0468 48.7968L65.0691 48.7868C66.6559 48.9093 67.5554 50.3386 66.7383 51.7379C65.9687 53.0548 64.4069 52.6675 62.4803 52.665H30.2082C28.369 52.6575 26.3375 52.3926 26.3375 54.2143C26.3375 55.4187 26.9397 56.0209 28.1441 56.0209H65.319C70.1417 56.0209 72.8554 48.8468 67.3855 45.9532V11.3596C67.3855 8.14613 67.9477 2.50631 66.8683 0.257378C66.2885 0.122442 66.2735 0 65.5764 0H1.29189C0.689673 0 0 0.689673 0 1.29189H0.00499763ZM35.1158 70.7389C40.2134 70.7389 39.6562 74.772 41.8251 74.777C44.2215 74.782 43.132 70.7389 48.7993 70.7389C52.5825 70.7389 53.2897 74.682 54.7365 74.8695C56.6806 75.1218 56.5507 70.7389 61.7082 70.7389C64.3245 70.7389 66.8133 73.0453 66.8708 75.6441H29.6959C30.2107 74.5721 30.8004 70.7389 35.1183 70.7389H35.1158ZM4.91017 13.4261C4.91017 25.0881 21.4323 24.1235 21.4323 14.2008V12.6515C21.4323 9.35306 17.5017 5.42243 14.2033 5.42243H12.654C8.52345 5.42243 4.91017 9.24561 4.91017 13.4261ZM48.2821 65.8337C46.9702 65.8337 45.9582 64.7717 45.9582 62.9951C45.9582 59.9166 50.8634 60.129 50.8634 63.2525C50.8634 64.8767 49.4365 65.8337 48.2821 65.8337ZM61.4483 65.8337C58.1299 65.8337 58.1299 60.6712 61.4483 60.6712C62.7227 60.6712 63.9221 62.078 63.9221 63.2525C63.9221 64.4244 62.8477 65.8337 61.4483 65.8337ZM35.3732 65.8337C32.0423 65.8337 32.0423 60.6712 35.3732 60.6712C38.4967 60.6712 38.6392 65.8337 35.3732 65.8337ZM29.436 63.2525C29.436 65.8088 30.7904 66.7108 31.7599 68.1576C27.2396 69.2096 23.8912 79 28.404 79H68.42C72.708 79 69.8993 69.3446 64.8067 68.1576C65.3515 67.413 65.1041 67.9278 65.7188 67.2631C68.0277 64.7718 67.7803 61.5083 65.5639 59.1394C65.5264 59.1019 65.4739 59.047 65.4364 59.007L64.8942 58.5172C61.4084 55.726 55.5136 58.2598 55.5136 63.2525C55.5136 65.8088 56.868 66.7108 57.8375 68.1576C56.3832 68.4975 55.796 69.5145 54.739 70.2242C54.1543 69.3521 53.0748 68.4325 51.9004 68.1576C53.1473 66.296 54.2243 66.2485 54.2243 62.9951C54.2243 61.3609 53.3697 59.9216 52.4951 59.0445C49.3041 55.846 42.6073 57.0854 42.6073 63.7697C42.6073 66.251 44.0266 66.8083 44.9312 68.1576C43.6393 68.4575 42.8322 69.2946 41.8326 69.9643C40.9681 69.3846 39.986 68.2601 38.7341 68.1576C39.4113 67.2356 42.1675 65.4239 40.9431 61.5633C38.864 55.0114 29.441 56.6606 29.441 63.2525H29.436ZM18.8211 79H18.2963C16.6646 78.9125 14.9604 78.0105 13.596 75.9939C13.2487 75.4792 13.5661 75.839 13.1712 75.3842C12.1967 79.5622 5.21253 80.5018 3.19848 75.8065C2.07152 73.1828 2.58627 56.0084 2.58627 52.4076C1.4718 51.8179 0.00499763 50.7034 0.00499763 49.0517V28.6564C0.00499763 27.5919 0.88458 26.355 1.4768 25.7403C3.29594 23.8537 7.7863 22.4618 10.59 22.4618C11.4521 22.4618 12.7614 25.5604 13.1712 26.335C14.5356 25.3355 14.3507 22.6193 16.5322 22.4893C17.7816 22.4169 21.3624 23.3839 22.3394 23.8787C24.4509 24.9507 24.2135 25.0481 25.5279 26.1101C25.9727 26.4699 26.0576 26.4674 26.5349 26.9097L30.2107 30.2057C33.754 27.8318 37.0224 20.4203 42.3449 23.234C43.152 22.0295 49.6589 15.79 51.5755 13.8759C52.4051 13.0463 53.5821 11.3596 54.9964 11.3596C55.8535 11.3596 56.2383 12.3266 56.5457 12.9089C56.2033 14.3782 54.759 15.3402 53.7695 16.3297C52.73 17.3693 51.7254 18.2363 50.8658 19.3633C49.2866 21.4323 46.243 23.5963 44.9287 25.5604C45.1236 26.395 45.4459 27.1621 45.4459 28.1416C45.4459 31.4776 40.7981 34.741 39.029 36.9575C38.0594 38.1719 36.4752 39.5612 35.3107 40.7282C30.608 45.4334 29.5085 42.7922 26.8547 42.0825C26.8547 44.2215 27.0771 46.6329 26.7173 48.6594C26.5224 49.7614 26.3375 50.491 25.8327 51.1307C25.4604 51.603 24.6733 52.2352 24.0136 52.4101C24.0136 57.8325 24.0136 63.2525 24.0136 68.6749C24.0136 71.3686 24.3085 74.1423 23.3314 75.9964C22.4094 77.7456 20.6927 78.9025 18.8186 79H18.8211Z" fill="#7730DF" stroke="white" mask="url(#path-1-inside-1_221_7234)"/>
</svg>
