<svg width="92" height="64" viewBox="0 0 92 64" fill="none" xmlns="http://www.w3.org/2000/svg">
<path fill-rule="evenodd" clip-rule="evenodd" d="M85.7139 58.5246C87.8163 58.2647 88.2097 58.6153 88.1969 56.3571C88.115 41.9564 88.3268 27.523 88.1901 13.0814C89.0822 13.2836 89.308 13.6092 89.3593 14.629C89.3996 15.4292 89.3576 16.3568 89.3576 17.1714V51.8851C89.3576 63.4074 90.4517 62.1095 84.6755 62.1095C80.599 62.1095 61.0328 62.3196 60.1477 62.0161L85.7139 58.5246ZM2.22274 14.7877C2.22274 13.6982 2.44224 13.2964 3.39021 13.0814C3.25284 27.6052 3.43455 42.144 3.38105 56.66C3.37768 57.568 3.30384 58.0403 4.11743 58.2688L23.0775 60.8684C24.1129 61.0065 31.0455 61.8676 31.4337 62.0823L3.92512 62.1096C2.68535 62.1096 2.22274 61.6928 2.22274 60.3775V14.7877ZM86.3448 5.67787L86.3426 56.561C85.1098 56.7628 62.3511 59.9855 61.361 59.8543C61.9313 59.8693 67.5686 58.2609 68.6956 57.964L81.7757 54.516C82.5129 54.2494 82.5304 53.9665 82.5349 53.0876L82.5282 24.9187C82.5282 21.3199 82.3464 8.67207 82.5611 6.15735L86.3448 5.67787ZM5.24673 5.64336L9.01876 6.16207C9.25667 8.93446 9.05231 12.6569 9.05231 15.5327L9.04566 53.0877C9.05048 54.0339 9.08325 54.2873 9.91767 54.5507C12.6121 55.4016 19.9397 57.1883 22.885 57.9641C24.012 58.2609 29.6492 59.8693 30.2197 59.8544C29.2114 59.9879 6.52284 56.7713 5.23574 56.5611L5.24673 5.64336ZM80.7012 2.08008L80.7029 52.1897C80.6903 52.3965 80.6801 52.4211 80.6501 52.6094C80.6445 52.6445 80.6223 52.7591 80.6177 52.7394C80.6131 52.7199 80.5977 52.826 80.5818 52.8673C79.7563 53.2839 77.4006 53.7526 76.3962 54.0139C74.929 54.3955 73.53 54.7585 72.1382 55.1391C69.2816 55.9201 66.4872 56.6381 63.6281 57.3869C60.7722 58.1349 57.9543 58.8823 55.1605 59.6067C53.5524 60.0237 47.9679 61.7304 46.71 61.7372L46.7362 10.9477L80.7012 2.08008ZM41.0863 60.7508C40.1205 60.7711 17.7549 54.6573 14.594 53.8663C13.8538 53.681 13.1778 53.4902 12.3659 53.2763C10.5663 52.802 10.8715 53.1041 10.8657 52.0511C10.7741 35.4443 10.9793 18.7443 10.8962 2.01339L41.0647 9.97737L41.0996 31.9209C41.0996 34.2029 40.8882 53.2627 41.2102 53.8096C41.8093 54.3325 42.6929 54.4901 42.9058 53.4897C43.0235 52.937 42.945 51.3514 42.945 50.6932V21.9389C42.945 18.3636 42.7147 13.9504 42.9793 10.4629L44.8691 10.9818L44.8542 61.8012L42.9831 61.271C42.8831 60.2503 43.3506 58.3092 42.181 58.1353C40.7684 57.9253 41.1262 59.7556 41.0863 60.7508ZM3.36669 11.063C3.15433 11.2069 3.34519 11.1031 3.03788 11.2243L2.15189 11.5205C1.78307 11.6929 1.44896 11.9599 1.20864 12.2214C-0.193462 13.7468 0.349545 18.1248 0.349545 20.8961V58.8876C0.348677 61.1829 0.392153 62.7327 2.0607 63.5914C3.21776 64.1867 6.46731 63.956 7.94779 63.956C33.2755 63.956 58.603 63.956 83.9307 63.956C89.6006 63.956 91.2315 64.609 91.231 58.5896C91.2303 50.1471 91.231 41.7045 91.231 33.262C91.231 30.7928 91.3708 15.8795 91.2073 14.1905C90.9137 11.1602 88.3602 11.5721 88.1944 10.9141C88.1967 9.62293 88.1948 8.33169 88.1948 7.04044C88.1948 2.2386 88.2455 3.86212 82.5256 4.26516C82.5291 3.45118 82.5252 2.6372 82.5305 1.82341C82.5379 0.662594 82.6016 0.868596 82.1867 0.0119111C80.7837 -0.166906 74.5517 1.71988 72.808 2.16784C70.7512 2.69629 46.4512 9.22905 45.7903 9.22905C45.2024 9.22905 28.7778 4.80971 27.7019 4.52804C25.193 3.87118 10.8533 -0.174232 9.39404 0.0118147C8.83908 1.1574 9.04749 2.49993 9.05501 4.26506C7.74526 4.17281 4.88794 3.51972 3.80424 3.8012C3.07615 4.25899 3.44776 9.37037 3.36669 11.063Z" fill="#7730DF"/>
<path fill-rule="evenodd" clip-rule="evenodd" d="M76.0291 35.7911C76.3292 35.452 76.3187 34.568 75.6793 34.3308C74.8963 34.0405 65.1013 37.0437 64.1499 37.3033C62.6363 37.7163 51.8049 40.5026 51.372 41.0834C51.0005 41.5818 51.2359 42.2397 51.6832 42.4377C52.3246 42.7217 55.8925 41.521 56.6615 41.3119C58.8404 40.7195 61.0495 40.0821 63.1842 39.4988C64.7123 39.0813 75.7513 36.1047 76.0291 35.7911Z" fill="#7730DF"/>
<path fill-rule="evenodd" clip-rule="evenodd" d="M76.0024 16.3994C76.3592 16.0249 76.2503 15.1524 75.6985 14.9437C74.9045 14.6433 65.0434 17.6504 64.1203 17.9085C62.5789 18.3393 51.7524 21.127 51.3525 21.7004C51.0171 22.1812 51.223 22.8329 51.7051 23.0395C52.2278 23.2634 52.8492 22.9764 53.3641 22.8305C56.8604 21.8398 75.6721 16.7458 76.0024 16.3994Z" fill="#7730DF"/>
<path fill-rule="evenodd" clip-rule="evenodd" d="M76.057 22.858C76.377 22.4513 76.2457 21.5861 75.6724 21.3894C75.042 21.1731 71.4438 22.3419 70.6996 22.55C68.5213 23.1592 66.3428 23.757 64.1752 24.3653C63.2257 24.6317 51.8046 27.557 51.374 28.1266C50.9827 28.6443 51.2298 29.3064 51.6711 29.4975C52.2138 29.7324 52.9124 29.4271 53.4236 29.2849L63.2097 26.5579C64.5871 26.1867 75.8134 23.1675 76.057 22.858Z" fill="#7730DF"/>
<path fill-rule="evenodd" clip-rule="evenodd" d="M75.9806 29.3412C76.4153 28.8948 76.1653 28.0748 75.6964 27.8958C74.9346 27.605 71.4467 28.8039 70.6243 29.0313C67.8613 29.7949 51.7872 34.1218 51.4009 34.5577C51.1034 34.8934 51.0653 35.6849 51.6346 35.94C52.3495 36.2602 55.9259 35.0522 56.7277 34.8285C58.8836 34.2266 61.1024 33.6232 63.1363 33.046C64.6551 32.6149 75.6119 29.7198 75.9806 29.3412Z" fill="#7730DF"/>
<path fill-rule="evenodd" clip-rule="evenodd" d="M39.3875 34.6904C38.2979 33.8626 28.8085 31.4893 26.6881 30.8941C24.5331 30.2889 22.3502 29.6815 20.1669 29.0791C19.4333 28.8768 15.7255 27.7279 15.0946 27.8363C14.5274 27.9336 14.2028 28.5177 14.4894 29.0969C14.8425 29.8107 19.6382 30.8673 20.6565 31.1467C22.8865 31.7588 25.0166 32.3625 27.18 32.9634L36.9664 35.6849C38.24 36.0444 39.528 36.598 39.3875 34.6904Z" fill="#7730DF"/>
<path fill-rule="evenodd" clip-rule="evenodd" d="M39.37 21.7588C38.3738 20.9545 34.7268 20.2015 33.1936 19.7761L20.1436 16.1459C19.0271 15.8311 18.0032 15.5551 16.8779 15.2351C16.4306 15.1078 15.586 14.8148 15.103 14.8953C14.5769 14.983 14.1836 15.4956 14.4743 16.1524C14.776 16.8343 19.6167 17.9309 20.6342 18.2133L36.9487 22.7495C38.1562 23.0854 39.6017 23.708 39.37 21.7588Z" fill="#7730DF"/>
<path fill-rule="evenodd" clip-rule="evenodd" d="M14.8659 21.5187C12.6653 23.0546 17.8171 23.8836 19.2897 24.3012L32.36 27.934C33.4075 28.2355 38.3118 29.8384 38.9941 29.4706C39.4668 29.2156 39.5544 28.493 39.202 28.0839C38.7921 27.6081 28.6461 24.9911 27.8865 24.7726L18.1291 22.0618C17.3305 21.84 15.5117 21.0679 14.8659 21.5187Z" fill="#7730DF"/>
<path fill-rule="evenodd" clip-rule="evenodd" d="M14.9719 8.48407C14.3524 8.78696 13.6266 9.79922 15.8863 10.4285L32.1837 14.954C33.3671 15.2867 38.0774 16.8772 38.8904 16.5732C39.3217 16.4118 39.6438 15.7889 39.2518 15.2293C38.8938 14.7183 35.1908 13.872 34.5541 13.6995C31.7651 12.9439 15.5509 8.20096 14.9719 8.48407Z" fill="#7730DF"/>
<path fill-rule="evenodd" clip-rule="evenodd" d="M75.955 42.3943C76.0958 42.2877 77.0288 40.1894 74.2242 40.9656C70.6363 41.9586 51.9376 47.0684 51.5414 47.3568C51.1382 47.6504 51.0255 48.4043 51.4452 48.764C52.1171 49.3397 55.1605 48.1889 56.4732 47.8311L75.955 42.3943Z" fill="#7730DF"/>
<path fill-rule="evenodd" clip-rule="evenodd" d="M75.954 10.0716C76.0932 9.96241 77.0407 7.84735 74.2185 8.63675C70.6878 9.62434 51.9012 14.7572 51.5395 15.0224C51.141 15.3146 51.0263 16.0805 51.4454 16.4378C52.1068 17.0017 55.1551 15.8588 56.467 15.5019L75.954 10.0716Z" fill="#7730DF"/>
<path fill-rule="evenodd" clip-rule="evenodd" d="M39.4103 41.4732C39.2942 40.5983 37.4612 40.3557 36.5464 40.1045L26.759 37.3828C24.5679 36.774 22.4554 36.1895 20.2344 35.5692C18.0201 34.9508 14.1343 33.3139 14.4041 35.3475C14.5123 36.1624 16.24 36.3887 17.2233 36.6593L33.5387 41.1931C34.6811 41.518 35.612 41.7591 36.799 42.1021C37.5761 42.3266 39.631 43.1381 39.4103 41.4732Z" fill="#7730DF"/>
<path fill-rule="evenodd" clip-rule="evenodd" d="M39.3979 47.8921C39.2166 47.0114 37.3738 46.8047 36.4957 46.5616L26.7123 43.8377C24.4963 43.2362 22.3484 42.6204 20.1839 42.0195C18.1337 41.4504 14.1851 39.8245 14.3947 41.7542C14.4906 42.6359 16.317 42.8722 17.1759 43.1129L38.4962 48.9655C39.1146 48.9472 39.535 48.5574 39.3979 47.8921Z" fill="#7730DF"/>
</svg>
