<svg width="79" height="73" viewBox="0 0 79 73" fill="none" xmlns="http://www.w3.org/2000/svg">
<path fill-rule="evenodd" clip-rule="evenodd" d="M40.9102 43.4881L46.778 46.2761C47.4525 46.6035 48.0699 46.8999 48.7448 47.2266L51.6787 48.6207C52.0077 48.7802 52.3358 48.9144 52.6785 49.0801C53.0259 49.248 53.3146 49.3875 53.6619 49.5553L56.645 50.9492V69.0081L40.9199 61.4331L40.9102 43.4881ZM78.6737 40.5522V62.4499C78.6737 62.9467 78.2239 63.3818 77.9092 63.6119C77.52 63.8965 77.0608 64.038 76.637 64.2833C76.2381 64.5141 75.7428 64.7217 75.3301 64.9211L59.7428 72.4298C59.5216 72.5367 59.3225 72.6333 59.087 72.7464C58.8636 72.8537 58.7002 73.0001 58.4152 73.0001H58.0163C57.763 72.9947 57.7914 72.959 57.383 72.7621C57.1862 72.6673 56.9894 72.5724 56.7926 72.4773L40.4678 64.5884C40.2704 64.493 39.4883 64.0532 39.3085 64.0855L29.9616 68.5962C28.3905 69.3555 26.8778 70.0865 25.3067 70.8456C24.5114 71.2299 23.7746 71.586 22.9793 71.9703C21.6735 72.6013 21.1396 72.9539 20.6254 73H20.3921C20.028 72.9675 19.619 72.7859 18.9146 72.4455L4.62216 65.5388C3.75609 65.1203 2.91245 64.7126 2.03246 64.2874C1.61583 64.086 1.10253 63.8745 0.726606 63.6484C0.400324 63.4522 0 62.9802 0 62.4973V40.9692C0 40.4611 0.340198 40.0226 0.666791 39.8078C1.00408 39.586 12.9307 33.8651 14.0301 33.3339C15.5515 32.5987 17.4264 31.7336 18.8817 30.9893V11.98C18.8817 10.9548 18.7675 9.71314 19.4146 9.31097C19.591 9.20138 19.8656 9.20539 20.0624 9.12911C20.2217 9.06739 20.4115 8.9596 20.5864 8.87519C20.9665 8.69152 21.2881 8.53615 21.6682 8.35249L36.944 0.970533C39.091 -0.0670418 39.0372 -0.330801 40.681 0.463589L57.0387 8.36824C57.5292 8.60531 58.2379 8.97806 58.7424 9.14517C59.2188 9.30295 59.7665 9.94207 59.7937 10.5053C59.8177 11.0025 59.7922 11.5697 59.7922 12.0749V31.0367C60.0118 31.0862 61.8663 32.0152 62.2343 32.1931C62.657 32.3976 63.0421 32.5597 63.4637 32.7634C64.714 33.3676 67.0915 34.5789 68.2639 35.0625C68.9825 35.3588 77.8287 39.6633 77.8717 39.701L78.1762 39.977C78.1848 39.9829 78.1974 39.99 78.206 39.9958C78.2146 40.0015 78.227 40.0089 78.2355 40.0148C78.4987 40.193 78.4643 40.1537 78.54 40.3381C78.632 40.5622 78.6638 40.5639 78.6737 40.5522ZM3.14672 43.5357L18.8815 51.1394V69.0081L3.14672 61.4044V43.5357ZM72.3306 45.1515C72.5624 45.0993 73.2224 44.7331 73.5269 44.5968L75.5268 43.6783V48.6683C74.6209 48.6683 73.9533 49.3626 73.9533 50.0939C73.9533 51.0389 74.57 51.7097 75.5268 51.7097V57.7926C74.6209 57.7926 73.9533 58.487 73.9533 59.2183C73.9533 60.1633 74.57 60.8341 75.5268 60.8341V61.452L72.1339 63.0676C71.5234 61.9525 69.2329 62.0423 69.2329 64.0182C69.2329 64.2226 69.2902 64.2758 69.3312 64.4459L59.8017 69.0269L59.8848 64.4037C59.9288 64.5154 59.9344 64.5418 59.9892 64.6355C60.0724 64.7777 60.1664 64.8907 60.2947 65.0056C61.1693 65.7891 62.9389 65.4196 62.9389 63.7806C62.9389 62.5424 61.2873 61.8953 60.3203 62.7229C60.1862 62.8376 60.1049 62.9311 60.0081 63.0865L59.8074 63.5103C59.8042 63.5176 59.7986 63.5329 59.792 63.543L59.8848 55.2792C60.3241 56.3974 61.7112 56.5573 62.4614 55.8578C63.3804 55.001 62.988 53.2303 61.2671 53.2303C60.8748 53.2303 60.5368 53.413 60.3203 53.5984C60.1862 53.7131 60.1049 53.8066 60.0081 53.962L59.8074 54.3859C59.8042 54.3931 59.7986 54.4084 59.792 54.4185V51.0919L62.2178 49.9672C62.6307 49.7677 62.9858 49.5973 63.3978 49.3968C63.6132 49.292 63.7751 49.2211 64.0003 49.1237L69.4787 46.5297C69.8955 46.7994 69.9425 47.1475 70.9047 47.1475C71.6939 47.1475 72.3798 46.3989 72.3798 45.7693L72.3306 45.1515ZM34.5179 45.104L37.7631 43.5355L37.7632 48.6683C36.8573 48.6683 36.1897 49.3626 36.1897 50.0939C36.1897 51.0389 36.8064 51.7097 37.7632 51.7097V57.7926C36.8573 57.7926 36.1897 58.487 36.1897 59.2183C36.1897 60.1633 36.8064 60.8341 37.7632 60.8341C37.7632 61.5495 37.8995 61.3385 36.9764 61.7846C36.5029 62.0134 34.56 63.001 34.3212 63.0202C34.207 62.6067 33.5555 62.3548 32.9444 62.3548C32.1856 62.3548 31.4693 63.0472 31.4693 63.7805C31.4693 64.0629 31.4471 64.1554 31.5677 64.3984L22.0285 69.0082V64.2083C22.0647 64.2586 22.0336 64.1991 22.0802 64.3008C22.1105 64.3668 22.0953 64.3371 22.1214 64.4036C22.1653 64.5153 22.1709 64.5417 22.2257 64.6354C22.9587 65.8891 25.1754 65.6034 25.1754 63.7805C25.1754 62.5423 23.5238 61.8952 22.5568 62.7228C22.28 62.9596 22.1973 63.1487 22.0735 63.4438C22.0692 63.4539 22.0629 63.4683 22.059 63.4773L22.0285 55.0838C22.0647 55.1341 22.0336 55.0746 22.0802 55.1763C22.1105 55.2423 22.0953 55.2127 22.1214 55.2792C22.5606 56.3974 23.9477 56.5573 24.6979 55.8578C25.6169 55.001 25.2245 53.2303 23.5036 53.2303C23.1113 53.2303 22.7733 53.413 22.5568 53.5984C22.28 53.8353 22.1973 54.0243 22.0735 54.3194C22.0692 54.3295 22.0629 54.3439 22.059 54.3529L22.0285 51.1394C22.8217 50.7338 23.6352 50.363 24.4543 49.9672L29.3059 47.6226C29.7131 47.4259 30.0977 47.2401 30.5188 47.0365C30.773 46.9137 31.5256 46.5013 31.7644 46.4821C31.9137 47.0223 33.2739 47.5396 34.1388 46.7334C34.5736 46.3281 34.7627 45.5969 34.5179 45.104ZM42.877 41.017C43.3015 40.9215 57.9734 33.6509 58.2184 33.6509C58.4634 33.6509 73.1353 40.9215 73.5598 41.017V41.1121C73.1354 41.2076 58.4635 48.4782 58.2184 48.4782C57.9735 48.4782 43.3016 41.2076 42.877 41.1121V41.017ZM5.16267 41.017C5.58865 40.9211 20.2061 33.6725 20.4549 33.6725C20.7064 33.6725 35.3164 40.9201 35.7472 41.017V41.1121C35.5202 41.1631 35.022 41.4388 34.7802 41.5556C34.4468 41.7168 34.1491 41.8606 33.8296 42.0149C33.193 42.3226 32.5788 42.6193 31.9283 42.9337C30.3996 43.6725 20.5737 48.4565 20.4551 48.4565C20.2036 48.4565 5.59363 41.2089 5.16278 41.112L5.16267 41.017ZM22.0284 13.1208L37.7632 20.7246V38.5933L22.0284 30.9895V13.1208ZM53.3996 14.6891L56.6448 13.1206L56.6449 18.2534C55.739 18.2534 55.0714 18.9477 55.0714 19.6791C55.0714 20.1769 55.1627 20.5208 55.549 20.8809C55.8168 21.1306 56.1345 21.2949 56.6449 21.2949V27.3779C55.739 27.3779 55.0714 28.0722 55.0714 28.8036C55.0714 29.7485 55.6881 30.4194 56.6449 30.4194V31.0372L53.252 32.6529C53.137 32.4428 53.009 32.3171 52.8017 32.1854C51.9201 31.6258 50.3509 31.9689 50.3509 33.6034C50.3509 33.8079 50.4082 33.8611 50.4492 34.0312L40.9197 38.6122L40.91 33.7936C40.9461 33.8439 40.9151 33.7844 40.9617 33.8862L41.1072 34.2208C41.8401 35.4745 44.0569 35.1887 44.0569 33.3659C44.0569 31.9622 41.9535 31.3439 41.1261 32.6718C41.0763 32.7517 41.0406 32.8198 41.0094 32.8917L40.91 33.1282V24.669L41.1072 25.0962C41.8401 26.3499 44.0569 26.0641 44.0569 24.2413C44.0569 22.7467 41.7028 22.1734 41.0094 23.7671C40.9881 23.8161 40.9805 23.8414 40.9687 23.8702C40.9643 23.881 40.9592 23.8943 40.955 23.9046L40.91 20.7246C41.7032 20.3189 42.5167 19.9482 43.3358 19.5523C43.909 19.2754 50.3643 16.0899 50.6459 16.0673C50.7952 16.6074 52.1554 17.1248 53.0202 16.3186C53.455 15.9133 53.6443 15.182 53.3996 14.6891ZM24.0444 10.6972V10.6022C24.2714 10.5511 24.7696 10.2755 25.0114 10.1587C25.3448 9.99747 25.6424 9.85375 25.962 9.69929C26.5985 9.39167 27.2128 9.09489 27.8633 8.78054C29.392 8.04176 39.2178 3.25775 39.3365 3.25775C39.4652 3.25775 51.7726 9.25557 54.3838 10.5063L54.6287 10.6498C54.4017 10.7009 53.9035 10.9765 53.6617 11.0934C53.342 11.2479 53.0049 11.391 52.7133 11.5548C51.5658 12.1994 48.2983 13.711 46.9909 14.3408C45.9357 14.849 39.5652 18.0137 39.3694 18.0393C39.2041 18.0609 31.8631 14.4519 31.7314 14.3882C31.5141 14.2833 24.3119 10.7574 24.0444 10.6972Z" fill="#7730DF"/>
<path fill-rule="evenodd" clip-rule="evenodd" d="M64.5127 59.2184C64.5127 59.7027 64.5968 60.0402 64.9655 60.3966C65.8495 61.251 67.6596 60.8706 67.6596 59.2184C67.6596 58.4356 66.9776 57.7927 65.9878 57.7927C65.229 57.7927 64.5127 58.485 64.5127 59.2184Z" fill="#7730DF"/>
<path fill-rule="evenodd" clip-rule="evenodd" d="M26.749 59.2184C26.749 59.7027 26.8331 60.0402 27.2018 60.3966C28.0858 61.251 29.896 60.8706 29.896 59.2184C29.896 58.4356 29.2139 57.7927 28.2241 57.7927C27.4653 57.7927 26.749 58.485 26.749 59.2184Z" fill="#7730DF"/>
<path fill-rule="evenodd" clip-rule="evenodd" d="M45.6309 19.6791C45.6309 20.1634 45.715 20.5009 46.0836 20.8573C46.9677 21.7117 48.7778 21.3313 48.7778 19.6791C48.7778 18.8963 48.0957 18.2534 47.106 18.2534C46.3472 18.2534 45.6309 18.9457 45.6309 19.6791Z" fill="#7730DF"/>
<path fill-rule="evenodd" clip-rule="evenodd" d="M64.5127 50.0939C64.5127 50.5782 64.5968 50.9157 64.9655 51.2721C65.8495 52.1264 67.6596 51.7461 67.6596 50.0939C67.6596 49.3112 66.9776 48.6682 65.9878 48.6682C65.229 48.6682 64.5127 49.3605 64.5127 50.0939Z" fill="#7730DF"/>
<path fill-rule="evenodd" clip-rule="evenodd" d="M50.3506 24.2414C50.3506 24.7256 50.4347 25.0631 50.8033 25.4195C51.6874 26.2739 53.4975 25.8936 53.4975 24.2414C53.4975 23.4586 52.8155 22.8157 51.8257 22.8157C51.0669 22.8157 50.3506 23.508 50.3506 24.2414Z" fill="#7730DF"/>
<path fill-rule="evenodd" clip-rule="evenodd" d="M26.749 50.0939C26.749 50.5782 26.8331 50.9157 27.2018 51.2721C28.0858 52.1264 29.896 51.7461 29.896 50.0939C29.896 49.3112 29.2139 48.6682 28.2241 48.6682C27.4653 48.6682 26.749 49.3605 26.749 50.0939Z" fill="#7730DF"/>
<path fill-rule="evenodd" clip-rule="evenodd" d="M45.6309 28.8034C45.6309 29.2876 45.715 29.6252 46.0836 29.9816C46.9677 30.8359 48.7778 30.4556 48.7778 28.8034C48.7778 28.0205 48.0957 27.3777 47.106 27.3777C46.3472 27.3777 45.6309 28.07 45.6309 28.8034Z" fill="#7730DF"/>
<path fill-rule="evenodd" clip-rule="evenodd" d="M69.2324 54.6562C69.2324 55.1404 69.3165 55.4779 69.6852 55.8343C70.5691 56.6888 72.3793 56.3084 72.3793 54.6562C72.3793 53.8733 71.6973 53.2305 70.7075 53.2305C69.9487 53.2305 69.2324 53.9228 69.2324 54.6562Z" fill="#7730DF"/>
<path fill-rule="evenodd" clip-rule="evenodd" d="M31.4697 54.6562C31.4697 55.1404 31.5538 55.4779 31.9225 55.8343C32.5241 56.4158 33.5305 56.4252 34.1391 55.8579C35.0581 55.0011 34.6657 53.2305 32.9449 53.2305C32.1861 53.2305 31.4697 53.9228 31.4697 54.6562Z" fill="#7730DF"/>
</svg>
