<svg width="67" height="77" viewBox="0 0 67 77" fill="none" xmlns="http://www.w3.org/2000/svg">
<path d="M15.5 32C16.3284 32 17 31.3284 17 30.5C17 29.6716 16.3284 29 15.5 29C14.6716 29 14 29.6716 14 30.5C14 31.3284 14.6716 32 15.5 32Z" fill="#7730DF"/>
<path d="M31.5 32C32.3284 32 33 31.3284 33 30.5C33 29.6716 32.3284 29 31.5 29C30.6716 29 30 29.6716 30 30.5C30 31.3284 30.6716 32 31.5 32Z" fill="#7730DF"/>
<path d="M17.25 24H13.75C12.7836 24 12 24.6715 12 25.5C12 26.3285 12.7834 27 13.75 27H17.25C18.2164 27 19 26.3285 19 25.5C19 24.6715 18.2164 24 17.25 24Z" fill="#7730DF"/>
<path d="M33.25 24H29.75C28.7836 24 28 24.6715 28 25.5C28 26.3285 28.7834 27 29.75 27H33.25C34.2164 27 35 26.3285 35 25.5C35 24.6715 34.2164 24 33.25 24Z" fill="#7730DF"/>
<path d="M29.4223 39.1441C28.8699 38.8479 28.1618 39.023 27.8421 39.5351C26.9476 40.9675 25.2838 41.8572 23.5 41.8572C21.7162 41.8572 20.0525 40.9674 19.158 39.5353C18.838 39.023 18.1304 38.848 17.5778 39.1443C17.0248 39.4405 16.8357 40.0959 17.1557 40.6082C18.4619 42.7004 20.8931 44 23.4999 44C26.1067 44 28.5376 42.7003 29.8442 40.608C30.1643 40.0959 29.9754 39.4405 29.4223 39.1441Z" fill="#7730DF"/>
<path d="M23.5001 32C22.6717 32 22 32.6715 22 33.5001V34.4521C21.9999 34.7547 22.2451 35 22.5478 35H24.4521C24.7546 35 25 34.7547 25 34.4521V33.5001C25.0001 32.6717 24.3285 32 23.5001 32Z" fill="#7730DF"/>
<path d="M67 48.5879C67 40.2875 60.3031 33.5349 52.0712 33.5349C50.2845 33.5349 48.5701 33.8534 46.9807 34.4366V23.6861C46.9807 10.6255 36.443 0 23.4904 0C10.5378 0 0 10.6255 0 23.6861V51.3605C0 55.8316 1.24673 60.176 3.60222 63.9473C3.14837 65.2954 2.906 66.7268 2.906 68.1934V75.7791C2.906 76.4535 3.448 77 4.11678 77H64.1745C64.8435 77 65.3853 76.4533 65.3853 75.7791C65.3853 74.9002 65.2354 74.043 64.9525 73.2294C66.2933 70.9272 66.9998 68.3118 66.9998 65.6279L67 48.5879ZM2.42172 23.6861C2.42172 11.972 11.8731 2.44189 23.4904 2.44189C35.1077 2.44189 44.559 11.972 44.559 23.6861V26.1095C43.6758 24.9826 42.3487 24.2261 40.8458 24.1102V20.4301C40.8458 19.7558 40.3038 19.2092 39.6351 19.2092H30.5964L27.7268 14.8693C27.5022 14.5297 27.1242 14.3256 26.7193 14.3256C26.3143 14.3256 25.9363 14.5295 25.7118 14.8693L22.8422 19.2092H17.3908C17.9361 17.8974 19.3922 17.0717 20.4636 16.8887C21.1229 16.7759 21.5667 16.1456 21.4549 15.4808C21.3432 14.816 20.7182 14.3689 20.0588 14.4813C17.7425 14.8775 15.4042 16.6905 14.8669 19.2094H9.8393C12.1663 13.9396 17.4099 10.2559 23.4904 10.2559C24.1593 10.2559 24.7012 9.70922 24.7012 9.03502C24.7012 8.36082 24.1592 7.81415 23.4904 7.81415C14.323 7.81415 6.79414 15.0186 6.17697 24.1072C4.657 24.212 3.31317 24.9722 2.42172 26.1096V23.6861ZM29.5446 48.2262C35.2869 46.064 39.5979 40.919 40.6154 34.67C42.2126 34.6174 43.6309 33.8423 44.559 32.6581V35.5841C40.1266 38.1974 37.1425 43.0472 37.1425 48.5867L37.134 56.5215L29.5446 52.2701V48.2262ZM23.4904 46.8837C15.2558 46.8837 8.55662 40.1287 8.55662 31.8255V25.3139C8.55662 24.0509 8.71159 22.824 9.00347 21.6511H23.4904C23.8953 21.6511 24.2734 21.4472 24.4979 21.1075L26.7194 17.7476L28.941 21.1075C29.1656 21.4471 29.5435 21.6511 29.9485 21.6511H38.4244V31.8255C38.4241 40.1287 31.7248 46.8837 23.4904 46.8837ZM40.8458 32.2036V26.5639C42.2132 26.762 43.2676 27.9511 43.2676 29.3838C43.2676 30.8164 42.2132 32.0055 40.8458 32.2036ZM6.13491 26.5638V32.2034C4.76752 32.0054 3.71319 30.8162 3.71319 29.3836C3.71319 27.951 4.76752 26.762 6.13491 26.5638ZM2.42172 51.3605V32.6579C3.35001 33.8421 4.76811 34.6172 6.36534 34.6698C7.38283 40.9189 11.6937 46.0639 17.4362 48.2261V52.2698L9.65421 56.6291C7.65204 57.7506 6.01633 59.3589 4.85596 61.2592C3.26067 58.2182 2.42172 54.8323 2.42172 51.3605ZM7.76882 74.5581H5.32772V68.8604H8.62285C8.22447 70.0595 7.85563 71.8723 7.76882 74.5581ZM10.1928 74.5581C10.3477 70.1665 11.3142 68.6747 11.4514 68.4852C11.8347 68.1456 11.9275 67.6316 11.736 67.1461C11.5585 66.6961 11.1054 66.4185 10.6252 66.4185H5.47403C5.7167 64.9528 6.25661 63.565 7.04471 62.3359C7.84235 62.7105 10.5419 63.8971 14.5342 64.8144C15.292 64.9886 16.0152 64.4085 16.0152 63.625V63.6217C16.0152 63.0543 15.6268 62.5599 15.078 62.4333C12.0234 61.7287 9.76055 60.8551 8.65118 60.3808C9.29878 59.7589 10.0281 59.2128 10.8302 58.7636L17.5067 55.0236C17.6827 55.5239 18.1719 55.8751 18.7376 55.8336C19.377 55.7867 19.8579 55.2215 19.8579 54.5753V48.9386C21.0299 49.1913 22.2448 49.3254 23.4904 49.3254C24.7359 49.3254 25.951 49.1913 27.1229 48.9386V54.5754C27.1229 55.2216 27.6039 55.7868 28.2431 55.8337C28.8088 55.8752 29.298 55.5242 29.474 55.0237L36.1505 58.7638C37.1476 59.3223 38.0326 60.0295 38.7868 60.8477C32.0643 63.4872 25.6967 63.787 20.8024 63.3486C20.0971 63.2854 19.4916 63.8503 19.4916 64.5644C19.4916 65.1969 19.97 65.724 20.5951 65.7803C21.8204 65.8905 23.1306 65.9576 24.5144 65.9576C29.1581 65.9576 34.6021 65.2121 40.2648 62.8839C40.8752 63.9718 41.2997 65.1667 41.5067 66.4187H36.3556C35.8753 66.4187 35.4221 66.696 35.2447 67.1461C35.0534 67.6316 35.1461 68.1458 35.5293 68.4852C35.6664 68.6747 36.6329 70.1665 36.788 74.5581H10.1928ZM41.653 74.5581H39.2119C39.1251 71.8723 38.7561 70.0593 38.3579 68.8604H41.653V74.5581ZM44.0747 74.5583V70.8559C44.2142 70.7656 44.3563 70.678 44.5021 70.5965L44.5575 70.5654C45.6104 71.2306 48.3191 72.6767 51.9745 72.6767C54.2047 72.6767 56.7877 72.135 59.5586 70.5507L59.6401 70.5964C61.3066 71.53 62.4352 72.9583 62.8188 74.5583H44.0747ZM49.6445 68.8604C50.3135 68.8604 50.8553 68.3137 50.8553 67.6395V64.7759C51.2549 64.8199 51.6601 64.8441 52.071 64.8441C52.6739 64.8441 53.2651 64.794 53.8424 64.7006V67.6325C53.8424 68.3068 54.3845 68.8533 55.0532 68.8533C55.3842 68.8533 55.6837 68.7192 55.9023 68.5023L57.0022 69.1183C52.6499 71.0486 49.0199 70.0488 47.0705 69.1574L48.6208 68.2891C48.8351 68.6321 49.2129 68.8604 49.6445 68.8604ZM43.3415 53.5997V49.5903C43.3415 48.9785 43.4039 48.3811 43.522 47.8041H52.071C52.476 47.8041 52.8541 47.6001 53.0785 47.2604L54.0592 45.7773L55.0398 47.2604C55.2644 47.6 55.6424 47.8041 56.0473 47.8041H60.8008V53.5995C60.8008 58.4531 56.8846 62.4019 52.0712 62.4019C47.2577 62.4019 43.3415 58.4534 43.3415 53.5997ZM64.5783 65.6278C64.5783 67.3857 64.2153 69.108 63.5207 70.6974C62.8012 69.8241 61.8899 69.0631 60.8165 68.4619L56.2642 65.9117V64.0162C60.3407 62.3417 63.2227 58.3048 63.2227 53.5997V46.5832C63.2227 45.9088 62.6807 45.3623 62.0119 45.3623H56.6955L55.0668 42.8991C54.8422 42.5595 54.4643 42.3554 54.0593 42.3554C53.6544 42.3554 53.2763 42.5593 53.052 42.8991L51.4233 45.3623H44.4161C45.902 42.6381 48.7765 40.7879 52.0713 40.7879C52.7402 40.7879 53.2821 40.2412 53.2821 39.567C53.2821 38.8928 52.7401 38.3461 52.0713 38.3461C45.9225 38.3461 40.9201 43.3903 40.9201 49.5904V53.5998C40.9201 58.5158 44.0664 62.7022 48.4339 64.2266V65.6005L44.0722 68.0439C44.0293 64.2091 42.3393 60.6228 39.5163 58.1703C39.54 58.0753 39.5541 57.9763 39.5541 57.8738L39.5641 48.5884C39.5641 41.6344 45.1746 35.977 52.071 35.977C58.9675 35.977 64.578 41.6341 64.578 48.5881L64.5783 65.6278Z" fill="#7730DF"/>
<path d="M47 54C47.5523 54 48 53.5523 48 53C48 52.4477 47.5523 52 47 52C46.4477 52 46 52.4477 46 53C46 53.5523 46.4477 54 47 54Z" fill="#7730DF"/>
<path d="M57 54C57.5523 54 58 53.5523 58 53C58 52.4477 57.5523 52 57 52C56.4477 52 56 52.4477 56 53C56 53.5523 56.4477 54 57 54Z" fill="#7730DF"/>
<path d="M48 49H46C45.4477 49 45 49.4477 45 50C45 50.5523 45.4477 51 46 51H48C48.5521 51 49 50.5523 49 50C49 49.4476 48.5521 49 48 49Z" fill="#7730DF"/>
<path d="M58 49H56C55.4477 49 55 49.4477 55 50C55 50.5521 55.4477 51 56 51H58C58.5521 51 59 50.5523 59 50C58.9998 49.4476 58.5521 49 58 49Z" fill="#7730DF"/>
<path d="M52.0001 54C51.4479 54 51 54.4477 51 55V55.5056C51 55.7787 51.2213 56 51.4946 56H52.5056C52.7787 56 53 55.7787 53 55.5056V55C53 54.4476 52.5523 54 52.0001 54Z" fill="#7730DF"/>
<path d="M55.6204 57.3773C55.1421 56.8447 54.3966 56.8811 53.9552 57.4586C52.834 58.9263 51.2583 57.642 51.0378 57.4488C50.6865 56.9968 50.1168 56.8603 49.6381 57.159C49.0598 57.5194 48.833 58.3774 49.1315 59.0752C49.4598 59.843 50.9072 60.7542 52.1094 60.9499C52.3152 60.9835 52.5174 61 52.716 61C53.8572 61.0004 54.8754 60.4506 55.6879 59.3872C56.1292 58.8098 56.0988 57.9099 55.6204 57.3773Z" fill="#7730DF"/>
</svg>
