<svg width="5" height="9" viewBox="0 0 5 9" fill="none" xmlns="http://www.w3.org/2000/svg">
<path d="M0.30779 0.522469C0.19062 0.639674 0.124798 0.798616 0.124798 0.964344C0.124798 1.13007 0.19062 1.28901 0.30779 1.40622L3.40154 4.49997L0.30779 7.59372C0.193941 7.7116 0.130945 7.86947 0.132369 8.03335C0.133792 8.19722 0.199523 8.35398 0.315403 8.46986C0.431283 8.58574 0.588041 8.65147 0.751914 8.65289C0.915787 8.65431 1.07366 8.59132 1.19154 8.47747L4.72716 4.94184C4.84433 4.82464 4.91016 4.6657 4.91016 4.49997C4.91016 4.33424 4.84433 4.1753 4.72716 4.05809L1.19154 0.522469C1.07433 0.4053 0.915392 0.339478 0.749665 0.339478C0.583937 0.339478 0.424994 0.4053 0.30779 0.522469Z" fill="white"/>
</svg>
