<svg width="121" height="108" viewBox="0 0 121 108" fill="none" xmlns="http://www.w3.org/2000/svg">
<path fill-rule="evenodd" clip-rule="evenodd" d="M90.9184 69.3684C91.1304 69.0518 93.7083 67.0907 94.3014 66.6934V74.0101L94.056 73.7835C93.9173 73.6411 93.9637 73.6978 93.843 73.5245C93.6928 73.309 93.5796 73.1123 93.4358 72.9088L90.9185 69.3683L90.9184 69.3684ZM83.995 74.0888V66.6934C84.2429 66.7596 85.0556 67.4005 85.2844 67.6069C85.2964 67.6178 85.3132 67.6339 85.3249 67.6451L85.4775 67.8072C85.6152 67.9445 85.5243 67.8728 85.6908 67.9873L86.9848 68.9748C87.1898 69.1334 87.1999 69.2211 87.4567 69.2897L86.217 71.1183C85.5931 71.8085 85.0609 72.7156 84.4893 73.4816C84.3161 73.7137 84.2218 73.937 83.995 74.0888ZM39.072 62.7597C39.072 62.463 40.4101 61.9204 40.7241 61.8943V66.4574C40.384 66.4498 40.2694 66.364 39.9448 66.2927C39.6443 66.2267 39.4415 66.1427 39.072 66.1427V62.7597ZM83.995 60.0848C84.7679 60.1491 85.9695 60.7142 88.0075 60.7142C90.0478 60.7142 90.3867 60.8065 92.4029 60.4679C92.8524 60.3925 93.9588 60.1706 94.3014 60.0062V63.5465L92.9821 64.5088C92.5068 64.9016 89.4083 67.4003 89.1089 67.4802L85.9846 65.0186C85.6515 64.7701 84.2467 63.6137 83.995 63.5465V60.0848H83.995ZM15.7844 54.5776L17.8753 57.5219C19.296 59.3507 19.0101 57.5189 19.01 61.501C19.01 63.1308 19.2745 65.2587 19.6224 66.6325C19.8618 67.5782 20.1483 67.2279 17.9144 67.7221C17.5317 67.8067 17.281 67.9523 16.8072 67.9523L16.1322 65.0869C15.9525 64.0918 15.78 62.9278 15.7841 61.8159C15.7931 59.4039 15.7844 56.99 15.7844 54.5777V54.5776ZM21.449 60.7142C22.2448 61.1353 22.4924 61.4429 23.2572 61.8169C23.7342 62.0502 25.1467 62.5517 25.1467 62.8384C25.1467 66.5349 25.3786 66.0268 24.5172 66.2213C24.2537 66.2808 24.0566 66.3432 23.7618 66.41C23.2817 66.5188 22.5684 66.7379 22.1571 66.7721C22.1361 66.5209 22.0539 66.3193 22.0213 66.1211L21.449 60.7141L21.449 60.7142ZM80.0613 58.5113C80.062 58.5115 81.5561 59.1018 81.5561 59.3768V62.9171C81.5561 63.2346 80.5887 63.365 80.2973 63.3892C80.2973 62.5524 80.3351 59.124 80.0613 58.5114V58.5113ZM72.4299 42.0684V36.3252C72.4299 34.9953 73.1388 32.7757 73.6359 31.9453L73.7664 31.761C73.7762 31.7477 73.7909 31.7299 73.8006 31.7166C73.8104 31.7032 73.8249 31.6852 73.8345 31.6717C74.169 31.2013 74.3267 30.9006 74.7699 30.4043C75.3275 29.78 75.3258 29.7303 76.0027 29.1982C76.2381 29.0133 76.4553 28.8495 76.6778 28.6932L77.3892 28.2245C78.4419 27.5635 80.6072 27.0362 82.2661 27.0434C82.8542 27.046 83.9295 26.9221 84.4099 26.8269C86.2625 26.4598 86.0782 26.6053 88.0848 25.7028C89.169 25.2152 90.1073 24.5834 91.0221 23.8409C91.4781 23.4707 92.5042 22.4979 92.8524 22.0522L93.8435 20.683C94.0296 20.4094 94.1937 20.2392 94.3801 19.9609C95.1241 19.9609 98.7933 19.9858 99.3588 20.1746C99.7371 20.301 100.335 20.5112 100.63 20.7133C101.441 21.2697 101.804 21.7529 102.248 22.6354C103.449 25.0213 101.734 27.5777 103.794 31.6321C104.614 33.2479 105.709 34.1452 105.709 36.7972C105.709 38.7799 105.815 42.0421 105.557 43.8826L104.788 47.2054C104.676 47.4677 104.596 47.6434 104.485 47.9245C104.364 48.2302 104.28 48.3481 104.168 48.6306C103.52 50.263 102.054 52.2041 100.812 53.4567C100.587 53.6828 100.512 53.7421 100.269 53.9366C100.058 54.1051 99.9496 54.2517 99.7305 54.421L97.9541 55.7129C97.4767 56.0634 96.5046 56.5115 95.9545 56.7816C95.4537 57.0276 95.0582 57.2232 94.4905 57.3631C93.9279 57.5018 93.4438 57.658 92.8952 57.8134C90.3118 58.5448 87.1118 58.3577 84.5721 57.6195C82.8443 57.1173 82.5732 56.9285 80.9527 56.1251C79.3052 55.3082 79.3252 55.0961 78.9151 54.0716C78.8499 53.9088 78.8445 53.8855 78.7811 53.7336L78.3056 52.6355C77.0022 50.0491 76.6026 49.8602 74.959 47.7999C74.1984 46.8463 73.1181 46.3248 72.9601 45.7078C72.7034 44.706 72.4298 43.347 72.4298 42.0684H72.4299ZM67.2374 38.6067C67.4319 38.7492 67.7704 39.4955 68.3825 39.9793C68.8109 40.3179 69.431 40.8365 69.991 40.967C69.991 41.6142 69.9471 42.3289 70.0697 42.8551C69.709 42.8251 69.2786 42.5351 68.8666 42.3275C68.4609 42.1231 67.552 40.8821 67.364 40.2897C67.1908 39.7435 67.2374 39.2788 67.2374 38.6067ZM108.148 42.8551C108.266 42.3507 108.227 41.7427 108.227 41.1243C108.407 41.0377 108.456 41.0359 108.655 40.9231C109.027 40.7122 109.511 40.4324 109.782 40.1621C110.22 39.7265 110.586 39.2965 110.98 38.8428C110.98 40.7093 109.91 42.4448 108.148 42.8551H108.148ZM69.991 38.056C69.4591 37.6998 68.9683 36.5373 68.9683 35.6171V24.9961C68.9683 23.0173 69.1853 21.4246 69.5999 19.7271C69.7441 19.1365 69.6383 19.0455 70.0021 18.0838L72.3389 13.1039C73.2013 11.9451 74.0266 10.7723 75.0458 9.75296C76.1136 8.68521 77.3727 7.4739 78.677 6.69672C79.009 6.49885 79.2172 6.40295 79.5101 6.19235L80.3427 5.68751C81.0193 5.28073 83.2748 4.29335 84.1294 4.12435C86.1135 3.73196 87.083 3.2033 89.8957 3.2033C91.0628 3.2033 91.8822 3.49372 92.6305 4.24489C93.1388 4.75512 93.7507 5.53251 93.7507 6.50766V13.5097C93.7507 14.7014 93.0187 17.3044 92.4936 18.2319C91.0355 20.8073 90.065 21.5443 87.6631 23.1569C86.9532 23.6335 84.5656 24.3492 83.6499 24.4935C82.5503 24.6669 82.2993 24.5579 81.4771 24.6023C80.3319 24.6642 79.3152 24.8091 78.2606 25.1621L75.0919 26.7926C74.0105 27.6782 73.5762 27.8485 72.5529 29.21C72.422 29.3841 72.3458 29.5037 72.2115 29.6555C71.5714 30.3788 70.973 31.7424 70.6308 32.6378C70.0242 34.2245 69.991 35.8906 69.991 38.056ZM96.1109 5.40616C96.8555 5.42275 98.2903 5.74977 98.8748 5.94657C99.2416 6.07007 99.7147 6.23984 100.072 6.40183C101.193 6.91027 101.098 6.71831 102.28 7.49763L103.283 8.14714C103.915 8.61471 104.503 9.12214 105.061 9.67355C105.843 10.4471 107.458 12.7183 107.776 13.5665C107.869 13.8137 107.892 13.9263 107.988 14.142L108.648 15.9997C108.872 16.8597 109.092 17.8219 109.092 18.8595V36.7185C109.092 36.9252 108.86 37.4357 108.777 37.583C108.633 37.8367 108.467 38.0528 108.227 38.2133C108.227 36.3044 108.204 35.2101 107.64 33.6078L107.361 32.8642C107.183 32.4328 106.869 31.8932 106.607 31.4936C105.165 29.2957 105.079 28.1865 105.08 24.6814C105.08 23.555 104.981 22.2234 104.37 21.2214C103.731 20.1733 102.884 19.2188 101.841 18.5581C101.386 18.2698 100.214 17.7721 99.6063 17.6457C98.5443 17.4249 96.7388 17.522 95.4815 17.522C95.5099 17.1815 95.6673 16.8858 95.7639 16.5456C96.1454 15.2024 96.1896 14.4729 96.1896 12.9589V6.58626C96.1896 6.063 96.1109 5.90524 96.1109 5.40616ZM64.7199 39.0001C64.7199 39.9124 64.8743 40.7415 65.1925 41.517L65.5066 42.2258C64.4982 41.7419 61.7493 41.5177 60.5501 41.5177C58.5798 41.5177 56.7049 41.88 54.8563 42.3539C53.7948 42.626 52.9508 43.1249 52.2239 43.4192C51.9096 43.5465 51.5084 43.8033 51.1878 43.8779C51.1878 42.5833 51.1704 41.3942 51.1096 40.1798C51.0588 39.1674 50.804 37.8927 50.5593 36.9537C50.1862 35.5222 48.7548 32.3414 47.7077 31.2298C47.5217 31.0323 47.4143 30.9549 47.2525 30.7409C47.1165 30.561 46.9921 30.3892 46.8512 30.1981L44.3775 27.9513C43.5964 27.323 41.7856 26.2468 40.7539 25.9103C40.28 25.7557 39.775 25.4983 39.3079 25.3894C39.1122 25.7973 38.6442 27.2959 38.5999 27.8283C39.1561 27.8746 39.7652 28.1543 40.2261 28.4049C40.4414 28.522 40.5591 28.5316 40.7773 28.6405L41.7363 29.1763C42.3928 29.5317 42.9248 30.0128 43.5121 30.4689C43.8348 30.7196 44.0039 30.9115 44.2841 31.1917C45.7518 32.6594 46.9295 34.1835 47.648 36.1673C48.9391 39.732 48.7489 41.5928 48.7489 45.3728C48.7489 45.5666 48.6797 45.5546 48.5628 45.6587C47.7635 46.3709 47.6427 46.3609 46.6443 47.3593C46.3183 47.6853 45.9125 48.0383 45.635 48.3955L44.4209 49.935C44.3752 49.9893 44.3374 50.0325 44.2807 50.1095C43.8257 50.727 43.4786 51.3449 43.1374 52.0345L42.457 53.3996C41.7901 54.9104 41.3185 56.4079 41.051 58.1302C40.9942 58.4959 41.0133 58.6822 40.7761 58.8781C39.9025 59.5995 37.7737 60.5053 36.5999 60.8384C36.3094 60.9209 36.0675 61.0218 35.8135 61.0749C34.809 61.285 33.128 61.501 32.1486 61.501C30.8748 61.501 29.6885 61.2681 28.5947 61.1212C26.6873 60.865 23.1239 59.173 21.8212 57.9032C21.5886 57.6765 21.558 57.6121 21.2763 57.4252C20.6204 56.99 19.4065 55.4975 18.9084 54.8367C17.6328 53.1441 16.9236 51.4156 16.3254 49.3949C15.6186 47.0076 15.7844 44.1067 15.7844 41.5965C15.7844 39.8235 16.6491 36.8573 17.6406 35.3493C18.4276 34.1522 18.995 33.313 20.0131 32.2932L21.5117 31.0383L24.0452 29.5593C25.192 28.9841 25.5586 28.7679 26.5961 28.0192C27.1346 27.6306 27.6502 27.2591 28.1173 26.7867C29.0354 25.8581 29.8474 24.9078 30.5761 23.8171L31.5727 22.1387L32.356 20.1684C33.2868 17.4317 33.2501 15.9908 33.2501 13.1164C33.2501 12.9351 33.1954 12.8804 33.0141 12.8804H30.8112C30.8112 15.5029 30.6526 17.8994 29.7445 20.1531C29.5813 20.5581 29.4805 20.7457 29.271 21.0957L28.2318 22.8888C27.8523 23.4592 27.4214 23.8692 27.0017 24.4123C26.4807 25.0864 24.1856 26.8021 23.3843 27.1675C22.5037 27.5691 20.9401 28.2577 20.2134 28.8745C19.6182 29.3795 18.3795 30.3005 17.9317 30.8412C17.5541 31.2969 16.5518 32.3281 16.3077 32.7576L15.9351 33.4077C15.2055 34.3335 14.5678 35.8335 14.201 36.9448C13.9788 37.6178 13.6793 38.3719 13.5939 39.1699C13.4984 40.0611 13.3456 40.8168 13.3456 41.7539V61.4224C13.3456 62.2485 13.4864 64.4214 13.636 65.3018C13.7475 65.9578 13.8531 66.443 14.0065 67.0554C14.1403 67.5898 14.4047 68.2307 14.447 68.7391C13.2108 68.842 10.1364 71.0988 9.35636 71.752C8.73301 72.2738 7.88116 73.2134 7.38854 73.8752C6.96526 74.444 6.43314 75.0317 6.14124 75.6962C6.05694 75.8881 6.10596 75.8322 5.9929 76.0199C5.85744 76.2449 5.87327 76.0691 5.79279 76.3705C5.42917 76.127 4.69572 74.9638 4.4703 74.546C4.10113 73.8619 3.84436 73.0949 3.54427 72.3251C3.22998 71.5188 3.1244 70.674 3.04331 69.6791L3.01521 68.5935C3.03603 67.1684 3.17073 65.5004 3.75925 64.2667C4.13651 63.4758 4.42026 62.6223 4.93711 61.9042L5.04091 61.772C5.65417 61.0221 6.16578 60.1802 6.93965 59.5796C7.12642 59.4346 7.18583 59.3449 7.35458 59.2078C7.50837 59.0828 7.62729 58.9941 7.79553 58.8621C8.18741 58.5546 9.01549 57.6871 9.30051 57.2201C10.9309 54.5485 10.5919 52.4275 10.5919 49.0706V30.11C10.5919 25.9256 10.5771 25.1215 11.5804 21.6577C11.6669 21.3591 11.6806 21.3277 11.7837 21.0741C12.1427 20.1904 12.2184 19.8133 12.7171 18.8606C13.7811 16.8277 14.0342 16.3622 15.4944 14.5573C16.0821 13.8309 16.7003 13.1387 17.4133 12.5425L18.6771 11.446C20.1919 10.1995 21.7591 9.27572 23.5751 8.47665C25.8159 7.4907 28.9808 6.74381 31.3619 6.74381C35.8769 6.74381 35.7536 7.08733 39.1958 7.95746C39.5047 8.03555 39.8818 8.20899 40.1476 8.34317C40.4764 8.50918 40.7364 8.59653 41.0657 8.76254C41.3731 8.91755 41.6239 9.05509 41.9157 9.17131C42.5328 9.41709 42.9933 9.77297 43.5406 10.1426C44.4684 10.7692 45.8218 11.5751 46.4987 12.4557C46.745 12.7761 46.9329 12.7543 47.237 13.0548C47.6098 13.4231 47.7012 13.6655 48.1303 14.0497C48.9385 14.7733 49.9873 16.4768 50.5924 17.4882C51.2761 18.6309 51.3486 18.8322 51.9172 20.0971C52.8616 22.1975 53.6267 25.483 53.6267 27.6712V39.1577H56.0656C56.0656 34.5774 56.2242 29.6828 55.9041 25.1578C55.8524 24.4263 55.592 23.4213 55.4207 22.7303C55.1675 21.7093 54.4111 19.3104 53.8668 18.3836C53.406 17.5989 53.1607 16.7223 52.6273 16.0041C51.7866 14.8722 51.1135 13.6238 50.1463 12.5845C48.6189 10.9433 46.9913 9.32098 45.0475 8.16368C44.8763 8.06182 44.79 8.02165 44.6118 7.89128C43.5901 7.14368 42.4028 6.6139 41.2231 6.08753C41.0545 6.01229 40.8841 5.93202 40.7256 5.87699C39.2501 5.36492 37.6828 4.86956 36.1183 4.58372L32.6207 4.30496C30.8438 4.30496 30.2605 4.40799 28.6023 4.535C26.5219 4.69434 23.6863 5.62276 21.7636 6.58646C20.3861 7.27695 18.5139 8.23897 17.3899 9.29349C17.3836 9.29944 17.2701 9.40405 17.2671 9.40665C17.0037 9.6315 16.6112 9.80774 16.395 10.0294C16.1998 10.2294 16.3049 10.2097 16.0668 10.4093C15.4036 10.9653 14.807 11.6195 14.1911 12.2313C13.7597 12.66 13.4283 13.1637 13.005 13.6414C12.4223 14.2991 11.4965 15.745 11.1039 16.5393C10.7499 17.2553 10.4403 17.8049 10.0922 18.5173C9.9122 18.8855 9.88512 19.166 9.70048 19.5418L8.9231 21.754C8.38029 23.9141 8.07434 26.0075 8.07434 28.3006C8.07434 36.168 8.07434 44.0355 8.07434 51.9029C8.07434 53.8864 7.89073 55.5363 6.34227 56.7795C6.11762 56.9598 6.18293 56.9576 5.9927 57.1379C5.68589 57.429 5.4506 57.4544 5.14079 57.7809L4.43564 58.5706C4.16726 58.8381 3.93508 59.0201 3.71461 59.3444C3.49378 59.6691 3.32024 59.8559 3.11748 60.1634C2.91258 60.4742 2.7422 60.7244 2.5317 61.0725L1.54337 63.0737C0.476733 65.7912 0.133067 69.3005 0.960696 72.1551C1.17058 72.8791 1.23141 73.4198 1.55899 74.1531L2.39747 75.9109C2.49785 76.1036 2.62028 76.2856 2.7196 76.4541C2.85872 76.69 2.88784 76.746 3.07441 76.9647C3.60679 77.5888 3.99678 78.4232 4.69129 78.8882C4.45799 79.8897 4.17912 80.7305 4.0151 81.7523C3.85796 82.7312 3.82589 84.0187 3.82589 85.1035V106.975C3.82589 107.156 3.88061 107.211 4.06189 107.211H33.7221V104.772H6.34349V84.0807C6.34349 82.5175 6.65101 81.3271 6.9143 80.0097C7.05658 79.2976 7.59125 78.2327 7.94377 77.5775L9.81675 74.8087C10.99 73.3519 13.4297 71.6818 15.3033 71.0117C16.5814 70.5546 18.5784 70.1102 19.9336 69.8202L26.5931 68.2975C26.9412 68.2166 27.2656 68.1844 27.5856 68.1099V63.4681C28.5796 63.4902 29.7185 63.9401 31.0472 63.9401C33.2897 63.9401 34.3794 63.8962 36.5544 63.3894C36.5544 68.9076 36.1615 68.0005 37.6756 68.3261C38.0628 68.4094 38.371 68.4849 38.6945 68.5661C39.3921 68.7413 40.0432 68.8954 40.7241 69.054C40.7241 71.0474 40.7305 73.0419 40.7223 75.0351C40.7186 75.938 40.9373 76.8691 41.1674 77.5796C41.5127 78.6456 41.536 78.7339 42.1159 79.6994C42.9592 81.1035 44.5749 82.6693 46.084 83.284C47.4878 83.8559 48.7789 84.1595 50.4011 84.1595V81.6419C48.481 81.6419 47.6017 81.3892 46.0737 80.3834C45.427 79.9577 44.8427 79.3694 44.4368 78.716C43.6347 77.4248 43.2418 76.4976 43.2418 74.8758V61.5799C43.2418 60.7981 43.3222 60.2277 43.3188 59.5327C43.31 57.743 44.5463 54.5487 45.4189 52.9786C45.6292 52.6003 45.7976 52.2322 46.0729 51.9017L46.2796 51.6364C46.9034 50.7287 47.456 50.0096 48.2179 49.2477C48.9508 48.5149 49.7088 47.8672 50.5462 47.2489C50.9613 46.9425 51.3956 46.7052 51.8328 46.4113C52.2842 46.1078 52.7276 45.8658 53.266 45.6416C53.5477 45.5244 53.7227 45.4676 53.9939 45.3467C56.7142 44.1341 59.8596 43.7835 62.8277 44.1969C64.4348 44.4207 65.5406 44.7032 67.0006 45.2952C67.6427 45.5556 68.2383 45.7867 68.8362 46.1345L71.6776 48.0923C72.7962 48.961 74.4786 50.8642 75.1439 52.1C75.2474 52.2922 75.2372 52.2921 75.3403 52.4543C77.0094 55.0783 77.7798 58.1193 77.7798 61.2652C77.7798 63.449 77.9239 75.1142 77.6574 76.4057C77.5578 76.8886 77.395 77.2349 77.2209 77.6214C76.7258 78.7208 75.9743 79.6389 75.0049 80.3618C74.5556 80.6969 73.9877 81.0792 73.4384 81.2342C72.6508 81.4564 71.9077 81.6419 71.0138 81.6419V84.1595C72.162 84.1595 73.1772 83.899 74.0729 83.5996C75.8239 83.0145 77.4074 81.8804 78.4564 80.3517C79.1489 79.3425 79.5193 78.7424 79.8695 77.5163C80.324 75.925 80.2973 74.4753 80.2973 72.7517C80.2973 70.4701 80.2973 68.1886 80.2973 65.907C80.7642 65.8682 81.0262 65.671 81.5561 65.671V76.8428C81.5561 77.2657 81.7058 77.4935 81.9126 77.7452C82.4223 78.3652 82.9506 78.259 83.6804 78.259C84.3107 78.259 84.8805 77.2038 85.2207 76.731C85.6787 76.0942 86.0677 75.5058 86.5246 74.8879L87.8177 73.1128C88.2469 72.6468 88.827 71.7898 89.1089 71.257C89.2825 71.3842 89.4214 71.6393 89.5766 71.812C89.6595 71.9043 89.617 71.849 89.6921 71.9326C90.3762 72.6943 91.5224 74.5965 92.2725 75.5674C92.2866 75.5856 92.3282 75.6367 92.3432 75.654C92.3538 75.6663 92.3701 75.6829 92.381 75.6949C92.984 76.3617 93.7556 78.1136 94.6261 78.2526C95.0492 78.3201 95.1119 78.3004 95.4822 78.2659C96.3664 78.1836 96.819 77.3708 96.819 76.4495V65.671C97.3658 65.671 98.2942 65.9434 98.8313 66.0976C99.1812 66.1981 99.4711 66.2643 99.8421 66.3456L104.923 67.4795C105.261 67.5609 105.51 67.6496 105.859 67.724C107.842 68.1458 110.305 69.1951 111.901 70.4939C112.372 70.8772 113.525 71.7992 113.858 72.2341C114.416 72.9625 115.022 73.5722 115.499 74.3698C115.83 74.9238 116.117 75.3899 116.435 75.9516C116.782 76.5661 117.251 77.91 117.461 78.6231C117.565 78.9778 117.623 79.2641 117.716 79.6272C117.798 79.9506 117.888 80.3583 117.903 80.6983C117.924 81.1806 117.981 81.4595 117.985 81.875C117.994 82.7438 118.061 83.3951 118.061 84.3169V104.536C118.061 104.718 118.006 104.772 117.825 104.772H107.755V84.4743H105.316V104.772H85.8046V107.211H120.5V82.2714C120.5 80.1391 119.849 77.6732 119.003 75.7436C118.71 75.0745 118.522 74.534 118.136 73.936C117.271 72.5979 116.389 71.2659 115.25 70.1344C114.989 69.8747 114.801 69.7734 114.54 69.5068C113.896 68.8475 113.051 68.2713 112.272 67.7627C111.965 67.5622 111.742 67.4603 111.419 67.2784C111.094 67.0958 110.893 66.9249 110.589 66.7702L108.697 65.988C108.081 65.7149 107.335 65.5055 106.669 65.3402L103.381 64.6165C101.922 64.2483 100.52 63.8203 99.025 63.6224C98.2901 63.5252 97.5762 63.1704 96.819 63.1535V59.2985C96.819 59.0132 97.4475 58.8272 97.7115 58.6962C98.1051 58.5008 98.3356 58.3463 98.7344 58.1456C99.5782 57.7211 100.693 56.881 101.401 56.2486C102.989 54.8286 104.166 53.4265 105.36 51.7116C105.903 50.9332 106.299 50.0523 106.676 49.1723C107.05 48.2988 107.734 46.4534 107.755 45.5305C108.972 45.247 109.925 44.9523 110.914 44.2054C113.239 42.4502 114.278 38.9249 112.844 36.2717L112.209 35.1755C111.832 34.6659 111.598 34.8905 111.606 34.0481L111.61 20.3547C111.61 17.9069 111.334 17.5644 111.133 15.7173C111.096 15.3684 110.861 14.6811 110.755 14.3644C110.604 13.9091 110.451 13.5881 110.274 13.1941C109.744 12.0163 109.199 10.8883 108.418 9.85671C107.193 8.23734 105.782 6.79044 104.072 5.70615C103.253 5.18675 102.76 4.86727 101.855 4.46119C100.394 3.80466 99.5024 3.53043 97.9144 3.20977C97.0308 3.03134 95.8069 2.88901 94.7735 2.88901C94.6636 2.47739 93.4695 1.67862 93.0102 1.42664C91.3333 0.506614 90.0198 0.856592 88.2435 0.843509C86.9241 0.833735 85.5604 1.17557 84.4341 1.43987L81.9251 2.23518C81.4263 2.43086 80.835 2.6298 80.3784 2.89135C80.1406 3.02758 79.9406 3.16085 79.667 3.28145C79.0966 3.53277 78.7525 3.73044 78.227 4.04427L76.8669 4.88712C75.6253 5.83692 74.4289 6.83972 73.3149 7.94372C73.0735 8.18287 73.0139 8.27511 72.8001 8.53041C72.6073 8.7606 72.4571 8.8645 72.2724 9.10417C72.1121 9.31232 71.9604 9.48143 71.7756 9.70878L70.3684 11.6059C69.7677 12.5016 69.3264 13.5162 68.8229 14.4661C68.5493 14.9824 68.3793 15.4176 68.1297 15.9758C67.4514 17.4927 66.5439 21.413 66.5263 23.184L66.4547 34.1268C66.461 34.786 66.4824 34.5705 66.1605 34.934C65.9989 35.1164 65.8546 35.3657 65.7098 35.5848C65.0669 36.5579 64.7199 37.7916 64.7199 39.0006V39.0001Z" fill="#7730DF"/>
<path fill-rule="evenodd" clip-rule="evenodd" d="M77.3081 90.6085C77.7241 90.8286 78.5903 91.7913 78.8362 92.1487C79.9411 93.7543 80.351 94.411 80.8342 96.3659C81.3397 98.411 81.1631 102.479 81.1631 104.77H77.3081V90.6085L77.3081 90.6085ZM46.3104 89.035C46.3104 88.7961 47.2289 88.4318 47.5231 88.3594C47.8176 88.2869 48.018 88.2759 48.3093 88.2015C48.5984 88.1277 48.8659 88.0353 49.1427 88.0122L49.1424 96.0373C49.1401 96.4228 49.0202 96.9811 49.3787 96.9811H72.1943V88.0909C72.4541 88.1125 72.6661 88.1928 72.9008 88.2498C73.192 88.3205 74.8693 88.6892 74.8693 89.1136V104.77H46.3105V89.0349L46.3104 89.035ZM43.6355 104.77H39.8591C39.8591 102.534 39.6893 98.4085 40.1729 96.4294C40.2879 95.9587 40.3774 95.6651 40.5377 95.2207C41.1868 93.4199 41.5072 93.0659 42.6126 91.6311L43.8715 90.4511C43.8715 94.8124 43.8027 99.7205 43.8743 104.064C43.88 104.415 43.9672 104.77 43.6355 104.77H43.6355ZM51.5816 94.2275V87.6188C51.5816 87.2155 53.1737 87.0953 53.6367 86.999C56.0184 86.5033 54.9648 86.3274 56.5523 87.2899C58.5067 88.4748 59.4401 88.3269 61.5733 88.3269C62.5202 88.3269 63.8853 87.6351 64.6671 87.1723C64.799 87.0943 65.4955 86.5961 65.507 86.5961C66.1364 86.5961 66.933 86.931 67.5848 87.0358L69.7554 87.4615V94.4635H51.8176C51.6364 94.4635 51.5816 94.4088 51.5816 94.2275V94.2275ZM57.1675 83.1344C57.5848 83.3346 60.1281 83.4491 60.8652 83.4491C61.3361 83.4491 63.5748 83.2687 63.8548 83.1344V84.7866C63.5926 84.8566 63.7493 84.8234 63.5499 84.9537L62.5866 85.4852C60.8636 86.1298 59.4221 86.0563 57.8206 85.1563L57.1675 84.7866V83.1344ZM60.8652 81.0102C59.4865 81.0102 58.7766 80.9867 57.4496 80.6495L55.6617 80.077C54.3928 79.6286 55.1267 79.8627 54.0992 79.358C52.7764 78.7083 51.5674 77.741 50.6152 76.6268L50.3311 76.3601C50.3193 76.349 50.3025 76.333 50.291 76.3216L49.5205 75.3613C48.6768 74.123 48.163 73.3289 47.5796 71.795C47.4973 71.5785 47.4683 71.4396 47.3785 71.2093C46.8546 69.8653 46.4998 68.0624 48.1967 67.3977C48.4851 67.2848 51.4942 66.9359 52.111 66.8275C52.5025 66.7588 52.9775 66.638 53.3326 66.5543C54.1929 66.3516 54.8813 66.1802 55.7078 65.9399L56.8819 65.6192C57.5779 65.4426 60.4447 64.2676 61.1174 63.8755L63.054 62.8224C64.7266 61.7235 66.6211 60.1997 67.8204 58.6199C68.0491 58.3185 68.3592 58.0614 68.7155 58.3634C68.9634 58.5736 69.0841 60.3589 69.7956 61.7737C70.5938 63.3611 71.3971 64.41 72.6451 65.6115C74.2372 67.144 74.7891 66.5724 73.8653 70.5654C73.7188 71.1984 73.1892 72.4075 72.8767 72.9598C72.481 73.6591 72.5007 73.9629 71.6891 75.0766C71.4318 75.4297 71.249 75.6788 70.9814 76.0211C70.3436 76.8366 69.2334 77.8509 68.3714 78.4463L66.8101 79.4025C65.9551 79.9205 66.0114 79.8416 65.0651 80.1751C63.6873 80.6605 62.4558 81.0104 60.8652 81.0104V81.0102ZM44.4223 69.1303C44.4223 69.9967 44.9594 72.008 45.3028 72.813L46.4817 75.253C46.6084 75.4683 46.6683 75.4857 46.8082 75.7133C47.9279 77.5338 49.2656 79.0038 50.9745 80.2798C51.2898 80.5152 51.4763 80.6576 51.8132 80.8574C52.1052 81.0305 52.4479 81.2173 52.739 81.4263C54.7243 82.8512 54.65 81.1899 54.65 83.9998C54.65 84.2985 53.6091 84.4497 53.1487 84.544C52.5531 84.6661 52.0454 84.8296 51.433 84.9526C51.1636 85.0067 50.8293 85.0356 50.5576 85.0999C48.6599 85.5487 46.6687 85.9069 44.9206 86.7797C44.6665 86.9065 44.4796 86.9913 44.2493 87.1311C42.9913 87.8947 43.6402 87.3774 42.3535 88.461C41.7818 88.9425 40.6124 90.0183 40.2504 90.5277L39.4196 91.7424C38.7296 92.88 37.862 94.925 37.6444 96.2612C37.2983 98.3867 37.4203 104.786 37.4203 107.209H83.6021C83.6021 105.145 83.7183 98.0441 83.3866 96.3312C82.9234 93.9389 82.0431 92.4116 80.804 90.5744C80.4651 90.0717 78.7291 88.4268 78.1298 87.9773C77.4139 87.4403 77.4926 87.5718 76.8702 87.1914C74.7941 85.9227 72.0188 85.413 69.6548 84.9658L67.1119 84.3618C66.2116 84.1421 66.3724 84.5 66.3724 82.505C66.3724 82.1795 67.3779 81.9991 68.1551 81.5341C68.1698 81.5253 68.1894 81.5133 68.2037 81.5041L68.5705 81.2415C68.6587 81.1848 68.7244 81.1468 68.8154 81.0929L70.2283 80.1456C71.1456 79.4439 71.5 79.103 72.2942 78.2778C73.2244 77.3115 74.5937 75.2897 75.1583 74.0611C75.7019 72.8781 75.7272 72.9278 76.0394 71.7953C76.1562 71.3717 76.2643 71.0108 76.3923 70.5747C76.8276 69.0905 77.077 67.2479 76.3107 65.8794C75.6797 64.7525 75.4124 64.7373 74.4942 63.9194C73.9149 63.4034 74.0578 63.6206 73.5428 62.9827C72.6086 61.8254 71.8831 60.7734 71.5326 59.2497C71.4472 58.8785 71.4154 58.524 71.3316 58.192C71.1626 57.5228 70.9125 56.9612 70.4409 56.5651C69.3374 55.6384 67.4582 55.48 66.3524 56.6011C66.1392 56.8172 65.9989 56.9414 65.8216 57.1717C64.8514 58.4313 63.536 59.52 62.2038 60.3986C60.5671 61.478 58.5984 62.3856 56.7242 63.0224C54.8756 63.6506 55.0243 63.5669 53.171 64.0324C51.9711 64.3337 50.6355 64.5781 49.2669 64.77C48.3515 64.8984 47.9191 64.8257 47.2873 65.0719C45.631 65.7173 44.4223 67.308 44.4223 69.1303H44.4223Z" fill="#7730DF"/>
<path fill-rule="evenodd" clip-rule="evenodd" d="M11.2197 79.8322H38.6771V77.3933H11.2197V79.8322Z" fill="#7730DF"/>
<path fill-rule="evenodd" clip-rule="evenodd" d="M87.9297 101.861C87.9297 102.042 87.9845 102.097 88.1657 102.097H90.1326C90.3139 102.097 90.3686 102.042 90.3686 101.861V77.0782H87.9297V101.861H87.9297Z" fill="#7730DF"/>
<path fill-rule="evenodd" clip-rule="evenodd" d="M55.1201 75.0328C55.651 76.0362 56.1761 76.7307 57.1536 77.4051C57.3621 77.5489 57.599 77.6937 57.8269 77.8332C58.0744 77.9847 58.3216 78.0912 58.5882 78.1734C59.9452 78.5918 61.1213 78.5367 62.4826 78.2256C63.1061 78.083 64.1364 77.4038 64.6226 76.9826C65.1534 76.5228 65.9963 75.6702 66.0559 74.9541C65.6536 74.8604 64.3457 74.1504 63.9317 73.9314C63.4955 74.5828 63.3834 74.9014 62.69 75.3647C60.7113 76.687 58.4121 75.9897 57.323 73.9314L55.1201 75.0328Z" fill="#7730DF"/>
<path fill-rule="evenodd" clip-rule="evenodd" d="M84.7031 49.4626C85.0091 50.7757 87.1315 52.2948 88.7942 52.2948C89.9321 52.2948 91.313 52.1372 92.0807 51.4115C92.605 50.9159 93.5323 50.1961 93.5933 49.4626C91.1661 48.1782 91.5086 48.4444 91.0943 48.9304C90.8532 49.2132 90.3265 49.6326 90.0114 49.7357C89.5614 49.8829 88.901 49.8601 88.4218 49.7563C88.0454 49.6748 87.5305 49.3092 87.2787 49.0112C86.9284 48.5966 87.2291 48.1967 85.7503 48.9362C85.3851 49.1188 85.0993 49.3703 84.7032 49.4626L84.7031 49.4626Z" fill="#7730DF"/>
<path fill-rule="evenodd" clip-rule="evenodd" d="M27.6651 53.0041C27.9602 54.2707 30.0207 55.8364 31.7561 55.8364C33.352 55.8364 34.9009 55.3559 35.8037 54.1407C36.0355 53.8286 36.3861 53.3927 36.4766 53.0041L34.8401 52.2804C34.6319 52.1776 34.5453 52.0678 34.1951 52.06C33.8993 53.1674 31.7258 54.0531 30.5101 52.7553C30.4042 52.6422 30.4307 52.6698 30.306 52.5659C30.1051 52.3986 30.018 52.3275 29.9466 52.0599C29.0887 52.2598 28.4402 52.8234 27.665 53.004L27.6651 53.0041Z" fill="#7730DF"/>
<path fill-rule="evenodd" clip-rule="evenodd" d="M37.0274 42.4623V42.8556H39.2303C39.6639 42.8556 39.4151 42.2821 39.7319 41.9411C39.8745 41.7876 40.4134 41.5086 40.6739 41.4729C41.5199 41.3571 42.0753 42.0629 42.1413 42.8556C42.5871 42.8556 43.033 42.855 43.4788 42.8557C44.4157 42.8572 44.5802 43.0214 44.5802 42.3836C44.5802 41.51 43.9151 40.5735 43.4711 40.1097C43.1633 39.7882 42.8637 39.5906 42.4577 39.3922C40.5361 38.4531 38.2971 39.216 37.3928 41.0969C37.2274 41.4411 37.0273 41.9934 37.0273 42.4623H37.0274Z" fill="#7730DF"/>
<path fill-rule="evenodd" clip-rule="evenodd" d="M21.9989 42.8544C22.067 42.0361 22.5413 41.4834 23.3461 41.4651C24.2602 41.4442 24.5733 42.085 24.7525 42.8544H27.1127C27.1127 41.2802 26.5239 40.1696 25.1213 39.4173C23.3045 38.4428 20.968 39.2018 20.0565 40.9121C19.9311 41.1474 19.4182 42.5727 19.6296 42.784C19.8031 42.9576 21.5955 42.8545 21.9989 42.8545V42.8544Z" fill="#7730DF"/>
<path fill-rule="evenodd" clip-rule="evenodd" d="M76.5987 39.6297H79.1163C79.5616 37.7182 81.3746 38.1484 81.672 39.1981C81.8432 39.8023 81.4778 39.6297 84.2301 39.6297C84.2301 36.6528 81.1561 35.1382 78.8329 36.1994C78.0245 36.5687 77.3102 37.3093 76.9784 38.1212C76.89 38.3376 76.8023 38.5329 76.736 38.8229C76.6796 39.0694 76.7057 39.4064 76.5986 39.6297H76.5987Z" fill="#7730DF"/>
<path fill-rule="evenodd" clip-rule="evenodd" d="M94.0665 39.3941V39.6301H96.5841C96.5841 39.1714 96.712 38.9812 96.9535 38.7407C97.5123 38.1846 98.176 38.1426 98.7726 38.7003C99.0098 38.9221 99.147 39.23 99.1803 39.6301H101.698C101.634 39.3566 101.644 39.1892 101.589 38.8739C101.539 38.5912 101.455 38.4153 101.351 38.1676C100.948 37.2111 100.399 36.7001 99.5218 36.2203C98.5057 35.6647 96.1623 35.7566 95.3244 36.8756C95.0856 37.1945 94.0664 37.9223 94.0664 39.3941H94.0665Z" fill="#7730DF"/>
<path fill-rule="evenodd" clip-rule="evenodd" d="M45.8369 57.0158C45.9114 57.295 46.0985 57.3977 46.2892 57.5863C46.8952 58.1859 49.8369 61.2026 50.164 61.4216L51.9141 59.71L47.5873 55.3442C47.2706 55.4415 45.9778 56.8055 45.837 57.0159L45.8369 57.0158Z" fill="#7730DF"/>
<path fill-rule="evenodd" clip-rule="evenodd" d="M48.4355 54.4223L49.4583 55.5238C50.1063 56.0175 50.1644 56.3175 50.5403 56.6446C50.7633 56.8387 50.8707 56.8941 51.0922 57.1156C51.3231 57.3465 51.3945 57.4834 51.6005 57.7087L52.7627 58.7494C53.0664 58.6683 54.3578 57.2998 54.4935 57.0973L50.1859 52.7507C49.8692 52.848 48.5765 54.212 48.4355 54.4224V54.4223Z" fill="#7730DF"/>
<path fill-rule="evenodd" clip-rule="evenodd" d="M64.3252 68.5803V69.6031C64.3252 70.9925 66.6854 70.9482 66.6854 69.5244V68.5016C66.6854 67.1675 64.3252 66.9522 64.3252 68.5803Z" fill="#7730DF"/>
<path fill-rule="evenodd" clip-rule="evenodd" d="M54.6504 68.897C54.6504 71.456 57.0893 70.8267 57.0893 69.3691C57.0893 68.6663 57.1627 67.4022 55.8305 67.4022C55.1483 67.4022 54.6504 68.0523 54.6504 68.897Z" fill="#7730DF"/>
</svg>
