<svg width="121" height="85" viewBox="0 0 121 85" fill="none" xmlns="http://www.w3.org/2000/svg">
<path fill-rule="evenodd" clip-rule="evenodd" d="M113.155 77.1409C115.926 76.7984 116.444 77.2605 116.427 74.284C116.319 55.3025 116.599 36.2779 116.418 17.2425C117.594 17.5091 117.892 17.9382 117.96 19.2825C118.013 20.3372 117.957 21.5598 117.957 22.6336V68.3895C117.957 83.577 119.399 81.8662 111.786 81.8662C106.413 81.8662 80.6226 82.1431 79.4559 81.7431L113.154 77.1408L113.155 77.1409ZM3.10541 19.4916C3.10541 18.0556 3.39472 17.5258 4.64424 17.2425C4.46318 36.3863 4.70269 55.5497 4.63217 74.6832C4.62772 75.88 4.53039 76.5026 5.60279 76.8037L30.5939 80.2303C31.9587 80.4122 41.0965 81.5473 41.6082 81.8304L5.3493 81.8663C3.71517 81.8663 3.10541 81.3169 3.10541 79.5832V19.4916ZM113.986 7.48396L113.983 74.5527C112.358 74.8186 82.3602 79.0665 81.0551 78.8936C81.8069 78.9133 89.2373 76.7933 90.7229 76.4019L107.964 71.8572C108.935 71.5058 108.958 71.1329 108.964 69.9744L108.956 32.8452C108.956 28.1016 108.716 11.4306 108.999 8.11596L113.986 7.48396ZM7.09131 7.43847L12.0632 8.12219C12.3768 11.7765 12.1074 16.6829 12.1074 20.4735L12.0986 69.9746C12.105 71.2218 12.1482 71.5557 13.248 71.903C16.7995 73.0245 26.4581 75.3796 30.3402 76.4021C31.8257 76.7933 39.256 78.9133 40.008 78.8937C38.679 79.0697 8.77334 74.8299 7.07682 74.5528L7.09143 7.4386L7.09131 7.43847ZM106.547 2.74205L106.55 68.7912C106.533 69.0638 106.52 69.0962 106.48 69.3445C106.473 69.3908 106.443 69.5418 106.437 69.5157C106.431 69.49 106.411 69.6299 106.39 69.6844C105.302 70.2335 102.197 70.8513 100.873 71.1956C98.9391 71.6987 97.095 72.1773 95.2605 72.6788C91.4953 73.7083 87.812 74.6546 84.0435 75.6416C80.279 76.6276 76.5648 77.6127 72.8823 78.5676C70.7627 79.1171 63.402 81.3668 61.7438 81.3757L61.7783 14.4304L106.547 2.74192V2.74205ZM54.3318 80.0757C53.0588 80.1025 23.5789 72.0436 19.4125 71.001C18.4368 70.7568 17.5459 70.5054 16.4756 70.2234C14.1037 69.5983 14.5059 69.9963 14.4983 68.6084C14.3775 46.7191 14.6481 24.7071 14.5385 2.65399L54.3033 13.1513L54.3493 42.0749C54.3493 45.0828 54.0707 70.2054 54.4952 70.9263C55.2849 71.6154 56.4495 71.8232 56.7301 70.5047C56.8851 69.7761 56.7818 67.6861 56.7818 66.8185V28.9176C56.7818 24.2051 56.4782 18.3881 56.827 13.7913L59.3179 14.4752L59.2983 81.46L56.832 80.7612C56.7002 79.4157 57.3166 76.8572 55.7748 76.628C53.9127 76.3511 54.3844 78.7636 54.3318 80.0754V80.0757ZM4.61324 14.5821C4.33332 14.7718 4.5849 14.6349 4.17983 14.7947L3.01202 15.1851C2.52588 15.4123 2.08549 15.7643 1.76873 16.109C-0.0793757 18.1196 0.636358 23.8902 0.636358 27.5431V77.6194C0.635215 80.6448 0.692519 82.6876 2.89182 83.8194C4.41693 84.6041 8.70015 84.3 10.6516 84.3C44.0358 84.3 77.4199 84.3 110.804 84.3C118.278 84.3 120.427 85.1608 120.427 77.2266C120.426 66.0986 120.427 54.9704 120.427 43.8424C120.427 40.5878 120.611 20.9307 120.395 18.7045C120.008 14.7102 116.643 15.2531 116.424 14.3858C116.427 12.6839 116.425 10.9819 116.425 9.27997C116.425 2.95068 116.492 5.09064 108.952 5.62188C108.957 4.54898 108.952 3.47608 108.959 2.40343C108.968 0.873361 109.052 1.14489 108.505 0.0157C106.656 -0.219998 98.4417 2.26697 96.1433 2.85742C93.4324 3.55397 61.4026 12.1648 60.5316 12.1648C59.7567 12.1648 38.1075 6.33965 36.6894 5.96838C33.3824 5.10258 14.4813 -0.229655 12.5578 0.0155729C11.8264 1.52557 12.1011 3.29514 12.111 5.62176C10.3846 5.50016 6.61839 4.63932 5.18997 5.01034C4.23028 5.61375 4.72035 12.3509 4.61349 14.582L4.61324 14.5821Z" fill="#7730DF"/>
<path fill-rule="evenodd" clip-rule="evenodd" d="M100.389 47.1783C100.785 46.7314 100.771 45.566 99.9283 45.2536C98.8964 44.8709 85.9856 48.8296 84.7315 49.1716C82.7364 49.7159 68.4597 53.3885 67.889 54.1541C67.3994 54.8111 67.7096 55.6782 68.2992 55.9391C69.1447 56.3135 73.8474 54.7309 74.861 54.4553C77.7331 53.6743 80.6448 52.8341 83.4586 52.0654C85.4728 51.5151 100.023 47.5916 100.389 47.1783H100.389Z" fill="#7730DF"/>
<path fill-rule="evenodd" clip-rule="evenodd" d="M100.355 21.6155C100.825 21.122 100.681 19.9718 99.9541 19.6967C98.9073 19.3008 85.9095 23.2645 84.6929 23.6045C82.6612 24.1724 68.391 27.8468 67.8637 28.6027C67.4216 29.2363 67.693 30.0954 68.3285 30.3677C69.0174 30.663 69.8366 30.2844 70.5152 30.0922C75.1236 28.7864 99.9193 22.072 100.355 21.6153V21.6155Z" fill="#7730DF"/>
<path fill-rule="evenodd" clip-rule="evenodd" d="M100.427 30.13C100.848 29.5939 100.675 28.4535 99.9198 28.1942C99.0888 27.9091 94.346 29.4497 93.3651 29.724C90.4939 30.5271 87.6225 31.315 84.7654 32.1167C83.5138 32.4679 68.4598 36.3237 67.8922 37.0745C67.3764 37.7568 67.7021 38.6296 68.2838 38.8814C68.9991 39.1911 69.9199 38.7887 70.5937 38.6013L83.4927 35.0068C85.3083 34.5175 100.106 30.5379 100.427 30.1299L100.427 30.13Z" fill="#7730DF"/>
<path fill-rule="evenodd" clip-rule="evenodd" d="M100.325 38.6752C100.898 38.0868 100.568 37.006 99.9502 36.77C98.9461 36.3867 94.3487 37.9671 93.2648 38.2667C89.6228 39.2733 68.4357 44.9765 67.9264 45.5511C67.5343 45.9935 67.4841 47.0368 68.2345 47.373C69.1768 47.7951 73.8909 46.2029 74.9477 45.908C77.7894 45.1146 80.714 44.3194 83.3948 43.5585C85.3968 42.9903 99.8388 39.1743 100.325 38.6752Z" fill="#7730DF"/>
<path fill-rule="evenodd" clip-rule="evenodd" d="M52.0908 45.7246C50.6545 44.6335 38.1466 41.5052 35.3518 40.7206C32.5112 39.9231 29.6341 39.1223 26.7563 38.3283C25.7893 38.0615 20.9022 36.5473 20.0704 36.6901C19.3228 36.8185 18.8949 37.5883 19.2728 38.3518C19.7382 39.2926 26.0593 40.6853 27.4016 41.0537C30.3409 41.8604 33.1486 42.656 36.0001 43.4483L48.8996 47.0354C50.5783 47.5094 52.2759 48.2391 52.0908 45.7246Z" fill="#7730DF"/>
<path fill-rule="evenodd" clip-rule="evenodd" d="M52.0691 28.6818C50.7562 27.6218 45.949 26.6292 43.9281 26.0684L26.727 21.2836C25.2555 20.8687 23.9057 20.5048 22.4224 20.083C21.8328 19.9154 20.7196 19.529 20.0829 19.6351C19.3894 19.7507 18.8712 20.4262 19.2541 21.292C19.6517 22.1907 26.0323 23.6361 27.3734 24.0084L48.8775 29.9875C50.4689 30.4304 52.3745 31.251 52.069 28.6817L52.0691 28.6818Z" fill="#7730DF"/>
<path fill-rule="evenodd" clip-rule="evenodd" d="M19.7721 28.3647C16.8715 30.3892 23.6621 31.4819 25.6032 32.0323L42.831 36.8208C44.2116 37.2181 50.6761 39.3308 51.5754 38.8461C52.1985 38.5102 52.314 37.5577 51.8494 37.0183C51.3091 36.3912 37.9358 32.9416 36.9346 32.6537L24.0735 29.0805C23.0209 28.7883 20.6235 27.7705 19.7722 28.3646L19.7721 28.3647Z" fill="#7730DF"/>
<path fill-rule="evenodd" clip-rule="evenodd" d="M19.911 11.1844C19.0943 11.5836 18.1377 12.9179 21.1163 13.7473L42.5977 19.7123C44.1576 20.1508 50.3662 22.2473 51.4378 21.8466C52.0063 21.6339 52.4309 20.8128 51.9142 20.0752C51.4424 19.4017 46.5615 18.2861 45.7221 18.0586C42.046 17.0628 20.6741 10.8112 19.911 11.1842V11.1844Z" fill="#7730DF"/>
<path fill-rule="evenodd" clip-rule="evenodd" d="M100.291 55.878C100.477 55.7373 101.706 52.9717 98.0095 53.9949C93.2803 55.3038 68.6338 62.039 68.1114 62.4192C67.5799 62.8061 67.4314 63.7997 67.9846 64.2739C68.8702 65.0328 72.8817 63.5158 74.612 63.0443L100.291 55.8781L100.291 55.878Z" fill="#7730DF"/>
<path fill-rule="evenodd" clip-rule="evenodd" d="M100.288 13.2753C100.471 13.1315 101.72 10.3434 98.0005 11.3839C93.3467 12.6857 68.5842 19.4512 68.1074 19.8008C67.5822 20.1859 67.431 21.1954 67.9834 21.6664C68.8552 22.4097 72.8731 20.9031 74.6024 20.4328L100.288 13.2752V13.2753Z" fill="#7730DF"/>
<path fill-rule="evenodd" clip-rule="evenodd" d="M52.1226 54.6649C51.9698 53.5117 49.5536 53.1919 48.3478 52.8608L35.447 49.2734C32.5589 48.471 29.7745 47.7005 26.847 46.8828C23.9283 46.0676 18.8065 43.9101 19.1621 46.5906C19.3047 47.6648 21.5819 47.9634 22.8779 48.3199L44.3832 54.2958C45.889 54.724 47.1159 55.0419 48.6805 55.494C49.7049 55.7899 52.4136 56.8595 52.1225 54.6651L52.1226 54.6649Z" fill="#7730DF"/>
<path fill-rule="evenodd" clip-rule="evenodd" d="M52.1058 63.1255C51.8668 61.9647 49.4378 61.6923 48.2804 61.3718L35.385 57.7814C32.4641 56.9887 29.6329 56.1769 26.7799 55.385C24.0776 54.6348 18.8729 52.4917 19.1493 55.0353C19.2756 56.1974 21.683 56.5089 22.8151 56.8261L50.9173 64.5405C51.7324 64.5163 52.2864 64.0024 52.1057 63.1254L52.1058 63.1255Z" fill="#7730DF"/>
</svg>
