<svg width="131" height="131" viewBox="0 0 131 131" fill="none" xmlns="http://www.w3.org/2000/svg">
<rect width="131" height="131" rx="65.5" fill="#E582EA"/>
<path fill-rule="evenodd" clip-rule="evenodd" d="M45.4079 47.1106C45.4079 45.8112 45.7281 45.1357 46.3705 44.4602L47.311 43.689C48.8865 42.8037 52.6339 43.1313 52.6339 47.1088C52.6339 51.6163 45.4079 51.5114 45.4079 47.1088V47.1106ZM61.7612 66.3167C60.2078 66.3167 59.5157 63.0847 57.5776 63.0847C56.0923 63.0847 56.4365 65.8897 56.4365 67.4579C56.4365 69.2966 56.4365 71.1335 56.4365 72.9722C54.3106 73.9918 54.5352 72.3022 54.5352 78.8675C54.5352 80.5497 54.8057 90.8955 54.2867 91.7403C53.9701 92.2538 53.2799 92.644 52.5511 92.4655C51.0768 92.1029 51.4927 90.1316 51.4927 88.3758C51.4927 86.2444 51.9161 76.9073 50.9369 75.6207C50.0258 74.4225 48.2773 74.4354 47.3846 75.5213C46.6153 76.4563 46.9282 81.2639 46.9282 83.051C46.9282 84.8253 46.9282 86.6015 46.9282 88.3758C46.9282 90.2181 47.2484 92.0753 45.6784 92.4636C43.5397 92.9919 43.6888 90.2715 43.6943 89.3273C43.7146 85.9867 43.9483 75.4422 43.5047 73.5428C42.8145 73.2115 41.793 73.3164 41.793 72.5912V58.3288C41.793 57.1066 44.7876 56.0778 46.1662 56.0465C46.584 56.8361 46.919 57.4637 47.3681 58.268C47.3699 58.2717 48.6877 61.7264 50.162 59.6632L52.0615 56.0483C53.0094 56.0686 54.3566 56.4974 55.0468 56.8674L60.3789 61.4246C62.398 63.4289 63.3164 60.8871 66.8466 57.333C67.2018 56.976 68.7019 55.1667 69.8927 56.4753C71.1977 57.9109 69.0792 59.1791 68.4958 59.9337C67.3472 61.419 65.6227 62.7387 64.2606 64.4449C63.7655 65.0652 62.7495 66.3186 61.7612 66.3186V66.3167ZM39.323 37.7937V52.6267C39.323 53.847 41.7949 54.1507 41.7949 52.0562V39.3159H86.4816V70.3107H62.3317C60.6458 70.3107 60.6403 72.2304 61.8514 72.6924C62.3575 72.8838 63.0901 72.79 63.6606 72.7844L87.2473 72.7771C88.416 72.8673 89.0786 73.9201 88.4768 74.9508C87.9099 75.9207 86.7595 75.6355 85.3405 75.6336H61.5698C60.2151 75.6281 58.7187 75.433 58.7187 76.7748C58.7187 77.6619 59.1623 78.1055 60.0495 78.1055H87.4313C90.9836 78.1055 92.9824 72.8213 88.9535 70.6899V45.2093C88.9535 42.8424 89.3676 38.6882 88.5725 37.0317C88.1455 36.9324 88.1344 36.8422 87.6209 36.8422H40.2709C39.8273 36.8422 39.3193 37.3502 39.3193 37.7937H39.323ZM65.1846 88.9463C68.9393 88.9463 68.5289 91.917 70.1265 91.9207C71.8916 91.9243 71.0891 88.9463 75.2635 88.9463C78.0501 88.9463 78.5709 91.8507 79.6366 91.9888C81.0686 92.1746 80.9728 88.9463 84.7717 88.9463C86.6988 88.9463 88.532 90.6452 88.5743 92.5593H61.1924C61.5716 91.7697 62.006 88.9463 65.1864 88.9463H65.1846ZM42.936 46.7314C42.936 55.3213 55.1057 54.6108 55.1057 47.302V46.1609C55.1057 43.7313 52.2106 40.8362 49.781 40.8362H48.6399C45.5975 40.8362 42.936 43.6522 42.936 46.7314ZM74.8825 85.3333C73.9162 85.3333 73.1707 84.5511 73.1707 83.2425C73.1707 80.9749 76.7838 81.1313 76.7838 83.432C76.7838 84.6284 75.7328 85.3333 74.8825 85.3333ZM84.5803 85.3333C82.1361 85.3333 82.1361 81.5307 84.5803 81.5307C85.519 81.5307 86.4025 82.567 86.4025 83.432C86.4025 84.2952 85.611 85.3333 84.5803 85.3333ZM65.3742 85.3333C62.9207 85.3333 62.9207 81.5307 65.3742 81.5307C67.6749 81.5307 67.7798 85.3333 65.3742 85.3333ZM61.001 83.432C61.001 85.3149 61.9986 85.9794 62.7127 87.045C59.3832 87.8199 56.9168 95.0312 60.2409 95.0312H89.7155C92.8739 95.0312 90.8051 87.9193 87.054 87.045C87.4553 86.4966 87.2731 86.8757 87.7258 86.3861C89.4265 84.5511 89.2443 82.1473 87.6117 80.4025C87.5841 80.3749 87.5455 80.3344 87.5178 80.3049L87.1185 79.9442C84.5509 77.8883 80.209 79.7546 80.209 83.432C80.209 85.3149 81.2066 85.9794 81.9207 87.045C80.8495 87.2954 80.417 88.0445 79.6384 88.5672C79.2078 87.9248 78.4126 87.2475 77.5476 87.045C78.466 85.6738 79.2593 85.6389 79.2593 83.2425C79.2593 82.0387 78.6298 80.9786 77.9856 80.3325C75.6353 77.9766 70.7026 78.8896 70.7026 83.813C70.7026 85.6407 71.748 86.0511 72.4143 87.045C71.4627 87.2659 70.8682 87.8825 70.132 88.3758C69.4952 87.9487 68.7718 87.1205 67.8497 87.045C68.3485 86.3659 70.3786 85.0315 69.4768 82.1878C67.9454 77.3619 61.0047 78.5767 61.0047 83.432H61.001ZM53.1824 95.0312H52.7958C51.594 94.9668 50.3387 94.3023 49.3338 92.817C49.0779 92.4378 49.3117 92.7029 49.0209 92.3679C48.3031 95.4453 43.1587 96.1374 41.6752 92.679C40.8452 90.7464 41.2243 78.0963 41.2243 75.444C40.4034 75.0097 39.323 74.1888 39.323 72.9722V57.9496C39.323 57.1655 39.9709 56.2545 40.4071 55.8017C41.747 54.4121 45.0545 53.3869 47.1196 53.3869C47.7546 53.3869 48.719 55.6692 49.0209 56.2397C50.0258 55.5035 49.8896 53.5028 51.4964 53.4071C52.4167 53.3537 55.0542 54.066 55.7739 54.4305C57.3291 55.2201 57.1543 55.2918 58.1224 56.0741C58.45 56.3391 58.5126 56.3373 58.8641 56.6631L61.5716 59.0907C64.1815 57.3422 66.5889 51.8831 70.5093 53.9556C71.1038 53.0685 75.8966 48.4726 77.3083 47.0627C77.9194 46.4517 78.7863 45.2093 79.828 45.2093C80.4593 45.2093 80.7428 45.9216 80.9692 46.3504C80.717 47.4327 79.6532 48.1413 78.9243 48.8702C78.1586 49.6358 77.4187 50.2745 76.7856 51.1046C75.6224 52.6286 73.3806 54.2225 72.4124 55.6692C72.556 56.2839 72.7934 56.849 72.7934 57.5704C72.7934 60.0276 69.37 62.4313 68.0669 64.0639C67.3528 64.9584 66.1859 65.9818 65.3282 66.8413C61.8642 70.3071 61.0544 68.3616 59.0997 67.8389C59.0997 69.4144 59.2635 71.1905 58.9985 72.6832C58.8549 73.4949 58.7187 74.0323 58.347 74.5035C58.0727 74.8514 57.4929 75.317 57.007 75.4459C57.007 79.4399 57.007 83.432 57.007 87.426C57.007 89.4101 57.2242 91.4532 56.5046 92.8188C55.8254 94.1072 54.5609 94.9594 53.1805 95.0312H53.1824Z" fill="white"/>
</svg>
